<?xml version="1.0" encoding="UTF-8" standalone="no"?>
<!-- Created with Inkscape (http://www.inkscape.org/) -->

<svg
   width="11in"
   height="17in"
   viewBox="0 0 279.4 431.8"
   version="1.1"
   id="svg1"
   inkscape:version="1.3 (0e150ed6c4, 2023-07-21)"
   sodipodi:docname="regions puzzle map.svg"
   xmlns:inkscape="http://www.inkscape.org/namespaces/inkscape"
   xmlns:sodipodi="http://sodipodi.sourceforge.net/DTD/sodipodi-0.dtd"
   xmlns="http://www.w3.org/2000/svg"
   xmlns:svg="http://www.w3.org/2000/svg">
  <sodipodi:namedview
     id="namedview1"
     pagecolor="#ffffff"
     bordercolor="#000000"
     borderopacity="0.25"
     inkscape:showpageshadow="2"
     inkscape:pageopacity="0.0"
     inkscape:pagecheckerboard="0"
     inkscape:deskcolor="#d1d1d1"
     inkscape:document-units="mm"
     inkscape:zoom="0.5121316"
     inkscape:cx="439.3402"
     inkscape:cy="873.79885"
     inkscape:window-width="1920"
     inkscape:window-height="1009"
     inkscape:window-x="-8"
     inkscape:window-y="-8"
     inkscape:window-maximized="1"
     inkscape:current-layer="layer1" />
  <defs
     id="defs1" />
  <g
     inkscape:label="Layer 1"
     inkscape:groupmode="layer"
     id="layer1"
     style="display:inline">
    <path
       style="display:inline;fill:#0000ff;stroke-width:0.1;stroke-linecap:round;stroke-linejoin:round"
       d="m 133.4046,0.2248052 c 0,0 -0.19373,3.4872629 -2.38942,4.4559464 -2.19568,0.9686834 -3.29352,0.193737 -3.93931,1.3561574 -0.64579,1.1624201 -0.77495,8.976471 -1.29158,13.30326 -0.51663,4.326789 -5.29547,12.14084 -4.908,20.148629 0.38747,8.007789 -0.64579,22.150577 -5.03716,25.508682 -4.39136,3.358105 -6.13499,0.904105 -7.87863,-0.258315 -1.74363,-1.16242 -4.19763,-3.228949 -5.55379,-2.38942 -1.35615,0.839525 -1.29157,2.066525 -1.29157,3.680999 0,1.614472 0.45205,10.526366 -0.96869,16.661366 -1.420744,6.134999 -4.843424,12.269992 -4.908004,19.37365 -0.0646,7.10368 1.227,4.32679 1.29158,6.45789 0.0646,2.13111 -2.454,6.84537 -3.42268,9.04105 -0.96869,2.19569 -1.09785,6.32874 -2.19569,7.16827 -1.09784,0.83952 -1.61447,1.74363 -1.35616,2.38942 0.25832,0.64579 0.90411,2.32484 0.83953,3.55184 -0.0646,1.227 -1.227,4.39137 -2.00195,6.90995 -0.77494,2.51857 -6.19958,29.57715 -8.39526,39.26399 -2.19568,9.68684 -4.262204,15.62811 -6.328732,21.82768 -2.066525,6.19958 -5.020678,10.91115 -5.659974,11.45912 -0.6393,0.54797 -1.324264,1.2786 -1.369928,1.68957 -0.04567,0.41098 0.913286,3.1965 0.456641,3.60748 -0.456641,0.41097 -1.004612,-0.27399 -1.643909,0.0457 -0.639299,0.31965 -1.369927,2.32887 -1.18727,2.92251 0.182655,0.59363 -0.342482,2.60286 -0.844788,3.79013 -0.502306,1.18727 -1.917896,3.37915 -2.557195,4.31526 -0.6393,0.93612 -1.575417,3.17367 -1.82657,4.06412 -0.251153,0.89045 -0.182655,4.70341 -0.319648,6.41582 -0.136993,1.71241 -4.817576,14.2929 -6.689807,18.81365 -1.872231,4.52076 -12.283673,26.43958 -15.023523,31.27998 -2.739853,4.84042 -6.529983,10.63977 -8.493543,12.74032 -1.963563,2.10055 -8.584872,9.26983 -10.959409,13.10563 -2.37454,3.8358 -5.708028,8.08257 -9.635149,12.00968 -3.927123,3.92713 -7.717251,7.71726 -7.717251,7.71726 L 0,0 Z"
       id="path2"
       sodipodi:nodetypes="cssssssssssssssssssssssssssssssssccc" />
    <path
       style="fill:#0000ff;stroke-width:0.699974"
       d="m 207.25739,85.191911 c -2.88166,-2.778959 -2.69153,-7.253004 -4.87495,-10.50321 -1.10101,-4.438531 -1.61438,-9.024991 -5.90789,-11.083653 -1.88984,-3.954079 1.09831,-8.060262 3.56367,-10.978974 3.41709,-2.060679 7.86742,-1.335318 10.93629,-4.577819 3.93478,-1.49676 7.22288,4.028272 6.59903,7.508052 -0.95206,3.843471 -1.4289,8.123681 -0.79133,11.954855 1.52714,3.771007 1.26079,8.188516 -0.33483,11.838443 -2.13895,2.722287 -5.58074,5.762056 -9.18999,5.842306 z"
       id="path421" />
    <path
       style="fill:#0000ff;stroke-width:0.699974"
       d="m 180.24295,413.43867 c -2.17532,-5.9039 -5.66859,-11.18448 -8.94405,-16.51495 -0.42213,-6.90412 -0.64343,-14.00077 1.97386,-20.53885 1.28496,-5.22353 1.19457,-10.81688 3.57099,-15.74296 2.07271,-6.60695 -3.5386,-13.05962 -2.13027,-19.23713 2.09351,-5.86415 1.50477,-12.19003 1.34061,-18.2906 3.09453,-5.56402 2.76306,-12.07052 2.89411,-17.87316 2.39803,-5.64428 4.94112,-11.29119 6.03894,-17.35117 2.39742,-6.48229 8.80182,-10.08391 12.53829,-15.54586 5.32131,-0.31829 13.03569,2.62371 13.77912,9.15318 0.24829,6.10102 -4.36155,11.28145 -3.76091,17.61702 -0.93252,5.91469 -3.29922,11.63004 -2.97735,17.73217 -0.36542,4.80126 1.32171,9.25715 2.26062,13.86155 0.86901,8.71328 -3.02503,17.12814 -2.449,25.86683 3.78076,5.33839 -4.49411,15.82258 -8.76046,8.63297 -0.17939,-4.277 -4.11004,-4.32027 -4.93755,-0.1092 -2.64458,4.66261 -12.82706,10.28489 -5.77271,15.56472 3.44617,4.35193 9.07438,4.688 13.77182,6.95093 7.63199,4.57078 -2.90693,11.92165 0.0101,17.85362 1.33228,4.7323 -5.81974,7.75944 -9.99591,8.32856 -2.82107,0.29645 -5.62323,-0.33832 -8.45029,-0.35767 z"
       id="path6" />
  </g>
</svg>
