<?xml version="1.0" encoding="UTF-8" standalone="no"?>
<!-- Created with Inkscape (http://www.inkscape.org/) -->

<svg
   width="17in"
   height="11in"
   viewBox="0 0 431.8 279.4"
   version="1.1"
   id="svg1"
   inkscape:version="1.3 (0e150ed6c4, 2023-07-21)"
   sodipodi:docname="summary_of_the_law.svg"
   xmlns:inkscape="http://www.inkscape.org/namespaces/inkscape"
   xmlns:sodipodi="http://sodipodi.sourceforge.net/DTD/sodipodi-0.dtd"
   xmlns="http://www.w3.org/2000/svg"
   xmlns:svg="http://www.w3.org/2000/svg">
  <sodipodi:namedview
     id="namedview1"
     pagecolor="#ffffff"
     bordercolor="#000000"
     borderopacity="0.25"
     inkscape:showpageshadow="2"
     inkscape:pageopacity="0.0"
     inkscape:pagecheckerboard="0"
     inkscape:deskcolor="#d1d1d1"
     inkscape:document-units="in"
     inkscape:zoom="0.51213161"
     inkscape:cx="823.03063"
     inkscape:cy="605.31315"
     inkscape:window-width="1350"
     inkscape:window-height="1032"
     inkscape:window-x="156"
     inkscape:window-y="0"
     inkscape:window-maximized="0"
     inkscape:current-layer="layer1"
     showguides="true" />
  <defs
     id="defs1">
    <clipPath
       clipPathUnits="userSpaceOnUse"
       id="clipPath21">
      <path
         d="M 12.145,9 H 601.456 V 768.905 H 12.145 Z"
         transform="matrix(0.0016969,0,0,-0.00131608,-0.02060861,1.0119369)"
         id="path21" />
    </clipPath>
  </defs>
  <path
     id="rect1"
     style="fill:none;stroke:#000000;stroke-width:0.1;stroke-linecap:round;stroke-linejoin:round"
     d="M 115.38843,6.5434269 A 79.637848,53.517929 0 0 0 36.374137,53.668199 H 14.927384 V 269.93407 H 215.85 V 53.668199 H 194.43529 A 79.637848,53.517929 0 0 0 115.38843,6.5434269 Z"
     inkscape:label="frame" />
  <path
     id="rect1-8"
     style="fill:none;stroke:#000000;stroke-width:0.1;stroke-linecap:round;stroke-linejoin:round"
     d="M 316.41105,6.5434269 A 79.637848,53.517929 0 0 0 237.39675,53.668199 H 215.95 V 269.93407 H 416.87262 V 53.668199 H 395.45791 A 79.637848,53.517929 0 0 0 316.41105,6.5434269 Z"
     inkscape:label="frame" />
  <g
     inkscape:groupmode="layer"
     id="layer1"
     inkscape:label="outer"
     style="display:inline">
    <path
       d="m 237.13167,165.65563 4.36174,-10.2757 h 1.45909 l 4.36173,10.2757 h -1.28834 l -1.2573,-2.98027 h -5.09128 l -1.2573,2.98027 z m 2.99579,-4.0513 h 4.19099 l -2.0955,-5.01367 z m 8.24229,4.0513 v -7.7611 h 1.16417 v 1.21073 q 0.4191,-0.5588 1.02446,-0.94686 0.60537,-0.38805 1.55222,-0.38805 0.80716,0 1.50566,0.38805 0.71402,0.37254 1.14864,1.13313 0.45014,0.74506 0.45014,1.84714 v 4.51696 h -1.16416 v -4.48592 q 0,-1.05551 -0.60537,-1.69192 -0.60536,-0.65193 -1.56774,-0.65193 -0.65193,0 -1.17969,0.29492 -0.52775,0.29492 -0.85372,0.8382 -0.31044,0.52775 -0.31044,1.22625 v 4.4704 z m 12.06075,0.12417 q -1.13312,0 -1.98684,-0.52775 -0.8382,-0.54328 -1.30386,-1.45909 -0.46567,-0.91581 -0.46567,-2.01788 0,-1.1176 0.46567,-2.01789 0.46566,-0.91581 1.30386,-1.44356 0.85372,-0.54328 1.98684,-0.54328 0.96238,0 1.64536,0.37253 0.6985,0.37254 1.13312,1.00895 v -4.36174 h 1.16416 v 10.86554 h -1.16416 v -1.24178 q -0.43462,0.62089 -1.13312,0.99342 -0.68298,0.37253 -1.64536,0.37253 z m 0.15523,-1.0555 q 0.86924,0 1.45908,-0.40358 0.60537,-0.40358 0.91581,-1.07103 0.31045,-0.68298 0.31045,-1.47461 0,-0.80716 -0.31045,-1.47461 -0.31044,-0.66746 -0.91581,-1.07103 -0.58984,-0.40358 -1.45908,-0.40358 -0.85373,0 -1.47461,0.40358 -0.62089,0.40357 -0.94686,1.07103 -0.32596,0.66745 -0.32596,1.47461 0,0.79163 0.32596,1.47461 0.32597,0.66745 0.94686,1.07103 0.62088,0.40358 1.47461,0.40358 z m 9.9497,0.93133 v -6.73664 h -1.58326 v -1.02446 h 1.58326 v -2.77848 h 1.16417 v 2.77848 h 1.78505 v 1.02446 h -1.78505 v 6.73664 z m 4.22204,0 v -10.86554 h 1.16417 v 4.31517 q 0.4191,-0.5588 1.02446,-0.94686 0.60537,-0.38805 1.55222,-0.38805 0.80716,0 1.50566,0.38805 0.71402,0.37254 1.14864,1.13313 0.45014,0.74506 0.45014,1.84714 v 4.51696 h -1.16416 v -4.48592 q 0,-1.05551 -0.60537,-1.69192 -0.60536,-0.65193 -1.56774,-0.65193 -0.65193,0 -1.17969,0.29492 -0.52775,0.29492 -0.85372,0.8382 -0.31044,0.52775 -0.31044,1.22625 v 4.4704 z m 12.2315,0.12417 q -1.17969,0 -2.06446,-0.52775 -0.88476,-0.54328 -1.38147,-1.45909 -0.48119,-0.91581 -0.48119,-2.01788 0,-1.1176 0.46567,-2.01789 0.46566,-0.91581 1.3349,-1.44356 0.86925,-0.54328 2.04893,-0.54328 1.19521,0 2.04893,0.54328 0.86925,0.52775 1.33491,1.44356 0.46567,0.90029 0.46567,2.01789 v 0.46566 h -6.5038 q 0.0931,0.68298 0.43462,1.2573 0.35701,0.5588 0.94685,0.90029 0.58985,0.32597 1.36596,0.32597 0.82267,0 1.38147,-0.35702 0.5588,-0.37253 0.86925,-0.94685 h 1.27282 q -0.40358,1.03999 -1.28835,1.70744 -0.86924,0.65193 -2.25071,0.65193 z m -2.71639,-4.62561 h 5.27755 q -0.15522,-0.99342 -0.8382,-1.66088 -0.68298,-0.66745 -1.80058,-0.66745 -1.11759,0 -1.80057,0.66745 -0.66745,0.66746 -0.8382,1.66088 z m 14.04757,4.62561 q -1.07103,0 -1.8161,-0.35701 -0.72954,-0.35701 -1.1176,-0.93133 -0.38805,-0.58984 -0.43462,-1.27282 h 1.21073 q 0.0466,0.38806 0.26388,0.76059 0.23283,0.35701 0.6985,0.58984 0.46567,0.21731 1.21073,0.21731 0.23284,0 0.57432,-0.0466 0.34149,-0.0466 0.65194,-0.17075 0.32596,-0.12417 0.54327,-0.37253 0.21731,-0.24835 0.21731,-0.63641 0,-0.48119 -0.37253,-0.74507 -0.37253,-0.26387 -0.96238,-0.40357 -0.58984,-0.15522 -1.25729,-0.29492 -0.65194,-0.1397 -1.24178,-0.35701 -0.58984,-0.23284 -0.96238,-0.63642 -0.37253,-0.41909 -0.37253,-1.13312 0,-1.05551 0.76059,-1.62983 0.77611,-0.58984 2.28176,-0.58984 1.02447,0 1.66088,0.32597 0.65193,0.31044 0.9779,0.80715 0.34148,0.49671 0.40357,1.07103 h -1.17968 q -0.0621,-0.49671 -0.49672,-0.85372 -0.41909,-0.35701 -1.39699,-0.35701 -1.84714,0 -1.84714,1.1176 0,0.46566 0.37253,0.71402 0.37253,0.24836 0.96237,0.40358 0.58985,0.1397 1.24178,0.2794 0.66746,0.12417 1.2573,0.35701 0.58984,0.23283 0.96237,0.66745 0.37254,0.4191 0.37254,1.14864 0,1.13313 -0.86925,1.73849 -0.85372,0.58984 -2.29728,0.58984 z m 8.10259,0 q -1.17969,0 -2.06445,-0.52775 -0.88477,-0.54328 -1.38148,-1.45909 -0.48118,-0.91581 -0.48118,-2.01788 0,-1.1176 0.46566,-2.01789 0.46567,-0.91581 1.33491,-1.44356 0.86924,-0.54328 2.04893,-0.54328 1.19521,0 2.04893,0.54328 0.86924,0.52775 1.33491,1.44356 0.46567,0.90029 0.46567,2.01789 v 0.46566 h -6.50381 q 0.0931,0.68298 0.43463,1.2573 0.35701,0.5588 0.94685,0.90029 0.58984,0.32597 1.36595,0.32597 0.82268,0 1.38148,-0.35702 0.5588,-0.37253 0.86924,-0.94685 h 1.27282 q -0.40357,1.03999 -1.28834,1.70744 -0.86924,0.65193 -2.25072,0.65193 z m -2.71638,-4.62561 h 5.27754 q -0.15522,-0.99342 -0.83819,-1.66088 -0.68298,-0.66745 -1.80058,-0.66745 -1.1176,0 -1.80057,0.66745 -0.66746,0.66746 -0.8382,1.66088 z m 11.25358,4.62561 q -1.16416,0 -2.01788,-0.52775 -0.85372,-0.54328 -1.33491,-1.45909 -0.46567,-0.91581 -0.46567,-2.01788 0,-1.1176 0.46567,-2.01789 0.48119,-0.91581 1.33491,-1.44356 0.85372,-0.54328 2.01788,-0.54328 1.38148,0 2.34385,0.71402 0.9779,0.71402 1.31939,1.84714 h -1.2573 q -0.26387,-0.66745 -0.85372,-1.08655 -0.57432,-0.4191 -1.397,-0.4191 -0.85372,0 -1.49013,0.40358 -0.63641,0.40357 -0.9779,1.07103 -0.34148,0.66745 -0.34148,1.47461 0,0.79163 0.34148,1.47461 0.34149,0.66745 0.9779,1.07103 0.63641,0.40358 1.49013,0.40358 0.82268,0 1.397,-0.4191 0.58985,-0.4191 0.85372,-1.08656 h 1.2573 q -0.34149,1.13312 -1.31939,1.84714 -0.96237,0.71402 -2.34385,0.71402 z m 8.47513,0 q -1.17969,0 -2.04893,-0.52775 -0.86924,-0.54328 -1.33491,-1.45909 -0.46566,-0.91581 -0.46566,-2.01788 0,-1.1176 0.46566,-2.01789 0.46567,-0.91581 1.33491,-1.44356 0.86924,-0.54328 2.04893,-0.54328 1.19521,0 2.04893,0.54328 0.86924,0.52775 1.33491,1.44356 0.46567,0.90029 0.46567,2.01789 0,1.10207 -0.46567,2.01788 -0.46567,0.91581 -1.33491,1.45909 -0.85372,0.52775 -2.04893,0.52775 z m 0,-1.0555 q 0.86924,0 1.45909,-0.40358 0.60536,-0.40358 0.91581,-1.07103 0.31044,-0.68298 0.31044,-1.47461 0,-0.80716 -0.31044,-1.47461 -0.31045,-0.66746 -0.91581,-1.07103 -0.58985,-0.40358 -1.45909,-0.40358 -0.85372,0 -1.45909,0.40358 -0.60536,0.40357 -0.91581,1.07103 -0.31044,0.66745 -0.31044,1.47461 0,0.79163 0.31044,1.47461 0.31045,0.66745 0.91581,1.07103 0.60537,0.40358 1.45909,0.40358 z m 5.38619,0.93133 v -7.7611 h 1.16417 v 1.21073 q 0.4191,-0.5588 1.02446,-0.94686 0.60537,-0.38805 1.55222,-0.38805 0.80716,0 1.50566,0.38805 0.71402,0.37254 1.14864,1.13313 0.45014,0.74506 0.45014,1.84714 v 4.51696 h -1.16416 v -4.48592 q 0,-1.05551 -0.60537,-1.69192 -0.60536,-0.65193 -1.56774,-0.65193 -0.65193,0 -1.17969,0.29492 -0.52775,0.29492 -0.85372,0.8382 -0.31044,0.52775 -0.31044,1.22625 v 4.4704 z m 12.06075,0.12417 q -1.13312,0 -1.98684,-0.52775 -0.8382,-0.54328 -1.30387,-1.45909 -0.46566,-0.91581 -0.46566,-2.01788 0,-1.1176 0.46566,-2.01789 0.46567,-0.91581 1.30387,-1.44356 0.85372,-0.54328 1.98684,-0.54328 0.96237,0 1.64535,0.37253 0.6985,0.37254 1.13312,1.00895 v -4.36174 h 1.16417 v 10.86554 h -1.16417 v -1.24178 q -0.43462,0.62089 -1.13312,0.99342 -0.68298,0.37253 -1.64535,0.37253 z m 0.15522,-1.0555 q 0.86924,0 1.45909,-0.40358 0.60536,-0.40358 0.91581,-1.07103 0.31044,-0.68298 0.31044,-1.47461 0,-0.80716 -0.31044,-1.47461 -0.31045,-0.66746 -0.91581,-1.07103 -0.58985,-0.40358 -1.45909,-0.40358 -0.85372,0 -1.47461,0.40358 -0.62089,0.40357 -0.94685,1.07103 -0.32597,0.66745 -0.32597,1.47461 0,0.79163 0.32597,1.47461 0.32596,0.66745 0.94685,1.07103 0.62089,0.40358 1.47461,0.40358 z m 9.06494,-8.13364 v -1.52117 h 1.2573 v 1.52117 z m 0.0466,9.06497 v -7.7611 h 1.16416 v 7.7611 z m 6.00709,0.12417 q -1.07103,0 -1.8161,-0.35701 -0.72954,-0.35701 -1.11759,-0.93133 -0.38806,-0.58984 -0.43463,-1.27282 h 1.21074 q 0.0466,0.38806 0.26387,0.76059 0.23284,0.35701 0.6985,0.58984 0.46567,0.21731 1.21073,0.21731 0.23284,0 0.57433,-0.0466 0.34148,-0.0466 0.65193,-0.17075 0.32596,-0.12417 0.54328,-0.37253 0.21731,-0.24835 0.21731,-0.63641 0,-0.48119 -0.37254,-0.74507 -0.37253,-0.26387 -0.96237,-0.40357 -0.58985,-0.15522 -1.2573,-0.29492 -0.65193,-0.1397 -1.24178,-0.35701 -0.58984,-0.23284 -0.96237,-0.63642 -0.37254,-0.41909 -0.37254,-1.13312 0,-1.05551 0.76059,-1.62983 0.77611,-0.58984 2.28176,-0.58984 1.02447,0 1.66088,0.32597 0.65193,0.31044 0.9779,0.80715 0.34149,0.49671 0.40358,1.07103 h -1.17969 q -0.0621,-0.49671 -0.49671,-0.85372 -0.4191,-0.35701 -1.397,-0.35701 -1.84714,0 -1.84714,1.1176 0,0.46566 0.37253,0.71402 0.37253,0.24836 0.96238,0.40358 0.58984,0.1397 1.24177,0.2794 0.66746,0.12417 1.2573,0.35701 0.58985,0.23283 0.96238,0.66745 0.37253,0.4191 0.37253,1.14864 0,1.13313 -0.86924,1.73849 -0.85372,0.58984 -2.29729,0.58984 z m 7.96289,-0.12417 v -10.86554 h 1.16416 v 10.86554 z m 3.13548,-9.06497 v -1.52117 h 1.2573 v 1.52117 z m 0.0466,9.06497 v -7.7611 h 1.16417 v 7.7611 z m 3.18204,0 v -10.86554 h 1.16416 v 6.95394 l 3.74085,-3.8495 h 1.62983 l -3.11996,3.05787 3.3528,4.70323 h -1.42811 l -2.71638,-3.89607 -1.45909,1.44356 v 2.45251 z m 10.85004,0.12417 q -1.17969,0 -2.06445,-0.52775 -0.88477,-0.54328 -1.38148,-1.45909 -0.48119,-0.91581 -0.48119,-2.01788 0,-1.1176 0.46567,-2.01789 0.46567,-0.91581 1.33491,-1.44356 0.86924,-0.54328 2.04893,-0.54328 1.19521,0 2.04893,0.54328 0.86924,0.52775 1.33491,1.44356 0.46566,0.90029 0.46566,2.01789 v 0.46566 h -6.5038 q 0.0931,0.68298 0.43462,1.2573 0.35701,0.5588 0.94686,0.90029 0.58984,0.32597 1.36595,0.32597 0.82268,0 1.38148,-0.35702 0.5588,-0.37253 0.86924,-0.94685 h 1.27282 q -0.40358,1.03999 -1.28834,1.70744 -0.86924,0.65193 -2.25072,0.65193 z m -2.71639,-4.62561 h 5.27755 q -0.15522,-0.99342 -0.8382,-1.66088 -0.68297,-0.66745 -1.80057,-0.66745 -1.1176,0 -1.80058,0.66745 -0.66745,0.66746 -0.8382,1.66088 z m 11.17597,-4.56353 v -1.52117 h 1.2573 v 1.52117 z m 0.0466,9.06497 v -7.7611 h 1.16417 v 7.7611 z m 4.02025,0 v -6.73664 h -1.58326 v -1.02446 h 1.58326 v -2.77848 h 1.16417 v 2.77848 h 1.78505 v 1.02446 h -1.78505 v 6.73664 z"
       id="text1-2"
       style="font-size:15.5222px;line-height:1;font-family:Questrial;-inkscape-font-specification:'Questrial, Normal';text-align:center;text-anchor:middle;display:inline;fill:#0000ff;stroke-width:0.1;stroke-linecap:round;stroke-linejoin:round"
       inkscape:label="back"
       aria-label="And the second is like it" />
    <path
       d="m 28.223182,165.65563 v -9.17362 h -3.585628 v -1.10208 h 8.335421 v 1.10208 h -3.585628 v 9.17362 z m 5.976055,0 v -10.86554 h 1.164165 v 4.31517 q 0.4191,-0.5588 1.024465,-0.94686 0.605366,-0.38805 1.55222,-0.38805 0.807155,0 1.505654,0.38805 0.714021,0.37254 1.148643,1.13313 0.450143,0.74506 0.450143,1.84714 v 4.51696 h -1.164165 v -4.48592 q 0,-1.05551 -0.605365,-1.69192 -0.605366,-0.65193 -1.567743,-0.65193 -0.651932,0 -1.179687,0.29492 -0.527755,0.29492 -0.853721,0.8382 -0.310444,0.52775 -0.310444,1.22625 v 4.4704 z m 12.231492,0.12417 q -1.179687,0 -2.064452,-0.52775 -0.884766,-0.54328 -1.381476,-1.45909 -0.481188,-0.91581 -0.481188,-2.01788 0,-1.1176 0.465666,-2.01789 0.465666,-0.91581 1.334909,-1.44356 0.869243,-0.54328 2.04893,-0.54328 1.195209,0 2.04893,0.54328 0.869244,0.52775 1.33491,1.44356 0.465666,0.90029 0.465666,2.01789 v 0.46566 h -6.503802 q 0.09313,0.68298 0.434622,1.2573 0.35701,0.5588 0.946854,0.90029 0.589843,0.32597 1.365953,0.32597 0.822677,0 1.381476,-0.35702 0.558799,-0.37253 0.869243,-0.94685 h 1.272821 q -0.403578,1.03999 -1.288343,1.70744 -0.869243,0.65193 -2.250719,0.65193 z m -2.716385,-4.62561 h 5.277548 q -0.155222,-0.99342 -0.838199,-1.66088 -0.682977,-0.66745 -1.800575,-0.66745 -1.117598,0 -1.800575,0.66745 -0.667455,0.66746 -0.838199,1.66088 z m 15.848144,4.62561 q -1.567742,0 -2.700862,-0.69849 -1.117599,-0.71403 -1.722965,-1.90923 -0.605365,-1.19521 -0.605365,-2.6543 0,-1.45909 0.620888,-2.6543 0.620888,-1.19521 1.754008,-1.89371 1.148643,-0.71402 2.685341,-0.71402 1.660875,0 2.871607,0.82268 1.226253,0.80715 1.800575,2.0955 h -1.27282 q -0.465666,-0.82268 -1.303865,-1.30387 -0.822677,-0.48119 -2.002364,-0.48119 -1.241776,0 -2.142064,0.5588 -0.900287,0.54328 -1.381475,1.47461 -0.465666,0.93133 -0.465666,2.0955 0,1.14864 0.465666,2.0955 0.465666,0.93133 1.350431,1.49013 0.900288,0.54327 2.142064,0.54327 0.931332,0 1.754008,-0.40357 0.838199,-0.40358 1.350432,-1.16417 0.527754,-0.76059 0.527754,-1.83162 h -3.756372 v -1.05551 h 4.827404 v 5.46382 h -1.071032 v -1.8161 q -0.325966,0.49671 -0.838198,0.94685 -0.512233,0.43463 -1.241776,0.71403 -0.714022,0.27939 -1.645354,0.27939 z m 6.596931,-0.12417 v -7.7611 h 1.164165 v 1.90923 q 0.06209,-0.20179 0.232832,-0.52776 0.186267,-0.34149 0.527755,-0.68297 0.341489,-0.34149 0.853721,-0.57433 0.527755,-0.24835 1.241776,-0.24835 h 0.07761 v 1.16416 h -0.1397 q -0.869243,0 -1.505653,0.48119 -0.620888,0.46567 -0.962376,1.22626 -0.325966,0.74506 -0.325966,1.59878 v 3.41489 z m 8.599279,0.12417 q -1.179687,0 -2.064453,-0.52775 -0.884765,-0.54328 -1.381476,-1.45909 -0.481188,-0.91581 -0.481188,-2.01788 0,-1.1176 0.465666,-2.01789 0.465666,-0.91581 1.334909,-1.44356 0.869244,-0.54328 2.048931,-0.54328 1.195209,0 2.04893,0.54328 0.869243,0.52775 1.334909,1.44356 0.465666,0.90029 0.465666,2.01789 v 0.46566 h -6.503801 q 0.09313,0.68298 0.434621,1.2573 0.357011,0.5588 0.946854,0.90029 0.589844,0.32597 1.365954,0.32597 0.822676,0 1.381476,-0.35702 0.558799,-0.37253 0.869243,-0.94685 h 1.27282 q -0.403577,1.03999 -1.288342,1.70744 -0.869244,0.65193 -2.250719,0.65193 z m -2.716385,-4.62561 h 5.277548 q -0.155222,-0.99342 -0.838199,-1.66088 -0.682977,-0.66745 -1.800575,-0.66745 -1.117599,0 -1.800575,0.66745 -0.667455,0.66746 -0.838199,1.66088 z m 11.191492,4.62561 q -1.133121,0 -1.986842,-0.52775 -0.838199,-0.54328 -1.303865,-1.45909 -0.465666,-0.91581 -0.465666,-2.01788 0,-1.1176 0.465666,-2.01789 0.465666,-0.91581 1.303865,-1.44356 0.853721,-0.54328 1.986842,-0.54328 0.962376,0 1.645353,0.37253 0.698499,0.37254 1.13312,1.00895 v -1.2573 h 1.164165 v 7.7611 h -1.164165 v -1.24178 q -0.434621,0.62089 -1.13312,0.99342 -0.682977,0.37253 -1.645353,0.37253 z m 0.155222,-1.0555 q 0.869243,0 1.459086,-0.40358 0.605366,-0.40358 0.91581,-1.07103 0.310444,-0.68298 0.310444,-1.47461 0,-0.80716 -0.310444,-1.47461 -0.310444,-0.66746 -0.91581,-1.07103 -0.589843,-0.40358 -1.459086,-0.40358 -0.853721,0 -1.474609,0.40358 -0.620888,0.40357 -0.946855,1.07103 -0.325966,0.66745 -0.325966,1.47461 0,0.79163 0.325966,1.47461 0.325967,0.66745 0.946855,1.07103 0.620888,0.40358 1.474609,0.40358 z m 6.643491,0.93133 v -6.73664 h -1.583264 v -1.02446 h 1.583264 v -2.77848 h 1.164165 v 2.77848 h 1.785053 v 1.02446 h -1.785053 v 6.73664 z m 12.091782,0.12417 q -1.53669,0 -2.654291,-0.69849 -1.117599,-0.71403 -1.722965,-1.90923 -0.589843,-1.19521 -0.589843,-2.6543 0,-1.45909 0.589843,-2.6543 0.605366,-1.19521 1.722965,-1.89371 1.117601,-0.71402 2.654291,-0.71402 1.16417,0 2.0955,0.4191 0.93133,0.40358 1.58327,1.1176 0.65193,0.71402 0.97789,1.66088 h -1.22625 q -0.38805,-0.94686 -1.22625,-1.50566 -0.8382,-0.5588 -2.11102,-0.5588 -1.24178,0 -2.12654,0.5588 -0.869247,0.54328 -1.31939,1.47461 -0.450144,0.93133 -0.450144,2.0955 0,1.14864 0.450144,2.0955 0.450143,0.93133 1.31939,1.49013 0.88476,0.54327 2.12654,0.54327 1.27282,0 2.11102,-0.55879 0.8382,-0.5588 1.22625,-1.50566 h 1.22625 q -0.32596,0.93133 -0.97789,1.66088 -0.65194,0.71402 -1.58327,1.13312 -0.93133,0.40357 -2.0955,0.40357 z m 9.51512,0 q -1.17969,0 -2.04893,-0.52775 -0.86924,-0.54328 -1.33491,-1.45909 -0.46566,-0.91581 -0.46566,-2.01788 0,-1.1176 0.46566,-2.01789 0.46567,-0.91581 1.33491,-1.44356 0.86924,-0.54328 2.04893,-0.54328 1.19521,0 2.04893,0.54328 0.86924,0.52775 1.33491,1.44356 0.46567,0.90029 0.46567,2.01789 0,1.10207 -0.46567,2.01788 -0.46567,0.91581 -1.33491,1.45909 -0.85372,0.52775 -2.04893,0.52775 z m 0,-1.0555 q 0.86924,0 1.45909,-0.40358 0.60536,-0.40358 0.91581,-1.07103 0.31044,-0.68298 0.31044,-1.47461 0,-0.80716 -0.31044,-1.47461 -0.31045,-0.66746 -0.91581,-1.07103 -0.58985,-0.40358 -1.45909,-0.40358 -0.85372,0 -1.45909,0.40358 -0.60536,0.40357 -0.91581,1.07103 -0.31044,0.66745 -0.31044,1.47461 0,0.79163 0.31044,1.47461 0.31045,0.66745 0.91581,1.07103 0.60537,0.40358 1.45909,0.40358 z m 5.38619,0.93133 v -7.7611 h 1.16417 v 1.17968 q 0.26387,-0.46566 0.83819,-0.88476 0.57433,-0.4191 1.52118,-0.4191 0.77611,0 1.42804,0.4191 0.66746,0.40358 1.03999,1.14864 0.15522,-0.26388 0.48119,-0.63641 0.34149,-0.37253 0.88476,-0.65193 0.54328,-0.2794 1.30387,-0.2794 0.74506,0 1.397,0.38805 0.65193,0.38806 1.05551,1.1176 0.4191,0.71402 0.4191,1.69192 v 4.68771 h -1.16417 v -4.65666 q 0,-0.9779 -0.5588,-1.56774 -0.54328,-0.60537 -1.36595,-0.60537 -0.85372,0 -1.47461,0.57432 -0.62089,0.57432 -0.62089,1.61431 v 4.64114 h -1.16416 v -4.65666 q 0,-0.9779 -0.5588,-1.56774 -0.54328,-0.60537 -1.36596,-0.60537 -0.85372,0 -1.47461,0.57432 -0.62088,0.57432 -0.62088,1.61431 v 4.64114 z m 13.47327,0 v -7.7611 h 1.16416 v 1.17968 q 0.26388,-0.46566 0.8382,-0.88476 0.57432,-0.4191 1.52118,-0.4191 0.77611,0 1.42804,0.4191 0.66745,0.40358 1.03999,1.14864 0.15522,-0.26388 0.48119,-0.63641 0.34148,-0.37253 0.88476,-0.65193 0.54328,-0.2794 1.30387,-0.2794 0.74506,0 1.39699,0.38805 0.65194,0.38806 1.05551,1.1176 0.4191,0.71402 0.4191,1.69192 v 4.68771 h -1.16416 v -4.65666 q 0,-0.9779 -0.5588,-1.56774 -0.54328,-0.60537 -1.36596,-0.60537 -0.85372,0 -1.4746,0.57432 -0.62089,0.57432 -0.62089,1.61431 v 4.64114 h -1.16417 v -4.65666 q 0,-0.9779 -0.5588,-1.56774 -0.54327,-0.60537 -1.36595,-0.60537 -0.85372,0 -1.47461,0.57432 -0.62089,0.57432 -0.62089,1.61431 v 4.64114 z m 16.74846,0.12417 q -1.13312,0 -1.98685,-0.52775 -0.83819,-0.54328 -1.30386,-1.45909 -0.46567,-0.91581 -0.46567,-2.01788 0,-1.1176 0.46567,-2.01789 0.46567,-0.91581 1.30386,-1.44356 0.85373,-0.54328 1.98685,-0.54328 0.96237,0 1.64535,0.37253 0.6985,0.37254 1.13312,1.00895 v -1.2573 h 1.16416 v 7.7611 h -1.16416 v -1.24178 q -0.43462,0.62089 -1.13312,0.99342 -0.68298,0.37253 -1.64535,0.37253 z m 0.15522,-1.0555 q 0.86924,0 1.45908,-0.40358 0.60537,-0.40358 0.91581,-1.07103 0.31045,-0.68298 0.31045,-1.47461 0,-0.80716 -0.31045,-1.47461 -0.31044,-0.66746 -0.91581,-1.07103 -0.58984,-0.40358 -1.45908,-0.40358 -0.85372,0 -1.47461,0.40358 -0.62089,0.40357 -0.94685,1.07103 -0.32597,0.66745 -0.32597,1.47461 0,0.79163 0.32597,1.47461 0.32596,0.66745 0.94685,1.07103 0.62089,0.40358 1.47461,0.40358 z m 5.80529,0.93133 v -7.7611 h 1.16416 v 1.21073 q 0.4191,-0.5588 1.02447,-0.94686 0.60536,-0.38805 1.55222,-0.38805 0.80715,0 1.50565,0.38805 0.71402,0.37254 1.14864,1.13313 0.45015,0.74506 0.45015,1.84714 v 4.51696 h -1.16417 v -4.48592 q 0,-1.05551 -0.60536,-1.69192 -0.60537,-0.65193 -1.56775,-0.65193 -0.65193,0 -1.17968,0.29492 -0.52776,0.29492 -0.85372,0.8382 -0.31045,0.52775 -0.31045,1.22625 v 4.4704 z m 12.06074,0.12417 q -1.13312,0 -1.98684,-0.52775 -0.8382,-0.54328 -1.30386,-1.45909 -0.46567,-0.91581 -0.46567,-2.01788 0,-1.1176 0.46567,-2.01789 0.46566,-0.91581 1.30386,-1.44356 0.85372,-0.54328 1.98684,-0.54328 0.96238,0 1.64535,0.37253 0.6985,0.37254 1.13313,1.00895 v -4.36174 h 1.16416 v 10.86554 h -1.16416 v -1.24178 q -0.43463,0.62089 -1.13313,0.99342 -0.68297,0.37253 -1.64535,0.37253 z m 0.15522,-1.0555 q 0.86925,0 1.45909,-0.40358 0.60537,-0.40358 0.91581,-1.07103 0.31044,-0.68298 0.31044,-1.47461 0,-0.80716 -0.31044,-1.47461 -0.31044,-0.66746 -0.91581,-1.07103 -0.58984,-0.40358 -1.45909,-0.40358 -0.85372,0 -1.47461,0.40358 -0.62088,0.40357 -0.94685,1.07103 -0.32597,0.66745 -0.32597,1.47461 0,0.79163 0.32597,1.47461 0.32597,0.66745 0.94685,1.07103 0.62089,0.40358 1.47461,0.40358 z m 5.8053,0.93133 v -7.7611 h 1.16417 v 1.17968 q 0.26387,-0.46566 0.83819,-0.88476 0.57433,-0.4191 1.52118,-0.4191 0.77611,0 1.42804,0.4191 0.66746,0.40358 1.03999,1.14864 0.15522,-0.26388 0.48119,-0.63641 0.34149,-0.37253 0.88476,-0.65193 0.54328,-0.2794 1.30387,-0.2794 0.74506,0 1.397,0.38805 0.65193,0.38806 1.0555,1.1176 0.4191,0.71402 0.4191,1.69192 v 4.68771 h -1.16416 v -4.65666 q 0,-0.9779 -0.5588,-1.56774 -0.54328,-0.60537 -1.36595,-0.60537 -0.85372,0 -1.47461,0.57432 -0.62089,0.57432 -0.62089,1.61431 v 4.64114 h -1.16417 v -4.65666 q 0,-0.9779 -0.55879,-1.56774 -0.54328,-0.60537 -1.36596,-0.60537 -0.85372,0 -1.47461,0.57432 -0.62088,0.57432 -0.62088,1.61431 v 4.64114 z m 16.91919,0.12417 q -1.17968,0 -2.06445,-0.52775 -0.88476,-0.54328 -1.38147,-1.45909 -0.48119,-0.91581 -0.48119,-2.01788 0,-1.1176 0.46566,-2.01789 0.46567,-0.91581 1.33491,-1.44356 0.86925,-0.54328 2.04893,-0.54328 1.19521,0 2.04893,0.54328 0.86925,0.52775 1.33491,1.44356 0.46567,0.90029 0.46567,2.01789 v 0.46566 h -6.5038 q 0.0931,0.68298 0.43462,1.2573 0.35701,0.5588 0.94685,0.90029 0.58985,0.32597 1.36596,0.32597 0.82267,0 1.38147,-0.35702 0.5588,-0.37253 0.86925,-0.94685 h 1.27282 q -0.40358,1.03999 -1.28835,1.70744 -0.86924,0.65193 -2.25072,0.65193 z m -2.71638,-4.62561 h 5.27755 q -0.15522,-0.99342 -0.8382,-1.66088 -0.68298,-0.66745 -1.80058,-0.66745 -1.11759,0 -1.80057,0.66745 -0.66746,0.66746 -0.8382,1.66088 z m 7.91632,4.50144 v -7.7611 h 1.16416 v 1.21073 q 0.4191,-0.5588 1.02447,-0.94686 0.60536,-0.38805 1.55222,-0.38805 0.80715,0 1.50565,0.38805 0.71402,0.37254 1.14864,1.13313 0.45015,0.74506 0.45015,1.84714 v 4.51696 h -1.16417 v -4.48592 q 0,-1.05551 -0.60537,-1.69192 -0.60536,-0.65193 -1.56774,-0.65193 -0.65193,0 -1.17968,0.29492 -0.52776,0.29492 -0.85373,0.8382 -0.31044,0.52775 -0.31044,1.22625 v 4.4704 z m 9.4375,0 v -6.73664 h -1.58327 v -1.02446 h 1.58327 v -2.77848 h 1.16416 v 2.77848 h 1.78506 v 1.02446 h -1.78506 v 6.73664 z"
       id="text1"
       style="font-size:15.5222px;line-height:1;font-family:Questrial;-inkscape-font-specification:'Questrial, Normal';text-align:center;text-anchor:middle;display:inline;fill:#ff0000;stroke-width:0.1;stroke-linecap:round;stroke-linejoin:round"
       inkscape:label="front"
       aria-label="The Great Commandment" />
  </g>
  <g
     inkscape:groupmode="layer"
     id="layer2"
     inkscape:label="inner"
     style="display:none">
    <g
       id="text1-20-9"
       style="font-size:15.5222px;line-height:2;font-family:Questrial;-inkscape-font-specification:'Questrial, Normal';text-align:center;text-anchor:middle;display:inline;fill:#ff00ff;stroke-width:0.1;stroke-linecap:round;stroke-linejoin:round"
       inkscape:label="right"
       aria-label="LOVE&#10;YOUR NEIGHBOR&#10;AS YOURSELF"
       transform="translate(210.10488,-9.8963962)">
      <path
         d="m 88.572301,145.77988 v -10.2757 h 1.164165 v 9.1581 h 5.603514 v 1.1176 z m 12.386739,0.12417 q -1.164164,0 -2.12654,-0.40357 -0.962377,-0.40358 -1.660876,-1.13312 -0.682977,-0.72955 -1.055509,-1.6764 -0.372533,-0.96238 -0.372533,-2.04893 0,-1.10208 0.372533,-2.04893 0.372532,-0.94686 1.055509,-1.6764 0.698499,-0.72954 1.660876,-1.13312 0.962376,-0.40358 2.12654,-0.40358 1.16417,0 2.12654,0.40358 0.96238,0.40358 1.64536,1.13312 0.69849,0.72954 1.07103,1.6764 0.37253,0.94685 0.37253,2.04893 0,1.08655 -0.37253,2.04893 -0.37254,0.94685 -1.07103,1.6764 -0.68298,0.72954 -1.64536,1.13312 -0.96237,0.40357 -2.12654,0.40357 z m 0,-1.13312 q 1.2573,0 2.15759,-0.54327 0.91581,-0.5588 1.39699,-1.49013 0.49672,-0.94686 0.49672,-2.0955 0,-1.16417 -0.49672,-2.0955 -0.48118,-0.93133 -1.39699,-1.47461 -0.90029,-0.5588 -2.15759,-0.5588 -1.241775,0 -2.157585,0.5588 -0.91581,0.54328 -1.41252,1.47461 -0.481188,0.93133 -0.481188,2.0955 0,1.14864 0.481188,2.0955 0.49671,0.93133 1.41252,1.49013 0.91581,0.54327 2.157585,0.54327 z m 9.84109,1.00895 -4.15995,-10.2757 h 1.27282 l 3.55458,8.95631 3.55459,-8.95631 h 1.27282 l -4.15995,10.2757 z m 6.79873,0 v -10.2757 h 7.55931 v 1.1176 h -6.39515 v 3.44593 h 5.71217 v 1.13312 h -5.71217 v 3.46145 h 6.39515 v 1.1176 z"
         id="path31" />
      <path
         d="m 48.664742,176.82428 v -4.06682 l -4.315172,-6.20888 h 1.41252 l 3.476973,4.99815 3.476973,-4.99815 h 1.41252 l -4.299649,6.20888 v 4.06682 z m 10.772412,0.12417 q -1.164165,0 -2.126541,-0.40357 -0.962376,-0.40358 -1.660875,-1.13312 -0.682977,-0.72955 -1.05551,-1.6764 -0.372533,-0.96238 -0.372533,-2.04893 0,-1.10208 0.372533,-2.04893 0.372533,-0.94686 1.05551,-1.6764 0.698499,-0.72954 1.660875,-1.13312 0.962376,-0.40358 2.126541,-0.40358 1.164165,0 2.126542,0.40358 0.962376,0.40358 1.645353,1.13312 0.698499,0.72954 1.071032,1.6764 0.372532,0.94685 0.372532,2.04893 0,1.08655 -0.372532,2.04893 -0.372533,0.94685 -1.071032,1.6764 -0.682977,0.72954 -1.645353,1.13312 -0.962377,0.40357 -2.126542,0.40357 z m 0,-1.13312 q 1.257298,0 2.157586,-0.54327 0.91581,-0.5588 1.396998,-1.49014 0.49671,-0.94685 0.49671,-2.09549 0,-1.16417 -0.49671,-2.0955 -0.481188,-0.93133 -1.396998,-1.47461 -0.900288,-0.5588 -2.157586,-0.5588 -1.241776,0 -2.157585,0.5588 -0.91581,0.54328 -1.412521,1.47461 -0.481188,0.93133 -0.481188,2.0955 0,1.14864 0.481188,2.09549 0.496711,0.93134 1.412521,1.49014 0.915809,0.54327 2.157585,0.54327 z m 11.315683,1.13312 q -1.27282,0 -2.266241,-0.5588 -0.977898,-0.57432 -1.536698,-1.59878 -0.558799,-1.02447 -0.558799,-2.39042 v -5.85187 h 1.164165 v 5.88291 q 0,1.19521 0.450144,1.94028 0.465666,0.74506 1.195209,1.10207 0.745066,0.34149 1.55222,0.34149 0.822677,0 1.55222,-0.34149 0.729544,-0.35701 1.19521,-1.10207 0.465666,-0.74507 0.465666,-1.94028 v -5.88291 h 1.164165 v 5.85187 q 0,1.35043 -0.5588,2.3749 -0.558799,1.02446 -1.55222,1.59878 -0.977898,0.57432 -2.266241,0.57432 z m 6.767674,-0.12417 v -10.2757 h 4.920537 q 1.583264,0 2.514596,0.86924 0.946854,0.86925 0.946854,2.34386 0,0.99342 -0.388055,1.58326 -0.372532,0.58984 -0.946854,0.90029 -0.574321,0.29492 -1.148643,0.43462 l 2.700863,4.14443 h -1.381476 l -2.483552,-3.94264 h -3.570105 v 3.94264 z m 1.164165,-5.04472 h 3.554583 q 0.558799,0 1.133121,-0.17074 0.574321,-0.17075 0.962376,-0.60537 0.403577,-0.45014 0.403577,-1.24177 0,-0.9779 -0.667454,-1.5367 -0.667455,-0.57432 -1.769531,-0.57432 h -3.616672 z m 12.526413,5.04472 v -10.2757 h 1.350431 l 6.34858,8.64587 v -8.64587 h 1.16417 v 10.2757 h -1.350436 l -6.34858,-8.67691 v 8.67691 z m 11.377771,0 v -10.2757 h 7.55931 v 1.1176 h -6.39515 v 3.44593 h 5.71217 v 1.13312 h -5.71217 v 3.46145 h 6.39515 v 1.1176 z m 9.43749,0 v -10.2757 h 1.16417 v 10.2757 z m 8.05602,0.12417 q -1.56774,0 -2.70086,-0.6985 -1.1176,-0.71402 -1.72297,-1.90923 -0.60536,-1.19521 -0.60536,-2.65429 0,-1.45909 0.62088,-2.6543 0.62089,-1.19521 1.75401,-1.89371 1.14864,-0.71402 2.68534,-0.71402 1.66088,0 2.87161,0.82268 1.22625,0.80715 1.80057,2.0955 h -1.27282 q -0.46566,-0.82268 -1.30386,-1.30387 -0.82268,-0.48119 -2.00236,-0.48119 -1.24178,0 -2.14207,0.5588 -0.90029,0.54328 -1.38147,1.47461 -0.46567,0.93133 -0.46567,2.0955 0,1.14864 0.46567,2.09549 0.46566,0.93134 1.35043,1.49014 0.90029,0.54327 2.14206,0.54327 0.93133,0 1.75401,-0.40357 0.8382,-0.40358 1.35043,-1.16417 0.52776,-0.76059 0.52776,-1.83162 h -3.75638 v -1.05551 h 4.82741 v 5.46382 h -1.07103 v -1.8161 q -0.32597,0.49671 -0.8382,0.94685 -0.51224,0.43462 -1.24178,0.71402 -0.71402,0.2794 -1.64535,0.2794 z m 6.84528,-0.12417 v -10.2757 h 1.16416 v 4.56353 h 5.97605 v -4.56353 h 1.16417 v 10.2757 h -1.16417 v -4.57905 h -5.97605 v 4.57905 z m 10.81898,0 v -10.2757 h 4.6101 q 1.21073,0 1.90923,0.4191 0.71402,0.4191 1.02446,1.05551 0.31045,0.62089 0.31045,1.24177 0,0.99343 -0.4191,1.5367 -0.4191,0.52776 -0.96238,0.77611 0.43462,0.1397 0.86924,0.45015 0.45015,0.29492 0.74507,0.80715 0.29492,0.51223 0.29492,1.28834 0,1.14865 -0.88476,1.92476 -0.86925,0.77611 -2.62325,0.77611 z m 1.16417,-5.68113 h 3.44593 q 0.54327,0 1.00894,-0.18627 0.48119,-0.18626 0.77611,-0.57432 0.29492,-0.40357 0.29492,-1.02446 0,-0.43462 -0.20179,-0.82268 -0.18626,-0.38805 -0.62088,-0.63641 -0.4191,-0.24835 -1.13312,-0.24835 h -3.57011 z m 0,4.57905 h 3.83398 q 1.05551,0 1.62983,-0.43462 0.58985,-0.45015 0.58985,-1.2573 0,-0.72954 -0.5588,-1.27282 -0.5588,-0.5588 -1.78505,-0.5588 h -3.70981 z m 13.67506,1.22625 q -1.16416,0 -2.12654,-0.40357 -0.96237,-0.40358 -1.66087,-1.13312 -0.68298,-0.72955 -1.05551,-1.6764 -0.37253,-0.96238 -0.37253,-2.04893 0,-1.10208 0.37253,-2.04893 0.37253,-0.94686 1.05551,-1.6764 0.6985,-0.72954 1.66087,-1.13312 0.96238,-0.40358 2.12654,-0.40358 1.16417,0 2.12655,0.40358 0.96237,0.40358 1.64535,1.13312 0.6985,0.72954 1.07103,1.6764 0.37253,0.94685 0.37253,2.04893 0,1.08655 -0.37253,2.04893 -0.37253,0.94685 -1.07103,1.6764 -0.68298,0.72954 -1.64535,1.13312 -0.96238,0.40357 -2.12655,0.40357 z m 0,-1.13312 q 1.2573,0 2.15759,-0.54327 0.91581,-0.5588 1.397,-1.49014 0.49671,-0.94685 0.49671,-2.09549 0,-1.16417 -0.49671,-2.0955 -0.48119,-0.93133 -1.397,-1.47461 -0.90029,-0.5588 -2.15759,-0.5588 -1.24177,0 -2.15758,0.5588 -0.91581,0.54328 -1.41252,1.47461 -0.48119,0.93133 -0.48119,2.0955 0,1.14864 0.48119,2.09549 0.49671,0.93134 1.41252,1.49014 0.91581,0.54327 2.15758,0.54327 z m 7.07813,1.00895 v -10.2757 h 4.92053 q 1.58327,0 2.5146,0.86924 0.94685,0.86925 0.94685,2.34386 0,0.99342 -0.38805,1.58326 -0.37253,0.58984 -0.94686,0.90029 -0.57432,0.29492 -1.14864,0.43462 l 2.70086,4.14443 h -1.38147 l -2.48355,-3.94264 h -3.57011 v 3.94264 z m 1.16416,-5.04472 h 3.55458 q 0.5588,0 1.13312,-0.17074 0.57433,-0.17075 0.96238,-0.60537 0.40358,-0.45014 0.40358,-1.24177 0,-0.9779 -0.66746,-1.5367 -0.66745,-0.57432 -1.76953,-0.57432 h -3.61667 z"
         id="path32" />
      <path
         d="m 55.704054,207.86868 4.361738,-10.2757 h 1.459087 l 4.361738,10.2757 h -1.288343 l -1.257298,-2.98027 h -5.091281 l -1.257298,2.98027 z m 2.995785,-4.0513 h 4.190993 l -2.095496,-5.01367 z m 12.169414,4.17547 q -1.521175,0 -2.46803,-0.40357 -0.946854,-0.4191 -1.428042,-1.14865 -0.465666,-0.72954 -0.543277,-1.64535 h 1.210732 q 0.04657,0.74507 0.49671,1.21073 0.450144,0.45015 1.179687,0.66746 0.745066,0.21731 1.629831,0.21731 1.303865,0 2.064453,-0.45015 0.760588,-0.46566 0.760588,-1.36595 0,-0.54328 -0.388055,-0.86924 -0.372533,-0.34149 -1.008943,-0.5588 -0.620888,-0.21731 -1.365954,-0.38806 -0.745066,-0.18626 -1.505653,-0.38805 -0.745066,-0.20179 -1.381476,-0.51224 -0.620888,-0.31044 -1.008943,-0.79163 -0.372533,-0.49671 -0.372533,-1.2573 0,-1.25729 0.962377,-2.04893 0.977898,-0.79163 2.902651,-0.79163 1.365953,0 2.250719,0.4191 0.884765,0.40358 1.319387,1.07103 0.450144,0.66746 0.49671,1.44357 h -1.195209 q -0.09313,-0.77611 -0.77611,-1.30387 -0.682977,-0.54327 -2.095497,-0.54327 -0.869243,0 -1.41252,0.17074 -0.543277,0.17074 -0.838199,0.45014 -0.2794,0.26388 -0.388055,0.5588 -0.09313,0.29492 -0.09313,0.5588 0,0.51223 0.372532,0.8382 0.388055,0.31044 1.008943,0.52776 0.636411,0.20178 1.396998,0.37253 0.760588,0.17074 1.505654,0.38805 0.760588,0.20179 1.381476,0.52776 0.63641,0.31044 1.008943,0.80715 0.388055,0.49671 0.388055,1.27282 0,1.42805 -1.086554,2.20416 -1.086554,0.76058 -2.980263,0.76058 z M 83.1473,207.86868 v -4.06682 l -4.315171,-6.20888 h 1.41252 l 3.476973,4.99815 3.476972,-4.99815 h 1.41252 l -4.299649,6.20888 v 4.06682 z m 10.772411,0.12417 q -1.164165,0 -2.126541,-0.40357 -0.962377,-0.40358 -1.660876,-1.13312 -0.682977,-0.72955 -1.055509,-1.6764 -0.372533,-0.96238 -0.372533,-2.04893 0,-1.10208 0.372533,-2.04893 0.372532,-0.94686 1.055509,-1.6764 0.698499,-0.72954 1.660876,-1.13312 0.962376,-0.40358 2.126541,-0.40358 1.164165,0 2.126541,0.40358 0.962377,0.40358 1.645353,1.13312 0.698499,0.72954 1.071032,1.6764 0.372533,0.94685 0.372533,2.04893 0,1.08655 -0.372533,2.04893 -0.372533,0.94685 -1.071032,1.6764 -0.682976,0.72954 -1.645353,1.13312 -0.962376,0.40357 -2.126541,0.40357 z m 0,-1.13312 q 1.257298,0 2.157586,-0.54327 0.915809,-0.5588 1.396998,-1.49014 0.49671,-0.94685 0.49671,-2.09549 0,-1.16417 -0.49671,-2.0955 -0.481189,-0.93133 -1.396998,-1.47461 -0.900288,-0.5588 -2.157586,-0.5588 -1.241776,0 -2.157586,0.5588 -0.91581,0.54328 -1.41252,1.47461 -0.481188,0.93133 -0.481188,2.0955 0,1.14864 0.481188,2.09549 0.49671,0.93134 1.41252,1.49014 0.91581,0.54327 2.157586,0.54327 z m 11.315689,1.13312 q -1.27282,0 -2.26625,-0.5588 -0.97789,-0.57432 -1.53669,-1.59878 -0.5588,-1.02447 -0.5588,-2.39042 v -5.85187 h 1.16416 v 5.88291 q 0,1.19521 0.45015,1.94028 0.46566,0.74506 1.19521,1.10207 0.74506,0.34149 1.55222,0.34149 0.82267,0 1.55222,-0.34149 0.72954,-0.35701 1.19521,-1.10207 0.46566,-0.74507 0.46566,-1.94028 v -5.88291 h 1.16417 v 5.85187 q 0,1.35043 -0.5588,2.37489 -0.5588,1.02447 -1.55222,1.59879 -0.9779,0.57432 -2.26624,0.57432 z m 6.76767,-0.12417 v -10.2757 h 4.92054 q 1.58326,0 2.51459,0.86924 0.94686,0.86925 0.94686,2.34385 0,0.99343 -0.38806,1.58327 -0.37253,0.58984 -0.94685,0.90029 -0.57432,0.29492 -1.14864,0.43462 l 2.70086,4.14443 h -1.38148 l -2.48355,-3.94264 h -3.57011 v 3.94264 z m 1.16416,-5.04472 h 3.55459 q 0.5588,0 1.13312,-0.17074 0.57432,-0.17075 0.96237,-0.60537 0.40358,-0.45014 0.40358,-1.24178 0,-0.97789 -0.66745,-1.53669 -0.66746,-0.57432 -1.76953,-0.57432 h -3.61668 z m 12.89896,5.16889 q -1.52118,0 -2.46803,-0.40357 -0.94686,-0.4191 -1.42804,-1.14865 -0.46567,-0.72954 -0.54328,-1.64535 h 1.21073 q 0.0466,0.74507 0.49671,1.21073 0.45014,0.45015 1.17969,0.66746 0.74506,0.21731 1.62983,0.21731 1.30386,0 2.06445,-0.45015 0.76059,-0.46566 0.76059,-1.36595 0,-0.54328 -0.38806,-0.86924 -0.37253,-0.34149 -1.00894,-0.5588 -0.62089,-0.21731 -1.36595,-0.38806 -0.74507,-0.18626 -1.50566,-0.38805 -0.74506,-0.20179 -1.38147,-0.51224 -0.62089,-0.31044 -1.00894,-0.79163 -0.37254,-0.49671 -0.37254,-1.2573 0,-1.25729 0.96238,-2.04893 0.9779,-0.79163 2.90265,-0.79163 1.36595,0 2.25072,0.4191 0.88476,0.40358 1.31939,1.07103 0.45014,0.66746 0.49671,1.44357 h -1.19521 q -0.0931,-0.77611 -0.77611,-1.30387 -0.68298,-0.54327 -2.0955,-0.54327 -0.86924,0 -1.41252,0.17074 -0.54328,0.17074 -0.8382,0.45014 -0.2794,0.26388 -0.38805,0.5588 -0.0931,0.29492 -0.0931,0.5588 0,0.51223 0.37254,0.8382 0.38805,0.31044 1.00894,0.52776 0.63641,0.20178 1.397,0.37253 0.76058,0.17074 1.50565,0.38805 0.76059,0.20179 1.38148,0.52776 0.63641,0.31044 1.00894,0.80715 0.38805,0.49671 0.38805,1.27282 0,1.42805 -1.08655,2.20416 -1.08655,0.76058 -2.98026,0.76058 z m 5.86739,-0.12417 v -10.2757 h 7.55931 v 1.1176 h -6.39515 v 3.44593 h 5.71217 v 1.13312 h -5.71217 v 3.46145 h 6.39515 v 1.1176 z m 9.4375,0 v -10.2757 h 1.16416 v 9.1581 h 5.60352 v 1.1176 z m 8.27334,0 v -10.2757 h 7.41961 v 1.1176 h -6.25544 v 3.5701 h 5.57247 v 1.13312 h -5.57247 v 4.45488 z"
         id="path33" />
    </g>
    <g
       id="text1-20"
       style="font-size:15.5222px;line-height:2;font-family:Questrial;-inkscape-font-specification:'Questrial, Normal';text-align:center;text-anchor:middle;fill:#00ff00;stroke-width:0.1;stroke-linecap:round;stroke-linejoin:round"
       inkscape:label="left"
       aria-label="LOVE&#10;THE LORD YOUR GOD&#10;WITH ALL YOUR MIND&#10;AND ALL YOUR HEART&#10;AND ALL YOUR STRENGTH"
       transform="translate(9.0822629,-9.8963962)">
      <path
         d="m 89.509762,114.15521 v -10.27569 h 1.164165 v 9.15809 h 5.603515 v 1.1176 z m 12.386738,0.12418 q -1.16416,0 -2.126539,-0.40358 -0.962376,-0.40357 -1.660875,-1.13312 -0.682977,-0.72954 -1.05551,-1.6764 -0.372532,-0.96237 -0.372532,-2.04893 0,-1.10207 0.372532,-2.04893 0.372533,-0.94685 1.05551,-1.67639 0.698499,-0.72955 1.660875,-1.13312 0.962379,-0.40358 2.126539,-0.40358 1.16417,0 2.12654,0.40358 0.96238,0.40357 1.64536,1.13312 0.6985,0.72954 1.07103,1.67639 0.37253,0.94686 0.37253,2.04893 0,1.08656 -0.37253,2.04893 -0.37253,0.94686 -1.07103,1.6764 -0.68298,0.72955 -1.64536,1.13312 -0.96237,0.40358 -2.12654,0.40358 z m 0,-1.13312 q 1.2573,0 2.15759,-0.54328 0.91581,-0.5588 1.397,-1.49013 0.49671,-0.94685 0.49671,-2.0955 0,-1.16416 -0.49671,-2.09549 -0.48119,-0.93133 -1.397,-1.47461 -0.90029,-0.5588 -2.15759,-0.5588 -1.24177,0 -2.157583,0.5588 -0.91581,0.54328 -1.41252,1.47461 -0.481188,0.93133 -0.481188,2.09549 0,1.14865 0.481188,2.0955 0.49671,0.93133 1.41252,1.49013 0.915813,0.54328 2.157583,0.54328 z m 9.84109,1.00894 -4.15995,-10.27569 h 1.27282 l 3.55459,8.95631 3.55458,-8.95631 h 1.27282 l -4.15995,10.27569 z m 6.79873,0 v -10.27569 h 7.55931 v 1.11759 h -6.39515 v 3.44593 h 5.71217 v 1.13312 h -5.71217 v 3.46145 h 6.39515 v 1.1176 z"
         id="path26" />
      <path
         d="m 33.373751,145.19961 v -9.17362 h -3.585628 v -1.10207 h 8.335421 v 1.10207 h -3.585628 v 9.17362 z m 6.22441,0 v -10.27569 h 1.164165 v 4.56352 h 5.976047 v -4.56352 h 1.164165 v 10.27569 h -1.164165 v -4.57905 h -5.976047 v 4.57905 z m 10.81898,0 v -10.27569 h 7.559311 v 1.11759 h -6.395146 v 3.44593 h 5.71217 v 1.13312 h -5.71217 v 3.46145 h 6.395146 v 1.1176 z m 12.743714,0 v -10.27569 h 1.164165 v 9.15809 h 5.603514 v 1.1176 z m 12.386742,0.12418 q -1.164165,0 -2.126542,-0.40358 -0.962376,-0.40358 -1.660875,-1.13312 -0.682977,-0.72954 -1.05551,-1.6764 -0.372532,-0.96237 -0.372532,-2.04893 0,-1.10207 0.372532,-2.04893 0.372533,-0.94685 1.05551,-1.67639 0.698499,-0.72955 1.660875,-1.13312 0.962377,-0.40358 2.126542,-0.40358 1.164165,0 2.126541,0.40358 0.962376,0.40357 1.645353,1.13312 0.698499,0.72954 1.071032,1.67639 0.372533,0.94686 0.372533,2.04893 0,1.08656 -0.372533,2.04893 -0.372533,0.94686 -1.071032,1.6764 -0.682977,0.72954 -1.645353,1.13312 -0.962376,0.40358 -2.126541,0.40358 z m 0,-1.13312 q 1.257298,0 2.157586,-0.54328 0.915809,-0.5588 1.396997,-1.49013 0.496711,-0.94685 0.496711,-2.0955 0,-1.16416 -0.496711,-2.09549 -0.481188,-0.93134 -1.396997,-1.47461 -0.900288,-0.5588 -2.157586,-0.5588 -1.241776,0 -2.157586,0.5588 -0.91581,0.54327 -1.41252,1.47461 -0.481188,0.93133 -0.481188,2.09549 0,1.14865 0.481188,2.0955 0.49671,0.93133 1.41252,1.49013 0.91581,0.54328 2.157586,0.54328 z m 7.07812,1.00894 v -10.27569 h 4.920538 q 1.583264,0 2.514596,0.86924 0.946854,0.86924 0.946854,2.34385 0,0.99342 -0.388055,1.58327 -0.372533,0.58984 -0.946854,0.90028 -0.574321,0.29492 -1.148643,0.43462 l 2.700863,4.14443 H 89.84354 l -2.483552,-3.94264 h -3.570106 v 3.94264 z m 1.164165,-5.04471 h 3.554584 q 0.558799,0 1.133121,-0.17075 0.574321,-0.17074 0.962376,-0.60536 0.403577,-0.45015 0.403577,-1.24178 0,-0.9779 -0.667454,-1.5367 -0.667455,-0.57432 -1.769531,-0.57432 h -3.616673 z m 9.220197,5.04471 v -10.27569 h 4.330693 q 0.91581,0 1.754009,0.35701 0.853721,0.34148 1.521179,1.00894 0.66745,0.66745 1.05551,1.61431 0.38805,0.94685 0.38805,2.15758 0,1.21074 -0.38805,2.15759 -0.38806,0.94685 -1.05551,1.61431 -0.667458,0.66745 -1.521179,1.02446 -0.838199,0.34149 -1.754009,0.34149 z m 1.164165,-1.10207 h 3.119962 q 1.102076,0 1.90923,-0.5588 0.807154,-0.5588 1.241774,-1.47461 0.45015,-0.91581 0.45015,-2.00237 0,-1.10207 -0.45015,-2.01788 -0.43462,-0.91581 -1.241774,-1.45909 -0.807154,-0.5588 -1.90923,-0.5588 h -3.119962 z m 16.158586,1.10207 v -4.06681 l -4.31518,-6.20888 h 1.41252 l 3.47698,4.99814 3.47697,-4.99814 h 1.41252 l -4.29965,6.20888 v 4.06681 z m 10.77241,0.12418 q -1.16416,0 -2.12654,-0.40358 -0.96237,-0.40358 -1.66087,-1.13312 -0.68298,-0.72954 -1.05551,-1.6764 -0.37253,-0.96237 -0.37253,-2.04893 0,-1.10207 0.37253,-2.04893 0.37253,-0.94685 1.05551,-1.67639 0.6985,-0.72955 1.66087,-1.13312 0.96238,-0.40358 2.12654,-0.40358 1.16417,0 2.12655,0.40358 0.96237,0.40357 1.64535,1.13312 0.6985,0.72954 1.07103,1.67639 0.37253,0.94686 0.37253,2.04893 0,1.08656 -0.37253,2.04893 -0.37253,0.94686 -1.07103,1.6764 -0.68298,0.72954 -1.64535,1.13312 -0.96238,0.40358 -2.12655,0.40358 z m 0,-1.13312 q 1.2573,0 2.15759,-0.54328 0.91581,-0.5588 1.397,-1.49013 0.49671,-0.94685 0.49671,-2.0955 0,-1.16416 -0.49671,-2.09549 -0.48119,-0.93134 -1.397,-1.47461 -0.90029,-0.5588 -2.15759,-0.5588 -1.24177,0 -2.15758,0.5588 -0.91581,0.54327 -1.41252,1.47461 -0.48119,0.93133 -0.48119,2.09549 0,1.14865 0.48119,2.0955 0.49671,0.93133 1.41252,1.49013 0.91581,0.54328 2.15758,0.54328 z m 11.31569,1.13312 q -1.27282,0 -2.26625,-0.5588 -0.97789,-0.57432 -1.53669,-1.59879 -0.5588,-1.02446 -0.5588,-2.39042 v -5.85186 h 1.16416 v 5.88291 q 0,1.19521 0.45015,1.94027 0.46566,0.74507 1.19521,1.10208 0.74506,0.34149 1.55222,0.34149 0.82267,0 1.55222,-0.34149 0.72954,-0.35701 1.1952,-1.10208 0.46567,-0.74506 0.46567,-1.94027 v -5.88291 h 1.16417 v 5.85186 q 0,1.35044 -0.5588,2.3749 -0.5588,1.02447 -1.55222,1.59879 -0.9779,0.57432 -2.26624,0.57432 z m 6.76767,-0.12418 v -10.27569 h 4.92054 q 1.58326,0 2.51459,0.86924 0.94686,0.86924 0.94686,2.34385 0,0.99342 -0.38806,1.58327 -0.37253,0.58984 -0.94685,0.90028 -0.57432,0.29492 -1.14865,0.43462 l 2.70087,4.14443 h -1.38148 l -2.48355,-3.94264 h -3.57011 v 3.94264 z m 1.16416,-5.04471 h 3.55459 q 0.5588,0 1.13312,-0.17075 0.57432,-0.17074 0.96237,-0.60536 0.40358,-0.45015 0.40358,-1.24178 0,-0.9779 -0.66745,-1.5367 -0.66746,-0.57432 -1.76953,-0.57432 h -3.61668 z m 16.90368,5.16889 q -1.56774,0 -2.70086,-0.6985 -1.1176,-0.71402 -1.72297,-1.90923 -0.60536,-1.19521 -0.60536,-2.6543 0,-1.45908 0.62089,-2.65429 0.62088,-1.19521 1.75401,-1.89371 1.14864,-0.71402 2.68534,-0.71402 1.66087,0 2.8716,0.82267 1.22626,0.80716 1.80058,2.0955 h -1.27282 q -0.46567,-0.82268 -1.30387,-1.30386 -0.82267,-0.48119 -2.00236,-0.48119 -1.24178,0 -2.14206,0.5588 -0.90029,0.54327 -1.38148,1.47461 -0.46567,0.93133 -0.46567,2.09549 0,1.14865 0.46567,2.0955 0.46567,0.93133 1.35043,1.49013 0.90029,0.54328 2.14206,0.54328 0.93134,0 1.75401,-0.40358 0.8382,-0.40358 1.35043,-1.16416 0.52776,-0.76059 0.52776,-1.83162 h -3.75637 v -1.05551 h 4.8274 v 5.46381 h -1.07103 v -1.8161 q -0.32597,0.49671 -0.8382,0.94686 -0.51223,0.43462 -1.24178,0.71402 -0.71402,0.2794 -1.64535,0.2794 z m 11.4088,0 q -1.16416,0 -2.12654,-0.40358 -0.96238,-0.40358 -1.66087,-1.13312 -0.68298,-0.72954 -1.05551,-1.6764 -0.37254,-0.96237 -0.37254,-2.04893 0,-1.10207 0.37254,-2.04893 0.37253,-0.94685 1.05551,-1.67639 0.69849,-0.72955 1.66087,-1.13312 0.96238,-0.40358 2.12654,-0.40358 1.16417,0 2.12654,0.40358 0.96238,0.40357 1.64536,1.13312 0.6985,0.72954 1.07103,1.67639 0.37253,0.94686 0.37253,2.04893 0,1.08656 -0.37253,2.04893 -0.37253,0.94686 -1.07103,1.6764 -0.68298,0.72954 -1.64536,1.13312 -0.96237,0.40358 -2.12654,0.40358 z m 0,-1.13312 q 1.2573,0 2.15759,-0.54328 0.91581,-0.5588 1.397,-1.49013 0.49671,-0.94685 0.49671,-2.0955 0,-1.16416 -0.49671,-2.09549 -0.48119,-0.93134 -1.397,-1.47461 -0.90029,-0.5588 -2.15759,-0.5588 -1.24177,0 -2.15758,0.5588 -0.91581,0.54327 -1.41252,1.47461 -0.48119,0.93133 -0.48119,2.09549 0,1.14865 0.48119,2.0955 0.49671,0.93133 1.41252,1.49013 0.91581,0.54328 2.15758,0.54328 z m 7.07814,1.00894 v -10.27569 h 4.33069 q 0.91581,0 1.75401,0.35701 0.85372,0.34148 1.52118,1.00894 0.66745,0.66745 1.05551,1.61431 0.38805,0.94685 0.38805,2.15758 0,1.21074 -0.38805,2.15759 -0.38806,0.94685 -1.05551,1.61431 -0.66746,0.66745 -1.52118,1.02446 -0.8382,0.34149 -1.75401,0.34149 z m 1.16416,-1.10207 h 3.11997 q 1.10207,0 1.90923,-0.5588 0.80715,-0.5588 1.24177,-1.47461 0.45015,-0.91581 0.45015,-2.00237 0,-1.10207 -0.45015,-2.01788 -0.43462,-0.91581 -1.24177,-1.45909 -0.80716,-0.5588 -1.90923,-0.5588 h -3.11997 z"
         id="path27" />
      <path
         d="m 32.970169,176.24401 -3.197573,-10.2757 h 1.226254 l 2.638774,8.63035 2.762951,-8.63035 h 1.334909 l 2.762952,8.63035 2.638774,-8.63035 h 1.226254 l -3.197574,10.2757 h -1.319387 l -2.778473,-8.63034 -2.778474,8.63034 z m 12.790295,0 v -10.2757 h 1.164165 v 10.2757 z m 6.224394,0 v -9.17362 H 48.39923 v -1.10208 h 8.335421 v 1.10208 h -3.585628 v 9.17362 z m 6.224411,0 v -10.2757 h 1.164165 v 4.56353 h 5.976047 v -4.56353 h 1.164165 v 10.2757 h -1.164165 v -4.57905 h -5.976047 v 4.57905 z m 12.914469,0 4.361738,-10.2757 h 1.459086 l 4.361739,10.2757 h -1.288343 l -1.257298,-2.98026 h -5.091282 l -1.257298,2.98026 z m 2.995784,-4.05129 h 4.190994 l -2.095497,-5.01367 z m 8.490651,4.05129 v -10.2757 h 1.164165 v 9.1581 h 5.603514 v 1.1176 z m 8.273349,0 v -10.2757 h 1.164165 v 9.1581 h 5.603514 v 1.1176 z m 14.684008,0 v -4.06682 l -4.31518,-6.20888 h 1.41252 l 3.47698,4.99815 3.47697,-4.99815 h 1.41252 l -4.29965,6.20888 v 4.06682 z m 10.77241,0.12418 q -1.16417,0 -2.12655,-0.40358 -0.96237,-0.40358 -1.66087,-1.13312 -0.68298,-0.72954 -1.05551,-1.6764 -0.37253,-0.96237 -0.37253,-2.04893 0,-1.10207 0.37253,-2.04893 0.37253,-0.94685 1.05551,-1.6764 0.6985,-0.72954 1.66087,-1.13312 0.96238,-0.40357 2.12655,-0.40357 1.16416,0 2.12654,0.40357 0.96237,0.40358 1.64535,1.13312 0.6985,0.72955 1.07103,1.6764 0.37254,0.94686 0.37254,2.04893 0,1.08656 -0.37254,2.04893 -0.37253,0.94686 -1.07103,1.6764 -0.68298,0.72954 -1.64535,1.13312 -0.96238,0.40358 -2.12654,0.40358 z m 0,-1.13312 q 1.25729,0 2.15758,-0.54328 0.91581,-0.5588 1.397,-1.49013 0.49671,-0.94685 0.49671,-2.0955 0,-1.16416 -0.49671,-2.09549 -0.48119,-0.93134 -1.397,-1.47461 -0.90029,-0.5588 -2.15758,-0.5588 -1.24178,0 -2.15759,0.5588 -0.91581,0.54327 -1.41252,1.47461 -0.48119,0.93133 -0.48119,2.09549 0,1.14865 0.48119,2.0955 0.49671,0.93133 1.41252,1.49013 0.91581,0.54328 2.15759,0.54328 z m 11.31568,1.13312 q -1.27282,0 -2.26624,-0.5588 -0.97789,-0.57432 -1.53669,-1.59879 -0.5588,-1.02446 -0.5588,-2.39042 v -5.85187 h 1.16416 v 5.88292 q 0,1.19521 0.45015,1.94027 0.46566,0.74507 1.19521,1.10208 0.74506,0.34149 1.55221,0.34149 0.82268,0 1.55222,-0.34149 0.72955,-0.35701 1.19521,-1.10208 0.46567,-0.74506 0.46567,-1.94027 v -5.88292 h 1.16417 v 5.85187 q 0,1.35044 -0.5588,2.3749 -0.5588,1.02447 -1.55222,1.59879 -0.9779,0.57432 -2.26625,0.57432 z m 6.76768,-0.12418 v -10.2757 h 4.92054 q 1.58326,0 2.51459,0.86925 0.94686,0.86924 0.94686,2.34385 0,0.99342 -0.38806,1.58326 -0.37253,0.58985 -0.94685,0.90029 -0.57432,0.29492 -1.14865,0.43462 l 2.70087,4.14443 h -1.38148 l -2.48355,-3.94264 h -3.57011 v 3.94264 z m 1.16416,-5.04471 h 3.55459 q 0.5588,0 1.13312,-0.17075 0.57432,-0.17074 0.96237,-0.60536 0.40358,-0.45015 0.40358,-1.24178 0,-0.9779 -0.66745,-1.5367 -0.66746,-0.57432 -1.76953,-0.57432 h -3.61668 z m 12.52641,5.04471 v -10.2757 h 1.35043 l 3.67877,4.87398 3.61667,-4.87398 h 1.35043 v 10.2757 H 156.946 v -8.50616 l -3.80293,4.88949 -3.86503,-4.88949 v 8.50616 z m 12.5109,0 v -10.2757 h 1.16416 v 10.2757 z m 3.67875,0 v -10.2757 h 1.35044 l 6.34858,8.64587 v -8.64587 h 1.16416 v 10.2757 h -1.35043 l -6.34858,-8.67691 v 8.67691 z m 11.37777,0 v -10.2757 h 4.33069 q 0.91581,0 1.75401,0.35702 0.85372,0.34148 1.52117,1.00894 0.66746,0.66745 1.05551,1.61431 0.38806,0.94685 0.38806,2.15758 0,1.21073 -0.38806,2.15759 -0.38805,0.94685 -1.05551,1.61431 -0.66745,0.66745 -1.52117,1.02446 -0.8382,0.34149 -1.75401,0.34149 z m 1.16416,-1.10208 h 3.11996 q 1.10208,0 1.90923,-0.55879 0.80716,-0.5588 1.24178,-1.47461 0.45014,-0.91581 0.45014,-2.00237 0,-1.10207 -0.45014,-2.01788 -0.43462,-0.91581 -1.24178,-1.45909 -0.80715,-0.5588 -1.90923,-0.5588 h -3.11996 z"
         id="path28" />
      <path
         d="m 26.862162,207.28841 4.361738,-10.2757 h 1.459087 l 4.361738,10.2757 h -1.288343 l -1.257298,-2.98026 h -5.091281 l -1.257298,2.98026 z m 2.995784,-4.05129 h 4.190994 l -2.095497,-5.01367 z m 8.490654,4.05129 v -10.2757 h 1.350431 l 6.34858,8.64587 v -8.64587 h 1.164165 v 10.2757 h -1.350432 l -6.348579,-8.67691 v 8.67691 z m 11.37777,0 v -10.2757 h 4.330694 q 0.91581,0 1.754008,0.35701 0.853721,0.34149 1.521176,1.00895 0.667455,0.66745 1.05551,1.61431 0.388055,0.94685 0.388055,2.15758 0,1.21073 -0.388055,2.15759 -0.388055,0.94685 -1.05551,1.61431 -0.667455,0.66745 -1.521176,1.02446 -0.838198,0.34149 -1.754008,0.34149 z m 1.164165,-1.10208 h 3.119962 q 1.102076,0 1.909231,-0.5588 0.807154,-0.55879 1.241776,-1.4746 0.450144,-0.91581 0.450144,-2.00237 0,-1.10207 -0.450144,-2.01788 -0.434622,-0.91581 -1.241776,-1.45909 -0.807155,-0.5588 -1.909231,-0.5588 h -3.119962 z m 11.843415,1.10208 4.361738,-10.2757 h 1.459087 l 4.361738,10.2757 H 71.62817 l -1.257298,-2.98026 h -5.091281 l -1.257298,2.98026 z m 2.995784,-4.05129 h 4.190994 l -2.095497,-5.01367 z m 8.490651,4.05129 v -10.2757 h 1.164165 v 9.1581 h 5.603514 v 1.1176 z m 8.27335,0 v -10.2757 H 83.6579 v 9.1581 h 5.603514 v 1.1176 z m 14.684003,0 v -4.06682 l -4.315172,-6.20888 h 1.41252 l 3.476973,4.99815 3.476971,-4.99815 h 1.41252 l -4.299647,6.20888 v 4.06682 z m 10.772412,0.12418 q -1.16417,0 -2.12654,-0.40358 -0.96238,-0.40358 -1.66088,-1.13312 -0.68297,-0.72954 -1.05551,-1.6764 -0.37253,-0.96237 -0.37253,-2.04893 0,-1.10207 0.37253,-2.04893 0.37254,-0.94685 1.05551,-1.6764 0.6985,-0.72954 1.66088,-1.13312 0.96237,-0.40357 2.12654,-0.40357 1.16416,0 2.12654,0.40357 0.96238,0.40358 1.64535,1.13312 0.6985,0.72955 1.07103,1.6764 0.37254,0.94686 0.37254,2.04893 0,1.08656 -0.37254,2.04893 -0.37253,0.94686 -1.07103,1.6764 -0.68297,0.72954 -1.64535,1.13312 -0.96238,0.40358 -2.12654,0.40358 z m 0,-1.13312 q 1.2573,0 2.15758,-0.54328 0.91581,-0.5588 1.397,-1.49013 0.49671,-0.94686 0.49671,-2.0955 0,-1.16416 -0.49671,-2.09549 -0.48119,-0.93134 -1.397,-1.47461 -0.90028,-0.5588 -2.15758,-0.5588 -1.24178,0 -2.15759,0.5588 -0.91581,0.54327 -1.41252,1.47461 -0.48119,0.93133 -0.48119,2.09549 0,1.14864 0.48119,2.0955 0.49671,0.93133 1.41252,1.49013 0.91581,0.54328 2.15759,0.54328 z m 11.31569,1.13312 q -1.27282,0 -2.26624,-0.5588 -0.9779,-0.57432 -1.5367,-1.59879 -0.5588,-1.02446 -0.5588,-2.39042 v -5.85187 h 1.16416 v 5.88292 q 0,1.19521 0.45015,1.94027 0.46566,0.74507 1.19521,1.10208 0.74506,0.34149 1.55222,0.34149 0.82267,0 1.55222,-0.34149 0.72954,-0.35701 1.19521,-1.10208 0.46566,-0.74506 0.46566,-1.94027 v -5.88292 h 1.16417 v 5.85187 q 0,1.35043 -0.5588,2.3749 -0.5588,1.02447 -1.55222,1.59879 -0.9779,0.57432 -2.26624,0.57432 z m 6.76767,-0.12418 v -10.2757 h 4.92054 q 1.58326,0 2.51459,0.86925 0.94686,0.86924 0.94686,2.34385 0,0.99342 -0.38806,1.58326 -0.37253,0.58985 -0.94685,0.90029 -0.57432,0.29492 -1.14864,0.43462 l 2.70086,4.14443 h -1.38148 l -2.48355,-3.94264 h -3.5701 v 3.94264 z m 1.16417,-5.04471 h 3.55458 q 0.5588,0 1.13312,-0.17075 0.57432,-0.17074 0.96238,-0.60536 0.40357,-0.45015 0.40357,-1.24178 0,-0.9779 -0.66745,-1.5367 -0.66746,-0.57432 -1.76953,-0.57432 h -3.61667 z m 12.52641,5.04471 v -10.2757 h 1.16416 v 4.56353 h 5.97605 v -4.56353 h 1.16416 v 10.2757 h -1.16416 v -4.57905 h -5.97605 v 4.57905 z m 10.81898,0 v -10.2757 h 7.55931 v 1.1176 h -6.39514 v 3.44593 h 5.71216 v 1.13312 h -5.71216 v 3.46145 h 6.39514 v 1.1176 z m 8.22676,0 4.36174,-10.2757 h 1.45909 l 4.36173,10.2757 h -1.28834 l -1.2573,-2.98026 h -5.09128 l -1.2573,2.98026 z m 2.99579,-4.05129 h 4.19099 l -2.0955,-5.01367 z m 8.49065,4.05129 v -10.2757 h 4.92054 q 1.58327,0 2.5146,0.86925 0.94685,0.86924 0.94685,2.34385 0,0.99342 -0.38805,1.58326 -0.37254,0.58985 -0.94686,0.90029 -0.57432,0.29492 -1.14864,0.43462 l 2.70086,4.14443 h -1.38147 l -2.48356,-3.94264 h -3.5701 v 3.94264 z m 1.16417,-5.04471 h 3.55458 q 0.5588,0 1.13312,-0.17075 0.57432,-0.17074 0.96238,-0.60536 0.40358,-0.45015 0.40358,-1.24178 0,-0.9779 -0.66746,-1.5367 -0.66745,-0.57432 -1.76953,-0.57432 h -3.61667 z m 11.76583,5.04471 v -9.17362 h -3.58563 v -1.10208 h 8.33542 v 1.10208 h -3.58563 v 9.17362 z"
         id="path29" />
      <path
         d="m 11.681456,238.33281 4.361738,-10.2757 h 1.459086 l 4.361739,10.2757 h -1.288343 l -1.257298,-2.98026 h -5.091282 l -1.257298,2.98026 z m 2.995784,-4.05129 h 4.190994 l -2.095497,-5.01368 z m 8.490653,4.05129 v -10.2757 h 1.350432 l 6.348579,8.64587 v -8.64587 h 1.164165 v 10.2757 h -1.350431 l -6.34858,-8.67691 v 8.67691 z m 11.377771,0 v -10.2757 h 4.330694 q 0.915809,0 1.754008,0.35701 0.853721,0.34149 1.521176,1.00895 0.667454,0.66745 1.055509,1.61431 0.388055,0.94685 0.388055,2.15758 0,1.21073 -0.388055,2.15759 -0.388055,0.94685 -1.055509,1.61431 -0.667455,0.66745 -1.521176,1.02446 -0.838199,0.34149 -1.754008,0.34149 z m 1.164165,-1.10208 h 3.119962 q 1.102076,0 1.90923,-0.5588 0.807155,-0.5588 1.241776,-1.4746 0.450144,-0.91581 0.450144,-2.00237 0,-1.10207 -0.450144,-2.01788 -0.434621,-0.91581 -1.241776,-1.45909 -0.807154,-0.5588 -1.90923,-0.5588 h -3.119962 z m 11.843415,1.10208 4.361738,-10.2757 h 1.459086 l 4.361739,10.2757 h -1.288343 l -1.257298,-2.98026 h -5.091282 l -1.257298,2.98026 z m 2.995784,-4.05129 h 4.190994 l -2.095497,-5.01368 z m 8.490651,4.05129 v -10.2757 h 1.164165 v 9.1581 h 5.603514 v 1.1176 z m 8.273349,0 v -10.2757 h 1.164165 v 9.1581 h 5.603514 v 1.1176 z m 14.684003,0 v -4.06682 l -4.315171,-6.20888 h 1.41252 l 3.476973,4.99815 3.476973,-4.99815 h 1.41252 l -4.29965,6.20888 v 4.06682 z m 10.772411,0.12418 q -1.164165,0 -2.126541,-0.40358 -0.962377,-0.40358 -1.660876,-1.13312 -0.682976,-0.72954 -1.055509,-1.6764 -0.372533,-0.96237 -0.372533,-2.04893 0,-1.10207 0.372533,-2.04893 0.372533,-0.94685 1.055509,-1.6764 0.698499,-0.72954 1.660876,-1.13312 0.962376,-0.40357 2.126541,-0.40357 1.164165,0 2.126542,0.40357 0.962376,0.40358 1.645353,1.13312 0.698499,0.72955 1.071031,1.6764 0.372533,0.94686 0.372533,2.04893 0,1.08656 -0.372533,2.04893 -0.372532,0.94686 -1.071031,1.6764 -0.682977,0.72954 -1.645353,1.13312 -0.962377,0.40358 -2.126542,0.40358 z m 0,-1.13312 q 1.257298,0 2.157586,-0.54328 0.91581,-0.5588 1.396998,-1.49013 0.49671,-0.94686 0.49671,-2.0955 0,-1.16416 -0.49671,-2.0955 -0.481188,-0.93133 -1.396998,-1.4746 -0.900288,-0.5588 -2.157586,-0.5588 -1.241776,0 -2.157586,0.5588 -0.915809,0.54327 -1.41252,1.4746 -0.481188,0.93134 -0.481188,2.0955 0,1.14864 0.481188,2.0955 0.496711,0.93133 1.41252,1.49013 0.91581,0.54328 2.157586,0.54328 z m 11.315688,1.13312 q -1.27282,0 -2.26624,-0.5588 -0.9779,-0.57432 -1.5367,-1.59879 -0.558797,-1.02446 -0.558797,-2.39042 v -5.85187 h 1.164167 v 5.88292 q 0,1.19521 0.45014,1.94027 0.46567,0.74507 1.19521,1.10208 0.74507,0.34149 1.55222,0.34149 0.82268,0 1.55222,-0.34149 0.72954,-0.35701 1.19521,-1.10208 0.46567,-0.74506 0.46567,-1.94027 v -5.88292 h 1.16416 v 5.85187 q 0,1.35043 -0.5588,2.3749 -0.5588,1.02446 -1.55222,1.59879 -0.9779,0.57432 -2.26624,0.57432 z m 6.76767,-0.12418 v -10.2757 h 4.92054 q 1.58327,0 2.5146,0.86925 0.94685,0.86924 0.94685,2.34385 0,0.99342 -0.38805,1.58326 -0.37254,0.58985 -0.94686,0.90029 -0.57432,0.29492 -1.14864,0.43462 l 2.70086,4.14443 h -1.38147 l -2.48355,-3.94264 h -3.57011 v 3.94264 z m 1.16417,-5.04472 h 3.55458 q 0.5588,0 1.13312,-0.17074 0.57432,-0.17074 0.96238,-0.60537 0.40358,-0.45014 0.40358,-1.24177 0,-0.9779 -0.66746,-1.5367 -0.66745,-0.57432 -1.76953,-0.57432 h -3.61667 z m 16.20517,5.1689 q -1.52118,0 -2.46803,-0.40358 -0.94685,-0.4191 -1.42804,-1.14864 -0.46567,-0.72955 -0.54328,-1.64536 h 1.21073 q 0.0466,0.74507 0.49671,1.21074 0.45015,0.45014 1.17969,0.66745 0.74507,0.21731 1.62983,0.21731 1.30387,0 2.06445,-0.45014 0.76059,-0.46567 0.76059,-1.36596 0,-0.54327 -0.38805,-0.86924 -0.37254,-0.34149 -1.00895,-0.5588 -0.62088,-0.21731 -1.36595,-0.38805 -0.74507,-0.18627 -1.50565,-0.38806 -0.74507,-0.20179 -1.38148,-0.51223 -0.62089,-0.31045 -1.00894,-0.79163 -0.37253,-0.49671 -0.37253,-1.2573 0,-1.2573 0.96237,-2.04893 0.9779,-0.79163 2.90265,-0.79163 1.36596,0 2.25072,0.4191 0.88477,0.40357 1.31939,1.07103 0.45014,0.66745 0.49671,1.44356 h -1.19521 q -0.0931,-0.77611 -0.77611,-1.30386 -0.68298,-0.54328 -2.0955,-0.54328 -0.86924,0 -1.41252,0.17074 -0.54327,0.17075 -0.8382,0.45015 -0.2794,0.26388 -0.38805,0.5588 -0.0931,0.29492 -0.0931,0.5588 0,0.51223 0.37253,0.83819 0.38805,0.31045 1.00894,0.52776 0.63641,0.20179 1.397,0.37253 0.76059,0.17075 1.50565,0.38806 0.76059,0.20179 1.38148,0.52775 0.63641,0.31045 1.00894,0.80716 0.38806,0.49671 0.38806,1.27282 0,1.42804 -1.08656,2.20415 -1.08655,0.76059 -2.98026,0.76059 z m 8.41303,-0.12418 v -9.17362 h -3.58563 v -1.10208 h 8.33542 v 1.10208 h -3.58563 v 9.17362 z m 6.22441,0 v -10.2757 h 4.92054 q 1.58326,0 2.51459,0.86925 0.94686,0.86924 0.94686,2.34385 0,0.99342 -0.38806,1.58326 -0.37253,0.58985 -0.94685,0.90029 -0.57432,0.29492 -1.14865,0.43462 l 2.70087,4.14443 h -1.38148 l -2.48355,-3.94264 h -3.57011 v 3.94264 z m 1.16416,-5.04472 h 3.55459 q 0.5588,0 1.13312,-0.17074 0.57432,-0.17074 0.96237,-0.60537 0.40358,-0.45014 0.40358,-1.24177 0,-0.9779 -0.66745,-1.5367 -0.66746,-0.57432 -1.76953,-0.57432 h -3.61668 z m 9.22021,5.04472 v -10.2757 h 7.55931 v 1.1176 h -6.39515 v 3.44593 h 5.71217 v 1.13312 h -5.71217 v 3.46145 h 6.39515 v 1.1176 z m 9.43748,0 v -10.2757 h 1.35043 l 6.34858,8.64587 v -8.64587 h 1.16417 v 10.2757 h -1.35043 l -6.34858,-8.67691 v 8.67691 z m 15.75504,0.12418 q -1.56774,0 -2.70086,-0.6985 -1.1176,-0.71402 -1.72297,-1.90923 -0.60536,-1.19521 -0.60536,-2.6543 0,-1.45909 0.62089,-2.65429 0.62088,-1.19521 1.754,-1.89371 1.14865,-0.71402 2.68534,-0.71402 1.66088,0 2.87161,0.82267 1.22626,0.80716 1.80058,2.0955 h -1.27282 q -0.46567,-0.82268 -1.30387,-1.30387 -0.82268,-0.48118 -2.00236,-0.48118 -1.24178,0 -2.14207,0.5588 -0.90028,0.54327 -1.38147,1.4746 -0.46567,0.93134 -0.46567,2.0955 0,1.14864 0.46567,2.0955 0.46566,0.93133 1.35043,1.49013 0.90029,0.54328 2.14206,0.54328 0.93134,0 1.75401,-0.40358 0.8382,-0.40358 1.35043,-1.16417 0.52776,-0.76058 0.52776,-1.83162 h -3.75637 v -1.0555 h 4.8274 v 5.46381 h -1.07103 v -1.8161 q -0.32597,0.49671 -0.8382,0.94686 -0.51223,0.43462 -1.24178,0.71402 -0.71402,0.2794 -1.64535,0.2794 z m 9.11153,-0.12418 v -9.17362 h -3.58563 v -1.10208 h 8.33542 v 1.10208 h -3.58563 v 9.17362 z m 6.22441,0 v -10.2757 h 1.16416 v 4.56353 h 5.97605 v -4.56353 h 1.16416 v 10.2757 h -1.16416 v -4.57905 h -5.97605 v 4.57905 z"
         id="path30" />
    </g>
  </g>
</svg>
