<?xml version="1.0" encoding="UTF-8" standalone="no"?>
<!-- Created with Inkscape (http://www.inkscape.org/) -->

<svg
   width="210mm"
   height="297mm"
   viewBox="0 0 210 297"
   version="1.1"
   id="svg1"
   inkscape:version="1.3 (0e150ed6c4, 2023-07-21)"
   sodipodi:docname="signpost.svg"
   xmlns:inkscape="http://www.inkscape.org/namespaces/inkscape"
   xmlns:sodipodi="http://sodipodi.sourceforge.net/DTD/sodipodi-0.dtd"
   xmlns="http://www.w3.org/2000/svg"
   xmlns:svg="http://www.w3.org/2000/svg">
  <sodipodi:namedview
     id="namedview1"
     pagecolor="#ffffff"
     bordercolor="#000000"
     borderopacity="0.25"
     inkscape:showpageshadow="2"
     inkscape:pageopacity="0.0"
     inkscape:pagecheckerboard="0"
     inkscape:deskcolor="#d1d1d1"
     inkscape:document-units="in"
     inkscape:zoom="1.4485269"
     inkscape:cx="282.35581"
     inkscape:cy="385.56411"
     inkscape:window-width="1920"
     inkscape:window-height="1009"
     inkscape:window-x="-8"
     inkscape:window-y="-8"
     inkscape:window-maximized="1"
     inkscape:current-layer="layer1" />
  <defs
     id="defs1" />
  <g
     inkscape:label="Layer 1"
     inkscape:groupmode="layer"
     id="layer1">
    <path
       id="rect6"
       style="fill:#000000;stroke:none;stroke-width:0.243422;stroke-linecap:round;stroke-linejoin:round;-inkscape-stroke:none"
       d="m 44.589606,68.86442 v 1.963704 H 24.216693 v 12.700005 h 20.372913 v 2.16214 h -12.28555 l -5.062224,6.0818 5.062224,6.6182 h 12.28555 v 72.074171 h 6.35 V 98.390269 h 14.40223 v -12.7 h -14.40223 v -2.16214 h 21.6607 l 5.06222,-6.618722 -5.06222,-6.081283 h -21.6607 V 68.86442 Z" />
    <path
       d="m 35.352522,88.461712 -0.270934,4.944539 c -0.05644,1.061156 -0.327378,1.478846 -0.948267,1.478846 -0.598312,0 -0.903112,-0.406401 -0.903112,-1.23049 0,-0.05644 0,-0.1016 0.01129,-0.203201 h -0.778934 c -0.02258,0.203201 -0.02258,0.282223 -0.02258,0.406401 0,1.106312 0.6096,1.749779 1.682046,1.749779 1.106312,0 1.727201,-0.722489 1.794935,-2.111024 l 0.259645,-5.03485 z m 5.565426,5.904095 c -0.496711,0.349956 -0.959556,0.51929 -1.399823,0.51929 -0.745068,0 -1.219201,-0.530579 -1.264357,-1.422402 0.214489,0.01129 0.282223,0.02258 0.440267,0.02258 1.64818,0 2.675469,-0.666045 2.675469,-1.727202 0,-0.835378 -0.620889,-1.388534 -1.53529,-1.388534 -1.377246,0 -2.404536,1.264356 -2.404536,2.96898 0,1.411113 0.745068,2.269069 1.964269,2.269069 0.553156,0 0.982134,-0.135466 1.490135,-0.462845 z M 40.545415,91.76936 c 0,0.609601 -0.733779,1.038579 -1.85138,1.038579 -0.135467,0 -0.214489,0 -0.417689,-0.03387 0.112889,-0.869245 0.835378,-1.727201 1.524001,-1.727201 0.41769,0 0.745068,0.338667 0.745068,0.722489 z m 2.833511,-0.180622 c 0.05645,-0.417689 -0.03387,-0.959557 -0.07902,-1.095023 h -0.745068 c 0.09031,0.372533 0.124178,0.699911 0.07902,1.63689 l -0.169334,3.330226 h 0.745068 l 0.1016,-1.95298 c 0.06773,-1.377246 0.733778,-2.325514 1.63689,-2.325514 0.146756,0 0.237067,0.01129 0.440267,0.06773 l 0.07902,-0.711201 c -0.225778,-0.112889 -0.31609,-0.135467 -0.564445,-0.135467 -0.677334,0 -1.117601,0.338667 -1.524002,1.185335 z m 4.041434,-2.607736 c 0,-0.282223 -0.225778,-0.51929 -0.508001,-0.51929 -0.282222,0 -0.508,0.237067 -0.508,0.541868 0,0.270933 0.237066,0.474133 0.508,0.474133 0.282223,0 0.508001,-0.214489 0.508001,-0.496711 z m -0.180623,1.512713 h -0.778934 l -0.2032,3.815648 c -0.03387,0.722489 0.270933,1.253068 0.903112,1.253068 0.270933,0 0.485423,-0.06773 0.801512,-0.259645 l 0.03387,-0.609601 c -0.203201,0.124178 -0.406401,0.191912 -0.530579,0.191912 -0.293511,0 -0.428978,-0.146756 -0.4064,-0.666045 z m 5.023565,3.89467 c -0.587023,0.349956 -0.993423,0.485423 -1.422402,0.485423 -0.778934,0 -1.264356,-0.575734 -1.264356,-1.535291 0,-1.298223 0.722489,-2.212624 1.704624,-2.212624 0.428978,0 0.575733,0.03387 1.106312,0.237067 l 0.1016,-0.767645 c -0.474134,-0.191912 -0.666045,-0.248356 -1.174046,-0.248356 -1.63689,0 -2.56258,1.33209 -2.56258,2.968981 0,1.467557 0.72249,2.280357 2.043291,2.280357 0.508,0 0.959556,-0.124177 1.411112,-0.395111 z m 4.143027,-0.05644 c -0.04516,0.846667 0.3048,1.23049 0.9144,1.23049 0.259645,0 0.474134,-0.06773 0.801512,-0.259645 l 0.02258,-0.632178 c -0.259645,0.180622 -0.372534,0.214489 -0.519289,0.214489 -0.270934,0 -0.428978,-0.169334 -0.406401,-0.632179 l 0.1016,-2.043291 c 0.09031,-1.704624 -0.9144,-1.84009 -1.411112,-1.84009 -0.609601,0 -1.117601,0.282222 -1.557868,0.869245 l 0.191911,-3.556004 h -0.790223 l -0.417689,7.778053 h 0.790223 l 0.124178,-2.269069 c 0.05644,-1.12889 0.699911,-2.043291 1.524001,-2.043291 0.632179,0 0.767645,0.564445 0.72249,1.399823 z m 6.965257,-1.614313 c 0,-1.501424 -0.778934,-2.35938 -2.088447,-2.35938 -1.43369,0 -2.35938,1.117601 -2.35938,2.86738 0,1.501424 0.778934,2.393247 2.088447,2.393247 1.43369,0 2.35938,-1.140179 2.35938,-2.901247 z m -0.82409,0.01129 c 0,1.309512 -0.598311,2.167469 -1.512712,2.167469 -0.835379,0 -1.286935,-0.564445 -1.286935,-1.636891 0,-1.388535 0.564445,-2.223913 1.501424,-2.223913 0.846667,0 1.298223,0.6096 1.298223,1.693335 z"
       id="text1"
       style="font-size:11.2889px;line-height:1.25;font-family:'Sassoon Primary Std';-inkscape-font-specification:'Sassoon Primary Std, Normal';white-space:pre;fill:#808080;stroke-width:0.499999;stroke-linecap:round;stroke-linejoin:round"
       aria-label="Jericho" />
    <path
       d="m 29.439032,73.977521 -0.270934,4.944538 c -0.05645,1.061157 -0.327378,1.478846 -0.948268,1.478846 -0.598311,0 -0.903112,-0.406401 -0.903112,-1.23049 0,-0.05645 0,-0.1016 0.01129,-0.2032 h -0.778934 c -0.02258,0.2032 -0.02258,0.282222 -0.02258,0.4064 0,1.106312 0.609601,1.749779 1.682046,1.749779 1.106313,0 1.727202,-0.722489 1.794936,-2.111024 l 0.259644,-5.034849 z m 5.565426,5.904094 c -0.496711,0.349956 -0.959556,0.51929 -1.399823,0.51929 -0.745068,0 -1.219202,-0.530578 -1.264357,-1.422402 0.214489,0.01129 0.282222,0.02258 0.440267,0.02258 1.648179,0 2.675469,-0.666045 2.675469,-1.727202 0,-0.835378 -0.620889,-1.388534 -1.53529,-1.388534 -1.377246,0 -2.404536,1.264357 -2.404536,2.968981 0,1.411112 0.745067,2.269068 1.964269,2.269068 0.553156,0 0.982134,-0.135466 1.490134,-0.462844 z m -0.372534,-2.596447 c 0,0.609601 -0.733778,1.038579 -1.851379,1.038579 -0.135467,0 -0.214489,0 -0.417689,-0.03387 0.112889,-0.869246 0.835378,-1.727202 1.524001,-1.727202 0.417689,0 0.745067,0.338667 0.745067,0.722489 z m 2.833512,-0.180622 c 0.05644,-0.417689 -0.03387,-0.959557 -0.07902,-1.095023 h -0.745068 c 0.09031,0.372533 0.124178,0.699911 0.07902,1.63689 l -0.169333,3.330226 h 0.745067 l 0.1016,-1.95298 c 0.06773,-1.377246 0.733779,-2.325513 1.636891,-2.325513 0.146756,0 0.237067,0.01129 0.440267,0.06773 l 0.07902,-0.711201 c -0.225778,-0.112889 -0.316089,-0.135467 -0.564445,-0.135467 -0.677334,0 -1.117601,0.338667 -1.524001,1.185335 z m 6.750769,2.66418 c 0,-0.03387 0.214489,-3.759203 0.214489,-3.759203 h -0.790223 l -0.06773,1.580446 c -0.112889,2.596447 -1.106312,2.822225 -1.546579,2.822225 -0.496712,0 -0.790223,-0.304801 -0.790223,-0.869246 0,-0.925689 0.124178,-1.851379 0.124178,-2.788358 0,-0.270934 0,-0.530578 -0.02258,-0.745067 h -0.812801 c 0.04516,0.361244 0.05644,0.733778 0.05644,1.106312 0,1.095023 -0.135466,2.099735 -0.135466,2.393247 0,1.016001 0.530578,1.580446 1.478846,1.580446 0.620889,0 1.12889,-0.259645 1.546579,-0.846668 0.05644,0.564445 0.349956,0.846668 0.880534,0.846668 0.259645,0 0.485423,-0.07902 0.767645,-0.270934 l 0.04516,-0.598312 c -0.282222,0.169334 -0.383823,0.191912 -0.519289,0.191912 -0.270934,0 -0.428979,-0.214489 -0.428979,-0.643468 z m 1.478847,0.948268 c 0.259645,0.2032 0.835379,0.395112 1.433691,0.395112 1.12889,0 1.783646,-0.51929 1.783646,-1.422402 0,-0.530578 -0.180623,-0.903112 -0.903112,-1.411112 -0.846668,-0.598312 -1.196624,-0.756357 -1.196624,-1.12889 0,-0.361245 0.31609,-0.62089 0.801512,-0.62089 0.395112,0 0.790223,0.146756 1.275646,0.4064 l 0.07902,-0.745067 c -0.338667,-0.2032 -0.8128,-0.338667 -1.298223,-0.338667 -1.038579,0 -1.682046,0.519289 -1.682046,1.343379 0,0.632179 0.316089,1.016001 1.399823,1.693335 0.496712,0.316089 0.699912,0.564445 0.699912,0.869246 0,0.395111 -0.383822,0.677334 -0.936979,0.677334 -0.451556,0 -0.959556,-0.191912 -1.422401,-0.51929 z m 7.270055,-4.809071 c -1.772358,0 -2.810936,1.23049 -2.810936,3.093158 0,1.388535 0.666045,2.099736 1.670757,2.099736 0.609601,0 1.12889,-0.304801 1.546579,-0.914401 0.04516,0.587023 0.440267,0.891823 0.903112,0.891823 0.316089,0 0.496712,-0.112889 0.688623,-0.248356 l 0.03387,-0.587023 c -0.158045,0.09031 -0.327378,0.158045 -0.428978,0.158045 -0.282223,0 -0.440267,-0.169334 -0.41769,-0.530578 l 0.214489,-3.725338 c -0.587022,-0.2032 -0.835378,-0.237066 -1.399823,-0.237066 z m 0.496711,2.302935 c -0.07902,1.207913 -0.722489,2.111025 -1.53529,2.111025 -0.609601,0 -0.948268,-0.451556 -0.948268,-1.264357 0,-1.490135 0.72249,-2.427114 1.885247,-2.427114 0.270933,0 0.395111,0.03387 0.688623,0.135467 z m 3.556012,-4.978405 h -0.767645 l -0.338667,6.197606 c -0.05645,1.038579 0.214489,1.64818 0.948268,1.64818 0.259644,0 0.451556,-0.06773 0.722489,-0.248356 l 0.03387,-0.598312 c -0.248356,0.158045 -0.372534,0.214489 -0.51929,0.214489 -0.372533,0 -0.428978,-0.372533 -0.395111,-1.027289 z m 4.809071,6.649162 c -0.496712,0.349956 -0.959557,0.51929 -1.399824,0.51929 -0.745067,0 -1.219201,-0.530578 -1.264357,-1.422402 0.214489,0.01129 0.282223,0.02258 0.440267,0.02258 1.64818,0 2.67547,-0.666045 2.67547,-1.727202 0,-0.835378 -0.62089,-1.388534 -1.535291,-1.388534 -1.377246,0 -2.404535,1.264357 -2.404535,2.968981 0,1.411112 0.745067,2.269068 1.964268,2.269068 0.553156,0 0.982135,-0.135466 1.490135,-0.462844 z m -0.372534,-2.596447 c 0,0.609601 -0.733779,1.038579 -1.85138,1.038579 -0.135466,0 -0.214489,0 -0.417689,-0.03387 0.112889,-0.869246 0.835379,-1.727202 1.524002,-1.727202 0.417689,0 0.745067,0.338667 0.745067,0.722489 z m 1.919109,3.691471 h 0.767645 l 0.158045,-2.551292 c 0.05644,-0.993423 0.677334,-1.761068 1.399823,-1.761068 0.485423,0 0.778935,0.361245 0.733779,1.309512 l -0.158045,3.002848 h 0.790223 l 0.146756,-2.664181 c 0.05644,-1.004712 0.632179,-1.648179 1.33209,-1.648179 0.451556,0 0.756357,0.3048 0.72249,0.880534 l -0.135467,2.336802 c -0.04515,0.82409 0.428978,1.207913 0.92569,1.207913 0.316089,0 0.541867,-0.07902 0.790223,-0.282223 l 0.03387,-0.587023 c -0.270934,0.180623 -0.395112,0.191912 -0.530579,0.191912 -0.361244,0 -0.462844,-0.270934 -0.428978,-0.880534 l 0.124178,-2.009425 c 0.06773,-1.016001 -0.519289,-1.63689 -1.365957,-1.63689 -0.620889,0 -1.174045,0.293511 -1.557868,0.846667 -0.270934,-0.564445 -0.699912,-0.846667 -1.309513,-0.846667 -0.643467,0 -1.12889,0.282222 -1.478845,0.891823 -0.03387,-0.349956 -0.04516,-0.462845 -0.124178,-0.767645 h -0.778934 c 0.146755,0.575734 0.169333,0.959556 0.124177,1.749779 z"
       id="text1-3"
       style="font-size:11.2889px;line-height:1.25;font-family:'Sassoon Primary Std';-inkscape-font-specification:'Sassoon Primary Std, Normal';white-space:pre;fill:#808080;stroke-width:0.499999;stroke-linecap:round;stroke-linejoin:round"
       aria-label="Jerusalem" />
    <path
       id="rect7"
       style="fill:#000000;stroke:none;stroke-width:0.382924;stroke-linecap:round;stroke-linejoin:round;-inkscape-stroke:none"
       d="M 17.534847 99.632161 L 17.534847 125.03216 L 42.934847 125.03216 L 42.934847 99.632161 L 17.534847 99.632161 z M 27.059847 109.15716 L 33.409847 109.15716 L 33.409847 115.50716 L 27.059847 115.50716 L 27.059847 109.15716 z " />
    <path
       style="fill:none;stroke:#808080;stroke-width:0.499999;stroke-linecap:round;stroke-linejoin:round;-inkscape-stroke:none"
       d="m 44.589606,70.828123 h 6.35"
       id="path8" />
    <path
       style="fill:none;stroke:#808080;stroke-width:0.499999;stroke-linecap:round;stroke-linejoin:round;-inkscape-stroke:none"
       d="m 44.589606,83.528129 h 6.35"
       id="path8-7" />
    <path
       style="fill:none;stroke:#808080;stroke-width:0.499999;stroke-linecap:round;stroke-linejoin:round;-inkscape-stroke:none"
       d="m 44.589606,85.690269 h 6.35"
       id="path8-9" />
    <path
       style="fill:none;stroke:#808080;stroke-width:0.499999;stroke-linecap:round;stroke-linejoin:round;-inkscape-stroke:none"
       d="m 44.589606,98.390269 h 6.35"
       id="path8-6" />
  </g>
</svg>
