<?xml version="1.0" encoding="UTF-8" standalone="no"?>
<!-- Created with Inkscape (http://www.inkscape.org/) -->

<svg
   width="15in"
   height="15in"
   viewBox="0 0 381 381"
   version="1.1"
   id="svg5"
   inkscape:version="1.2.1 (9c6d41e4, 2022-07-14)"
   sodipodi:docname="drawing.svg"
   xmlns:inkscape="http://www.inkscape.org/namespaces/inkscape"
   xmlns:sodipodi="http://sodipodi.sourceforge.net/DTD/sodipodi-0.dtd"
   xmlns="http://www.w3.org/2000/svg"
   xmlns:svg="http://www.w3.org/2000/svg">
  <sodipodi:namedview
     id="namedview7"
     pagecolor="#ffffff"
     bordercolor="#000000"
     borderopacity="0.25"
     inkscape:showpageshadow="2"
     inkscape:pageopacity="0.0"
     inkscape:pagecheckerboard="0"
     inkscape:deskcolor="#d1d1d1"
     inkscape:document-units="pt"
     showgrid="false"
     inkscape:zoom="0.71335874"
     inkscape:cx="625.91229"
     inkscape:cy="763.99148"
     inkscape:window-width="1920"
     inkscape:window-height="1058"
     inkscape:window-x="0"
     inkscape:window-y="25"
     inkscape:window-maximized="0"
     inkscape:current-layer="layer1" />
  <defs
     id="defs2" />
  <g
     inkscape:label="Layer 1"
     inkscape:groupmode="layer"
     id="layer1">
    <g
       aria-label="Paschal Time"
       id="text566"
       style="font-size:9.17222px;font-family:'Heiti SC';-inkscape-font-specification:'Heiti SC, Normal';text-align:center;text-anchor:middle;fill:#00ffff;stroke-width:0.352777"
       transform="translate(-1.112694,-4.8216741)">
      <path
         d="m 124.88501,92.03304 1.18209,-0.703978 q 1.00871,-0.600728 1.37087,-0.70965 0.36215,-0.108922 0.74424,-0.0589 0.38996,0.04533 0.72272,0.263499 0.33277,0.218172 0.56274,0.604321 0.22996,0.386149 0.26327,0.782662 0.0412,0.39182 -0.11262,0.760977 -0.15061,0.356583 -0.49301,0.677929 -0.3471,0.313465 -1.34793,0.9095 l -0.34675,0.2065 1.56753,2.632115 -0.67773,0.403614 z m 2.15609,2.07877 0.89838,-0.535024 q 0.80533,-0.458251 0.92946,-0.895145 0.13201,-0.441588 -0.10734,-0.843498 -0.53502,-0.898387 -1.85896,-0.109931 l -0.94567,0.563183 z"
         style="stroke-width:0.352778"
         id="path673" />
      <path
         d="m 137.34262,92.757988 -0.6573,0.346308 -0.34203,-0.649186 q -0.30323,1.175764 -1.24455,1.671712 -0.94132,0.495947 -1.97826,0.161045 -1.0331,-0.347292 -1.5376,-1.304843 -0.50878,-0.965665 -0.19438,-2.00217 0.31012,-1.044619 1.27579,-1.553393 0.97378,-0.513049 2.04579,-0.07222 l -0.35485,-0.673531 0.6573,-0.346308 z m -2.5244,0.718339 q 0.67353,-0.354859 0.9039,-1.098273 0.23036,-0.743415 -0.15015,-1.465635 -0.38478,-0.730335 -1.12008,-0.964976 -0.73958,-0.242756 -1.43745,0.124929 -0.68976,0.36341 -0.89919,1.126894 -0.2137,0.755368 0.14971,1.445129 0.36341,0.689761 1.11965,0.944471 0.75197,0.246595 1.43361,-0.112539 z"
         style="stroke-width:0.352778"
         id="path675" />
      <path
         d="m 138.998,87.098031 -0.22417,0.663747 q -0.70476,-0.225094 -1.11116,-0.03318 -0.25712,0.121413 -0.35296,0.36954 -0.0998,0.239834 0.0138,0.480359 0.10966,0.232232 0.38659,0.32462 0.2813,0.08018 0.90427,0.110592 0.61905,0.02212 1.03329,0.211964 0.42253,0.185926 0.63794,0.642096 0.27416,0.580579 0.0558,1.170601 -0.21012,0.586106 -0.799,0.86418 -0.8211,0.387738 -1.69749,-0.05047 l 0.20412,-0.684712 q 0.69462,0.311029 1.15909,0.0917 0.31517,-0.148828 0.44119,-0.461925 0.12603,-0.313096 -0.003,-0.586798 -0.13316,-0.281996 -0.42668,-0.36655 -0.28913,-0.09676 -0.90427,-0.110592 -0.60684,-0.01774 -1.00495,-0.194915 -0.39373,-0.189382 -0.62481,-0.678728 -0.23499,-0.497639 -0.0428,-1.014398 0.20044,-0.520676 0.78931,-0.79875 0.59717,-0.281991 1.56618,0.05162 z"
         style="stroke-width:0.352778"
         id="path677" />
      <path
         d="m 145.87588,87.83412 q -0.13886,0.685701 -0.61283,1.214098 -0.46552,0.524833 -1.15008,0.813544 -1.06486,0.449105 -2.07907,0.05061 -1.00575,-0.402058 -1.43347,-1.416219 -0.42772,-1.014161 -0.0123,-2.035493 0.41183,-1.029783 1.55276,-1.510968 0.67611,-0.285146 1.3671,-0.228159 0.69944,0.05342 1.24515,0.450413 l -0.4032,0.578186 q -0.95556,-0.542681 -1.95282,-0.122091 -0.78598,0.331483 -1.10455,1.063116 -0.32214,0.723182 -0.008,1.4669 0.31366,0.743718 1.0622,1.055164 0.74853,0.311447 1.55141,-0.02716 0.96345,-0.406333 1.28048,-1.49568 z"
         style="stroke-width:0.352778"
         id="path679" />
      <path
         d="m 151.39651,86.892842 -0.71557,0.259868 -0.81404,-2.241539 q -0.23795,-0.655219 -0.37812,-0.906825 -0.13154,-0.254737 -0.35402,-0.437417 -0.22561,-0.191301 -0.51084,-0.224333 -0.27973,-0.04479 -0.61597,0.07732 -0.32761,0.118975 -0.57299,0.383741 -0.24539,0.264767 -0.36074,0.618922 -0.11534,0.354155 -0.0888,0.695831 0.0351,0.338545 0.37327,1.269646 l 0.63244,1.741503 -0.71556,0.259868 -2.34821,-6.465978 0.71557,-0.259867 0.89858,2.474314 q 0.39776,-1.081251 1.35472,-1.428785 0.50866,-0.184725 1.01954,-0.06775 0.50775,0.108354 0.88373,0.498762 0.37285,0.381787 0.72039,1.338751 z"
         style="stroke-width:0.352778"
         id="path681" />
      <path
         d="m 157.33433,85.03744 -0.71052,0.21712 -0.21444,-0.701744 q -0.518,1.0982 -1.53553,1.409137 -1.01753,0.310937 -1.97343,-0.212186 -0.94981,-0.534576 -1.26611,-1.569649 -0.31898,-1.043845 0.18392,-2.003157 0.50022,-0.968085 1.54407,-1.287063 1.05261,-0.321658 2.02314,0.312087 l -0.22248,-0.72806 0.71051,-0.217119 z m -2.61426,0.233001 q 0.72806,-0.222481 1.09354,-0.909619 0.36548,-0.687137 0.12692,-1.467828 -0.24124,-0.789463 -0.91961,-1.157622 -0.68105,-0.376932 -1.43542,-0.14641 -0.74561,0.227842 -1.09427,0.938615 -0.35135,0.702001 -0.12351,1.447604 0.22784,0.745604 0.92302,1.137398 0.6925,0.383023 1.42933,0.157862 z"
         style="stroke-width:0.352778"
         id="path683" />
      <path
         d="m 159.23659,84.545238 -0.72661,0.194208 -1.77629,-6.64588 0.72662,-0.194208 z"
         style="stroke-width:0.352778"
         id="path685" />
      <path
         d="m 164.4706,77.210495 -1.43355,0.314076 1.272,5.80589 -0.77949,0.170779 -1.27201,-5.80589 -1.44251,0.316039 -0.16489,-0.752616 3.65556,-0.800894 z"
         style="stroke-width:0.352778"
         id="path687" />
      <path
         d="m 165.43941,76.080244 q 0.24318,-0.04684 0.43826,0.09307 0.20235,0.129161 0.24918,0.372342 0.0451,0.234174 -0.0931,0.43826 -0.1309,0.193345 -0.37408,0.240181 -0.23417,0.0451 -0.43826,-0.09307 -0.19508,-0.139903 -0.23845,-0.36507 -0.0451,-0.234174 0.0841,-0.436526 0.13817,-0.204086 0.37235,-0.249187 z m 1.67929,6.682163 -0.74756,0.143979 -0.9454,-4.908648 0.74756,-0.143978 z"
         style="stroke-width:0.352778"
         id="path689" />
      <path
         d="m 175.61494,81.426607 -0.76251,0.110456 -0.39054,-2.696009 q -0.0934,-0.6445 -0.21846,-0.932222 -0.11601,-0.289037 -0.40818,-0.450608 -0.28442,-0.171963 -0.71106,-0.11016 -0.41756,0.06049 -0.75029,0.386726 -0.33273,0.326237 -0.40959,0.819305 -0.0782,0.48399 0.0546,1.400815 l 0.28272,1.951657 -0.73527,0.106511 -0.36688,-2.532615 q -0.10782,-0.744352 -0.23686,-1.059307 -0.11996,-0.316269 -0.41345,-0.486917 -0.29349,-0.170648 -0.6929,-0.11279 -0.39941,0.05786 -0.72569,0.364626 -0.31852,0.296375 -0.43181,0.729845 -0.11462,0.424393 0.0208,1.359373 l 0.30507,2.105974 -0.74435,0.107826 -0.71665,-4.947222 0.74435,-0.107827 0.10125,0.698965 q 0.51576,-0.918097 1.4689,-1.056167 0.51741,-0.07495 0.97574,0.145961 0.46609,0.210521 0.72128,0.69256 0.23368,-0.562124 0.65718,-0.901511 0.42351,-0.339387 0.94092,-0.41434 0.70804,-0.102567 1.27963,0.324371 0.57158,0.426939 0.77146,1.806715 z"
         style="stroke-width:0.352778"
         id="path691" />
      <path
         d="m 181.56619,78.587619 -4.37069,0.345369 q 0.11074,0.819322 0.65339,1.282487 0.55106,0.453299 1.25513,0.397665 1.19782,-0.09465 1.73553,-1.324046 l 0.66608,0.278597 q -0.3669,0.829462 -0.92175,1.25974 -0.55558,0.421135 -1.36937,0.48544 -1.12467,0.08887 -1.91686,-0.621399 -0.79292,-0.719414 -0.8789,-1.807516 -0.086,-1.088102 0.5841,-1.923121 0.67923,-0.835741 1.76733,-0.921722 1.08811,-0.08598 1.87813,0.596858 0.7893,0.673695 0.91788,1.951648 z M 180.67223,77.9866 q -0.18774,-0.629222 -0.70053,-0.947533 -0.5128,-0.318311 -1.14371,-0.268456 -1.28012,0.101154 -1.5938,1.48766 z"
         style="stroke-width:0.352778"
         id="path693" />
    </g>
    <path
       id="path3161"
       style="fill:none;stroke:#000000;stroke-width:0.352778;stroke-dasharray:none"
       d="m 195.19155,190.32543 a 4.5795677,4.5795677 0 0 1 -4.57957,4.57957 4.5795677,4.5795677 0 0 1 -4.57956,-4.57957 4.5795677,4.5795677 0 0 1 4.57956,-4.57957 4.5795677,4.5795677 0 0 1 4.57957,4.57957 z m 27.41677,16.53311 -11.11977,-5.77243 z m 1.83592,-3.93737 -11.74851,-4.40186 z m -49.4423,-30.4307 -8.17294,-9.30598 z m -11.19391,-6.28585 9.18622,8.24369 z m 26.8,0.45813 0.1442,-12.60727 z m 2.86945,0.17107 1.63545,-12.39691 z m 18.01107,34.25229 1.20718,-2.5668 z m -20.88052,-34.42336 2.86945,0.17107 z m -17.61378,7.78556 2.00769,-1.95784 z m 1.25172,-117.580736 -3.25564,-26.809055 m -12.66936,29.721232 -6.47966,-26.287127 m -8.95885,31.115332 -9.56084,-25.208715 m -5.14435,31.909178 -12.58455,-23.97704 M 114.31369,79.59628 99.012771,57.429669 M 166.829,163.18449 121.30112,111.79531 m 0,0 -19.64839,-22.177935 m 0,0 -17.924901,-20.232572 m 80.080201,96.819817 -51.39275,-45.52911 m 0,0 -22.178019,-19.64762 m 0,0 L 70.001443,83.100846 M 80.204972,113.68165 58.041878,98.383845 M 71.909975,127.54384 47.930901,114.95886 m 17.271036,27.29034 -25.209574,-9.56061 m 20.369013,25.00013 -26.28871,-6.47948 m 23.36979,22.40892 -26.808227,-3.25501 m 25.677802,19.43319 H 29.2912 m 28.059269,16.19207 -26.803743,3.25502 m 29.665089,12.70003 -26.280249,6.47793 m 31.016191,9.02104 -25.196435,9.55612 m 31.869093,5.20514 -23.964534,12.57794 m 32.235966,1.34861 -22.188672,15.31609 m 32.176196,-2.56102 -20.219134,17.91295 m 31.646433,-6.42837 -17.936508,20.24641 m 30.604688,-10.12441 -15.288419,22.14939 m 29.200089,-13.79744 -12.58813,23.98492 m 27.35337,-17.22826 -9.56199,25.21316 m 25.06744,-20.32562 -6.47973,26.28963 m 22.48586,-23.35219 -3.25517,26.80898 m 19.84413,-25.66098 -1e-5,27.01924 m 16.24417,-28.00833 3.24081,26.6867 m 12.74803,-29.62821 6.45838,26.20104 m 9.04579,-31.04531 9.53544,25.14179 m 5.25987,-31.81633 12.52591,23.86544 m -15.48215,-56.65237 16.83162,24.38423 m 0,0 15.28245,22.13993 m 0,0 16.41663,23.78305 m -18.94145,-55.93125 17.85506,20.15382 m -6.39654,-31.62278 20.15054,17.85154 m -10.15687,-30.61823 22.14113,15.28271 m -100.90279,-74.90162 60.91526,31.97039 m 0,0 26.23319,13.76806 m 0,0 23.86085,12.52297 m -109.17338,-62.19879 64.26084,24.37061 m 0,0 27.70806,10.50817 m 0,0 25.14233,9.5351 m -20.31471,-25.03629 26.19571,6.45658 m -52.6885,-26.0107 29.41712,3.57186 m 0,0 26.68814,3.24049 m -25.71485,-19.47178 h 27.02246 m -28.13182,-16.21715 26.92839,-3.27015 m -29.83363,-12.69986 26.31014,-6.48531 m -31.13152,-9.00282 25.32132,-9.60348 m -32.03561,-5.14717 24.02397,-12.60915 m -32.33291,-1.29734 22.26099,-15.366035 m -54.4096,22.244775 22.0964,-19.57611 m 0,0 20.29639,-17.981366 m 0,0 21.55683,-19.098047 m -53.30157,25.634838 17.98095,-20.296613 m -30.68297,10.251679 15.36666,-22.262765 m -29.27368,13.957638 12.60856,-24.023917 m -27.35904,17.313901 9.60262,-25.320341 M 222.9316,59.73803 229.4167,33.427136 m -34.30377,121.009774 8.29331,-68.30237 m 0,0 3.55728,-29.297145 m 0,0 3.26977,-26.929189 m -19.48099,124.147274 2e-5,-68.706237 m 0,0 -3e-5,-29.618093 m 0,0 1e-5,-27.020785 M 379.44126,213.30571 a 190.23726,190.23726 0 0 1 -4.13995,22.61182 m 0,0 a 190.23726,190.23726 0 0 1 -6.83302,21.93674 m 0,0 a 190.23726,190.23726 0 0 1 -9.42229,20.94246 m 0,0 a 190.23726,190.23726 0 0 1 -11.8729,19.64845 m 0,0 a 190.23726,190.23726 0 0 1 -14.15068,18.07235 m 0,0 a 190.23726,190.23726 0 0 1 -16.22371,16.23607 m 0,0 a 190.23726,190.23726 0 0 1 -18.0635,14.16577 m 0,0 A 190.23726,190.23726 0 0 1 279.092,358.80892 m 0,0 a 190.23726,190.23726 0 0 1 -20.94126,9.43968 m 0,0 a 190.23726,190.23726 0 0 1 -21.93947,6.85014 m 0,0 a 190.23726,190.23726 0 0 1 -22.619,4.15596 m 0,0 a 190.23726,190.23726 0 0 1 -22.9728,1.3962 m 0,0 a 190.23726,190.23726 0 0 1 -0.0331,0 190.23726,190.23726 0 0 1 -23.2983,-1.43205 m 0,0 a 190.23726,190.23726 0 0 1 -22.64206,-4.19832 m 0,0 a 190.23726,190.23726 0 0 1 -21.94681,-6.8949 m 0,0 a 190.23726,190.23726 0 0 1 -20.94201,-9.48714 m 0,0 a 190.23726,190.23726 0 0 1 -19.632305,-11.9356 m 0,0 A 190.23726,190.23726 0 0 1 64.085693,332.49743 m 0,0 A 190.23726,190.23726 0 0 1 47.892706,316.22597 m 0,0 A 190.23726,190.23726 0 0 1 33.781573,298.12843 m 0,0 a 190.23726,190.23726 0 0 1 -11.828922,-19.6643 m 0,0 a 190.23726,190.23726 0 0 1 -9.376384,-20.94889 m 0,0 a 190.23726,190.23726 0 0 1 -6.785768,-21.9274 m 0,0 a 190.23726,190.23726 0 0 1 -4.09679,-22.5959 m 0,0 a 190.23726,190.23726 0 0 1 -1.34460799,-22.57831 190.23726,190.23726 0 0 1 3.28e-4,-0.35598 m 0,0 A 190.23726,190.23726 0 0 1 1.778351,167.13814 m 0,0 a 190.23726,190.23726 0 0 1 4.176532,-22.5659 m 0,0 a 190.23726,190.23726 0 0 1 6.855886,-21.87901 m 0,0 a 190.23726,190.23726 0 0 1 9.43293,-20.88526 m 0,0 A 190.23726,190.23726 0 0 1 34.11241,82.218835 m 0,0 A 190.23726,190.23726 0 0 1 48.242448,64.205784 m 0,0 a 190.23726,190.23726 0 0 1 16.193121,-16.18663 m 0,0 A 190.23726,190.23726 0 0 1 82.454456,33.89622 m 0,0 A 190.23726,190.23726 0 0 1 102.04697,22.036122 m 0,0 a 190.23726,190.23726 0 0 1 20.88451,-9.423015 m 0,0 a 190.23726,190.23726 0 0 1 21.87691,-6.84667 m 0,0 a 190.23726,190.23726 0 0 1 22.56198,-4.168129 m 0,0 a 190.23726,190.23726 0 0 1 23.216,-1.42191901 190.23726,190.23726 0 0 1 0.0331,3e-6 m 0,0 A 190.23726,190.23726 0 0 1 213.57226,1.570161 m 0,0 a 190.23726,190.23726 0 0 1 22.605,4.149999 m 0,0 a 190.23726,190.23726 0 0 1 21.92564,6.840371 m 0,0 a 190.23726,190.23726 0 0 1 20.93086,9.427255 m 0,0 a 190.23726,190.23726 0 0 1 19.63678,11.875476 m 0,0 a 190.23726,190.23726 0 0 1 18.05922,14.149341 m 0,0 a 190.23726,190.23726 0 0 1 16.22434,16.220063 m 0,0 a 190.23726,190.23726 0 0 1 14.15454,18.056117 m 0,0 a 190.23726,190.23726 0 0 1 11.88084,19.634167 m 0,0 a 190.23726,190.23726 0 0 1 9.43364,20.93111 m 0,0 a 190.23726,190.23726 0 0 1 6.84625,21.92627 m 0,0 a 190.23726,190.23726 0 0 1 4.15541,22.6059 m 0,0 a 190.23726,190.23726 0 0 1 1.39882,22.9612 m 0,0 a 190.23726,190.23726 0 0 1 10e-6,0.0661 190.23726,190.23726 0 0 1 -1.38237,22.89208 m -153.01391,-18.581 a 36.099301,36.099301 0 0 1 -0.7857,4.30808 m 0,0 a 36.099301,36.099301 0 0 1 -1.29553,4.16532 m -1.78155,3.96541 a 36.099301,36.099301 0 0 1 -2.24606,3.72362 m 0,0 a 36.099301,36.099301 0 0 1 -2.67296,3.4214 m 0,0 a 36.099301,36.099301 0 0 1 -3.05832,3.07034 m 0,0 a 36.099301,36.099301 0 0 1 -3.413,2.68785 m 0,0 a 36.099301,36.099301 0 0 1 -3.71788,2.26195 m 0,0 a 36.099301,36.099301 0 0 1 -3.96408,1.7985 m 0,0 a 36.099301,36.099301 0 0 1 -4.16988,1.31285 m 0,0 a 36.099301,36.099301 0 0 1 -4.31439,0.80118 m 0,0 a 36.099301,36.099301 0 0 1 -4.38833,0.27181 m 0,0 a 36.099301,36.099301 0 0 1 -0.0332,1e-5 36.099301,36.099301 0 0 1 -4.71783,-0.30961 m 0,0 a 36.099301,36.099301 0 0 1 -4.33528,-0.84401 m 0,0 a 36.099301,36.099301 0 0 1 -4.17968,-1.35917 m 0,0 a 36.099301,36.099301 0 0 1 -3.9625,-1.84566 m 0,0 a 36.099301,36.099301 0 0 1 -3.7056,-2.30765 m 0,0 a 36.099301,36.099301 0 0 1 -3.39004,-2.72905 m 0,0 a 36.099301,36.099301 0 0 1 -3.02639,-3.10488 m 0,0 a 36.099301,36.099301 0 0 1 -2.63345,-3.44704 m 0,0 a 36.099301,36.099301 0 0 1 -2.20179,-3.73962 m 0,0 a 36.099301,36.099301 0 0 1 -1.73466,-3.97005 m 0,0 a 36.099301,36.099301 0 0 1 -1.2486,-4.15794 m 0,0 a 36.099301,36.099301 0 0 1 -0.74183,-4.29028 m 0,0 a 36.099301,36.099301 0 0 1 -0.22166,-3.99432 36.099301,36.099301 0 0 1 10e-4,-0.35743 m 0,0 a 36.099301,36.099301 0 0 1 0.30492,-4.33816 m 0,0 a 36.099301,36.099301 0 0 1 0.8217,-4.25962 m 0,0 a 36.099301,36.099301 0 0 1 1.31959,-4.11184 m 0,0 a 36.099301,36.099301 0 0 1 1.79023,-3.90442 m 0,0 a 36.099301,36.099301 0 0 1 2.24068,-3.66324 m 0,0 a 36.099301,36.099301 0 0 1 2.65454,-3.36531 m 3.02616,-3.01941 a 36.099301,36.099301 0 0 1 3.36927,-2.64564 m 0,0 a 36.099301,36.099301 0 0 1 3.66666,-2.23197 m 0,0 a 36.099301,36.099301 0 0 1 3.90648,-1.78129 m 0,0 a 36.099301,36.099301 0 0 1 4.10889,-1.30961 m 0,0 a 36.099301,36.099301 0 0 1 4.25496,-0.81277 m 0,0 a 36.099301,36.099301 0 0 1 4.63346,-0.29859 36.099301,36.099301 0 0 1 0.0332,2e-5 m 4.37141,0.26971 a 36.099301,36.099301 0 0 1 4.30039,0.79558 m 0,0 a 36.099301,36.099301 0 0 1 4.15569,1.3033 m 0,0 a 36.099301,36.099301 0 0 1 3.95337,1.78631 m 0,0 a 36.099301,36.099301 0 0 1 3.71075,2.24778 m 0,0 a 36.099301,36.099301 0 0 1 3.40909,2.6721 m 0,0 a 36.099301,36.099301 0 0 1 3.05868,3.05462 m 0,0 a 36.099301,36.099301 0 0 1 2.67701,3.40611 m 0,0 a 36.099301,36.099301 0 0 1 2.25312,3.70869 m 0,0 a 36.099301,36.099301 0 0 1 1.79215,3.95308 m 0,0 a 36.099301,36.099301 0 0 1 1.30893,4.15634 m 0,0 a 36.099301,36.099301 0 0 1 0.80103,4.30336 m 0,0 a 36.099301,36.099301 0 0 1 0.27432,4.37573 m 0,0 a 36.099301,36.099301 0 0 1 6e-5,0.0666 36.099301,36.099301 0 0 1 -0.25834,4.31098 m 68.20293,8.28351 a 104.8034,104.8034 0 0 1 -2.28038,12.46424 m 0,0 a 104.8034,104.8034 0 0 1 -3.76368,12.0867 m -5.18862,11.53546 a 104.8034,104.8034 0 0 1 -6.53561,10.81929 m 0,0 a 104.8034,104.8034 0 0 1 -7.78823,9.95112 m 0,0 a 104.8034,104.8034 0 0 1 -8.9288,8.94102 m 0,0 a 104.8034,104.8034 0 0 1 -9.94183,7.80278 m 0,0 a 104.8034,104.8034 0 0 1 -10.81561,6.55295 m 0,0 a 104.8034,104.8034 0 0 1 -11.53416,5.20565 m 0,0 a 104.8034,104.8034 0 0 1 -12.08932,3.78046 m 0,0 a 104.8034,104.8034 0 0 1 -12.47108,2.29611 m 0,0 a 104.8034,104.8034 0 0 1 -12.67345,0.77313 m 0,0 a 104.8034,104.8034 0 0 1 -0.0331,0 104.8034,104.8034 0 0 1 -13.00285,-0.80974 m 0,0 a 104.8034,104.8034 0 0 1 -12.49074,-2.33821 m 0,0 a 104.8034,104.8034 0 0 1 -12.09785,-3.82581 m 0,0 a 104.8034,104.8034 0 0 1 -11.53435,-5.25312 m 0,0 a 104.8034,104.8034 0 0 1 -10.80496,-6.59943 m 0,0 a 104.8034,104.8034 0 0 1 -9.91871,-7.84381 m 0,0 a 104.8034,104.8034 0 0 1 -8.89497,-8.97355 m 0,0 a 104.8034,104.8034 0 0 1 -7.74944,-9.97726 m 0,0 a 104.8034,104.8034 0 0 1 -6.492749,-10.83741 m 0,0 a 104.8034,104.8034 0 0 1 -5.14181,-11.54063 m 0,0 a 104.8034,104.8034 0 0 1 -3.71646,-12.07847 m 0,0 a 104.8034,104.8034 0 0 1 -2.236476,-12.44492 m 0,0 a 104.8034,104.8034 0 0 1 -0.722051,-12.28104 104.8034,104.8034 0 0 1 6.11e-4,-0.35623 m 0,0 a 104.8034,104.8034 0 0 1 0.80635,-12.62422 m 0,0 a 104.8034,104.8034 0 0 1 2.316336,-12.41457 m 0,0 a 104.8034,104.8034 0 0 1 3.78666,-12.02992 m 0,0 a 104.8034,104.8034 0 0 1 5.19851,-11.477 m 0,0 A 104.8034,104.8034 0 0 1 104.4229,130.7501 m 0,0 a 104.8034,104.8034 0 0 1 7.76886,-9.8933 m 8.89554,-8.88869 a 104.8034,104.8034 0 0 1 9.89843,-7.76105 m 0,0 a 104.8034,104.8034 0 0 1 10.76518,-6.523655 m 0,0 a 104.8034,104.8034 0 0 1 11.47712,-5.18881 m 0,0 a 104.8034,104.8034 0 0 1 12.0275,-3.77717 m 0,0 a 104.8034,104.8034 0 0 1 12.41084,-2.30779 m 0,0 a 104.8034,104.8034 0 0 1 12.91948,-0.799362 104.8034,104.8034 0 0 1 0.0331,6e-6 m 12.65762,0.771203 a 104.8034,104.8034 0 0 1 12.45465,2.290063 m 0,0 a 104.8034,104.8034 0 0 1 12.07467,3.77062 m 0,0 a 104.8034,104.8034 0 0 1 11.52369,5.1933 m 0,0 a 104.8034,104.8034 0 0 1 10.81013,6.539675 m 0,0 a 104.8034,104.8034 0 0 1 9.93785,7.78697 m 0,0 a 104.8034,104.8034 0 0 1 8.9274,8.92324 m 0,0 a 104.8034,104.8034 0 0 1 7.79208,9.93492 m 0,0 a 104.8034,104.8034 0 0 1 6.54471,10.8073 m 0,0 a 104.8034,104.8034 0 0 1 5.19954,11.52389 m 0,0 a 104.8034,104.8034 0 0 1 3.77634,12.07519 m 0,0 a 104.8034,104.8034 0 0 1 2.29563,12.45764 m 0,0 a 104.8034,104.8034 0 0 1 0.77592,12.66309 m 0,0 a 104.8034,104.8034 0 0 1 10e-6,0.0663 104.8034,104.8034 0 0 1 -0.7595,12.59448 m 29.40291,3.57069 a 134.42234,134.42234 0 0 1 -2.92486,15.98118 m 0,0 a 134.42234,134.42234 0 0 1 -4.82787,15.50201 m 0,0 a 134.42234,134.42234 0 0 1 -6.65653,14.79703 m 0,0 a 134.42234,134.42234 0 0 1 -8.38588,13.88006 m 0,0 a 134.42234,134.42234 0 0 1 -9.99419,12.76685 m 0,0 a 134.42234,134.42234 0 0 1 -11.45783,11.47005 m 0,0 a 134.42234,134.42234 0 0 1 -12.75732,10.00861 m 0,0 a 134.42234,134.42234 0 0 1 -13.87616,8.40316 m 0,0 a 134.42234,134.42234 0 0 1 -14.79496,6.67331 m 0,0 a 134.42234,134.42234 0 0 1 -15.50448,4.84481 m 0,0 a 134.42234,134.42234 0 0 1 -15.9891,2.94091 m 0,0 a 134.42234,134.42234 0 0 1 -16.2445,0.98919 m 0,0 a 134.42234,134.42234 0 0 1 -0.0331,0 134.42234,134.42234 0 0 1 -16.57219,-1.02547 m 0,0 a 134.42234,134.42234 0 0 1 -16.00766,-2.98247 m 0,0 a 134.42234,134.42234 0 0 1 -15.5175,-4.89146 m 0,0 a 134.42234,134.42234 0 0 1 -14.79319,-6.71997 m 0,0 a 134.42234,134.42234 0 0 1 -13.86341,-8.4481 m 0,0 a 134.42234,134.42234 0 0 1 -12.73605,-10.05129 m 0,0 A 134.42234,134.42234 0 0 1 89.671751,279.21462 m 0,0 a 134.42234,134.42234 0 0 1 -9.95628,-12.7943 m 0,0 a 134.42234,134.42234 0 0 1 -8.341579,-13.8958 m 0,0 a 134.42234,134.42234 0 0 1 -6.609214,-14.80044 m 0,0 a 134.42234,134.42234 0 0 1 -4.781734,-15.49657 m 0,0 a 134.42234,134.42234 0 0 1 -2.881098,-15.96279 m 0,0 a 134.42234,134.42234 0 0 1 -0.937842,-15.85107 134.42234,134.42234 0 0 1 4.61e-4,-0.3561 m 0,0 a 134.42234,134.42234 0 0 1 1.022217,-16.19376 m 0,0 a 134.42234,134.42234 0 0 1 2.960645,-15.93136 m 0,0 a 134.42234,134.42234 0 0 1 4.852315,-15.44944 m 0,0 a 134.42234,134.42234 0 0 1 6.665523,-14.73608 m 0,0 a 134.42234,134.42234 0 0 1 8.381591,-13.82095 m 0,0 a 134.42234,134.42234 0 0 1 9.975765,-12.71031 m 0,0 A 134.42234,134.42234 0 0 1 101.4465,89.798265 m 0,0 a 134.42234,134.42234 0 0 1 12.71594,-9.968313 m 0,0 a 134.42234,134.42234 0 0 1 13.82363,-8.372479 m 0,0 a 134.42234,134.42234 0 0 1 14.73572,-6.655723 m 0,0 a 134.42234,134.42234 0 0 1 15.44768,-4.843117 m 0,0 a 134.42234,134.42234 0 0 1 15.92792,-2.952174 m 0,0 a 134.42234,134.42234 0 0 1 16.48895,-1.015144 134.42234,134.42234 0 0 1 0.0331,5e-6 m 0,0 a 134.42234,134.42234 0 0 1 16.22688,0.987044 m 0,0 a 134.42234,134.42234 0 0 1 15.97225,2.934544 m 0,0 a 134.42234,134.42234 0 0 1 15.49288,4.835818 m 0,0 a 134.42234,134.42234 0 0 1 14.78337,6.660526 m 0,0 a 134.42234,134.42234 0 0 1 13.86808,8.388049 m 0,0 a 134.42234,134.42234 0 0 1 12.75628,9.994824 m 0,0 a 134.42234,134.42234 0 0 1 11.45588,11.451675 m 0,0 a 134.42234,134.42234 0 0 1 9.99904,12.75193 m 0,0 a 134.42234,134.42234 0 0 1 8.39384,13.86608 m 0,0 a 134.42234,134.42234 0 0 1 6.66698,14.78382 m 0,0 a 134.42234,134.42234 0 0 1 4.84189,15.49438 m 0,0 a 134.42234,134.42234 0 0 1 2.93997,15.97434 m 0,0 a 134.42234,134.42234 0 0 1 0.99183,16.23299 m 0,0 a 134.42234,134.42234 0 0 1 1e-5,0.0663 134.42234,134.42234 0 0 1 -0.97553,16.16518 m 26.82272,3.25637 a 161.44198,161.44198 0 0 1 -3.51308,19.19105 m 0,0 a 161.44198,161.44198 0 0 1 -5.79858,18.61709 m 0,0 a 161.44198,161.44198 0 0 1 -7.99487,17.77097 m 0,0 a 161.44198,161.44198 0 0 1 -10.07542,16.6749 m 0,0 a 161.44198,161.44198 0 0 1 -12.00432,15.33262 m 0,0 a 161.44198,161.44198 0 0 1 -13.76671,13.77908 m 0,0 a 161.44198,161.44198 0 0 1 -15.32459,12.01994 m 0,0 a 161.44198,161.44198 0 0 1 -16.6699,10.09204 m 0,0 a 161.44198,161.44198 0 0 1 -17.76846,8.01159 m 0,0 a 161.44198,161.44198 0 0 1 -18.62105,5.81602 m 0,0 a 161.44198,161.44198 0 0 1 -19.19771,3.52889 m 0,0 a 161.44198,161.44198 0 0 1 -19.50168,1.18624 m 0,0 a 161.44198,161.44198 0 0 1 -0.0331,0 161.44198,161.44198 0 0 1 -19.82786,-1.22223 m 0,0 a 161.44198,161.44198 0 0 1 -19.21924,-3.57097 m 0,0 a 161.44198,161.44198 0 0 1 -18.63091,-5.86163 m 0,0 a 161.44198,161.44198 0 0 1 -17.76845,-8.05892 m 0,0 A 161.44198,161.44198 0 0 1 98.481451,323.00399 m 0,0 A 161.44198,161.44198 0 0 1 83.180753,310.94392 m 0,0 A 161.44198,161.44198 0 0 1 69.445578,297.13021 m 0,0 a 161.44198,161.44198 0 0 1 -11.965523,-15.3589 m 0,0 A 161.44198,161.44198 0 0 1 47.448461,265.07992 m 0,0 a 161.44198,161.44198 0 0 1 -7.947565,-17.77433 m 0,0 a 161.44198,161.44198 0 0 1 -5.752289,-18.61097 m 0,0 A 161.44198,161.44198 0 0 1 30.279169,209.5217 m 0,0 a 161.44198,161.44198 0 0 1 -1.13479,-19.10805 161.44198,161.44198 0 0 1 4.03e-4,-0.35606 m 0,0 a 161.44198,161.44198 0 0 1 1.219119,-19.44991 m 0,0 a 161.44198,161.44198 0 0 1 3.549,-19.14195 m 0,0 a 161.44198,161.44198 0 0 1 5.822765,-18.56367 m 0,0 a 161.44198,161.44198 0 0 1 8.004068,-17.71044 m 0,0 A 161.44198,161.44198 0 0 1 57.810773,98.575985 m 0,0 A 161.44198,161.44198 0 0 1 69.795915,83.300716 m 0,0 A 161.44198,161.44198 0 0 1 83.53106,69.572124 m 0,0 A 161.44198,161.44198 0 0 1 98.811691,57.594517 m 0,0 a 161.44198,161.44198 0 0 1 16.617879,-10.06183 m 0,0 a 161.44198,161.44198 0 0 1 17.71122,-7.994878 m 0,0 a 161.44198,161.44198 0 0 1 18.56173,-5.813531 m 0,0 a 161.44198,161.44198 0 0 1 19.13833,-3.540549 m 0,0 a 161.44198,161.44198 0 0 1 19.74552,-1.212059 161.44198,161.44198 0 0 1 0.0331,3e-6 m 0,0 a 161.44198,161.44198 0 0 1 19.48246,1.183891 m 0,0 a 161.44198,161.44198 0 0 1 19.18338,3.522954 m 0,0 a 161.44198,161.44198 0 0 1 18.6069,5.806183 m 0,0 a 161.44198,161.44198 0 0 1 17.75917,7.999764 m 0,0 a 161.44198,161.44198 0 0 1 16.66212,10.07725 m 0,0 a 161.44198,161.44198 0 0 1 15.32075,12.003874 m 0,0 a 161.44198,161.44198 0 0 1 13.76751,13.763316 m 0,0 a 161.44198,161.44198 0 0 1 12.00816,15.31652 m 0,0 a 161.44198,161.44198 0 0 1 10.0832,16.660535 m 0,0 a 161.44198,161.44198 0 0 1 8.00555,17.75808 m 0,0 a 161.44198,161.44198 0 0 1 5.81242,18.60866 m 0,0 a 161.44198,161.44198 0 0 1 3.52835,19.18459 m 0,0 a 161.44198,161.44198 0 0 1 1.18885,19.49007 m 0,0 a 161.44198,161.44198 0 0 1 10e-6,0.0663 v 0 a 161.44198,161.44198 0 0 1 -1.17246,19.42155" />
    <g
       aria-label="Christmas"
       transform="matrix(0.91228746,0.44221438,-0.46404021,0.87121087,-0.38780149,0)"
       id="text346"
       style="font-size:9.39497px;font-family:'Heiti SC';-inkscape-font-specification:'Heiti SC, Normal';fill:#00ffff;stroke-width:0.234874">
      <path
         d="m 348.85334,88.474464 q -1.1086,1.428036 -3.04397,1.428036 -1.63472,0 -2.67756,-1.033447 -1.04285,-1.033447 -1.04285,-2.611801 0,-0.977077 0.47915,-1.803835 0.48854,-0.826757 1.34348,-1.296506 0.85494,-0.469748 1.84141,-0.469748 0.99587,0 1.77565,0.385194 0.78918,0.375799 1.3153,1.108606 l -0.62007,0.479144 q -0.97708,-1.183767 -2.41451,-1.183767 -1.17437,0 -2.02931,0.826758 -0.84555,0.826757 -0.84555,2.029313 0,1.193161 0.82676,2.001129 0.83615,0.798572 2.16084,0.798572 1.32469,0 2.30177,-1.136791 z"
         style="stroke-width:0.234875"
         id="path2816" />
      <path
         d="m 354.42456,89.73339 h -0.77979 v -2.442692 q 0,-0.714017 -0.047,-1.005262 -0.0376,-0.291244 -0.1879,-0.544908 -0.15032,-0.263059 -0.41338,-0.394589 -0.25366,-0.140924 -0.62007,-0.140924 -0.35701,0 -0.68583,0.169109 -0.32882,0.16911 -0.5637,0.469749 -0.23487,0.300639 -0.32882,0.638858 -0.0846,0.338219 -0.0846,1.352875 v 1.897784 h -0.77978 v -7.046227 h 0.77978 v 2.696356 q 0.761,-0.901917 1.80384,-0.901917 0.5543,0 1.00526,0.291244 0.45096,0.281849 0.67644,0.789178 0.22548,0.497933 0.22548,1.540775 z"
         style="stroke-width:0.234875"
         id="path2818" />
      <path
         d="m 357.82552,84.688292 -0.40398,0.657647 q -0.15972,-0.08455 -0.31003,-0.08455 -0.29125,0 -0.52612,0.291244 -0.23488,0.281849 -0.35701,0.751597 -0.11274,0.460354 -0.11274,1.672305 v 1.756859 h -0.78918 v -5.120258 h 0.78918 v 0.554303 q 0.23487,-0.347614 0.46975,-0.516723 0.24427,-0.16911 0.54491,-0.16911 0.31003,0 0.69522,0.20669 z"
         style="stroke-width:0.234875"
         id="path2820" />
      <path
         d="m 358.7838,82.687163 q 0.25366,0 0.42277,0.178504 0.17851,0.16911 0.17851,0.422774 0,0.244269 -0.17851,0.422774 -0.16911,0.169109 -0.42277,0.169109 -0.24427,0 -0.42278,-0.178504 -0.1691,-0.178505 -0.1691,-0.413379 0,-0.244269 0.1691,-0.422774 0.17851,-0.178504 0.42278,-0.178504 z m 0.39459,7.046227 h -0.77979 v -5.120258 h 0.77979 z"
         style="stroke-width:0.234875"
         id="path2822" />
      <path
         d="m 363.03971,85.21441 -0.49794,0.516723 q -0.5543,-0.516723 -1.01465,-0.516723 -0.29125,0 -0.48854,0.187899 -0.19729,0.178505 -0.19729,0.450959 0,0.263059 0.21608,0.469748 0.22548,0.197295 0.78918,0.497934 0.5637,0.291244 0.86433,0.648253 0.31004,0.357009 0.31004,0.873732 0,0.657648 -0.46036,1.108606 -0.45095,0.450959 -1.118,0.450959 -0.9301,0 -1.55017,-0.789178 l 0.48854,-0.544908 q 0.50733,0.591883 1.03345,0.591883 0.35701,0 0.61067,-0.234874 0.25367,-0.234874 0.25367,-0.544908 0,-0.319429 -0.23488,-0.526119 -0.22548,-0.216084 -0.78918,-0.497933 -0.5543,-0.281849 -0.84554,-0.620068 -0.28185,-0.347614 -0.28185,-0.901917 0,-0.563698 0.40398,-0.958287 0.41338,-0.394589 1.08042,-0.394589 0.67644,0 1.42804,0.732808 z"
         style="stroke-width:0.234875"
         id="path2824" />
      <path
         d="m 366.37491,85.28957 h -1.01466 v 3.588878 q 0,0.197295 0.0564,0.244269 0.0564,0.03758 0.28185,0.03758 h 0.45096 v 0.667043 q -0.45096,0.07516 -0.68583,0.07516 -0.45096,0 -0.66705,-0.216084 -0.21608,-0.22548 -0.21608,-0.704623 V 85.28957 h -0.88313 v -0.676438 h 0.88313 v -1.925969 h 0.77978 v 1.925969 h 1.01466 z"
         style="stroke-width:0.234875"
         id="path2826" />
      <path
         d="m 374.79279,89.73339 h -0.78918 v -2.790306 q 0,-0.667043 -0.0845,-0.977077 -0.0752,-0.310034 -0.34762,-0.516723 -0.26305,-0.216084 -0.70462,-0.216084 -0.43217,0 -0.81736,0.281849 -0.38519,0.281849 -0.53551,0.770387 -0.15032,0.479144 -0.15032,1.428036 v 2.019918 h -0.761 v -2.621196 q 0,-0.770388 -0.0845,-1.108607 -0.0752,-0.338219 -0.34761,-0.554303 -0.27246,-0.216084 -0.68584,-0.216084 -0.41338,0 -0.78917,0.263059 -0.36641,0.253664 -0.54491,0.676438 -0.17851,0.413378 -0.17851,1.38106 v 2.179633 h -0.77039 v -5.120258 h 0.77039 v 0.723412 q 0.65765,-0.854942 1.64412,-0.854942 0.53552,0 0.96768,0.291244 0.44157,0.281849 0.62947,0.807968 0.31943,-0.535514 0.79857,-0.817363 0.47914,-0.281849 1.01466,-0.281849 0.7328,0 1.24953,0.516724 0.51672,0.516723 0.51672,1.944758 z"
         style="stroke-width:0.234875"
         id="path2828" />
      <path
         d="m 381.1156,89.73339 h -0.76099 v -0.751597 q -0.83615,0.920707 -1.92597,0.920707 -1.08981,0 -1.8696,-0.798573 -0.77038,-0.807967 -0.77038,-1.916573 0,-1.118002 0.77978,-1.907179 0.77978,-0.798573 1.89778,-0.798573 1.1274,0 1.88839,0.911312 v -0.779782 h 0.76099 z m -2.63059,-0.554303 q 0.77979,0 1.34348,-0.563698 0.5637,-0.563698 0.5637,-1.399851 0,-0.845547 -0.5543,-1.409245 -0.5543,-0.573093 -1.36227,-0.573093 -0.79857,0 -1.35288,0.591883 -0.5543,0.582488 -0.5543,1.381061 0,0.798572 0.5637,1.390455 0.5637,0.582488 1.35287,0.582488 z"
         style="stroke-width:0.234875"
         id="path2830" />
      <path
         d="m 385.09906,85.21441 -0.49793,0.516723 q -0.55431,-0.516723 -1.01466,-0.516723 -0.29125,0 -0.48854,0.187899 -0.19729,0.178505 -0.19729,0.450959 0,0.263059 0.21608,0.469748 0.22548,0.197295 0.78918,0.497934 0.5637,0.291244 0.86434,0.648253 0.31003,0.357009 0.31003,0.873732 0,0.657648 -0.46035,1.108606 -0.45096,0.450959 -1.11801,0.450959 -0.9301,0 -1.55017,-0.789178 l 0.48854,-0.544908 q 0.50733,0.591883 1.03345,0.591883 0.35701,0 0.61067,-0.234874 0.25367,-0.234874 0.25367,-0.544908 0,-0.319429 -0.23488,-0.526119 -0.22548,-0.216084 -0.78918,-0.497933 -0.5543,-0.281849 -0.84554,-0.620068 -0.28185,-0.347614 -0.28185,-0.901917 0,-0.563698 0.40398,-0.958287 0.41338,-0.394589 1.08042,-0.394589 0.67644,0 1.42804,0.732808 z"
         style="stroke-width:0.234875"
         id="path2832" />
    </g>
    <g
       aria-label="Easter"
       transform="matrix(0.04873881,-1.0126433,0.98342669,0.08493332,0,0)"
       id="text346-3"
       style="font-size:9.39497px;font-family:'Heiti SC';-inkscape-font-specification:'Heiti SC, Normal';fill:#00ffff;stroke-width:0.234874">
      <path
         d="m -63.770846,201.04045 h -3.19429 v 1.97294 h 3.166105 v 0.78918 h -3.166105 v 2.51785 h 3.166105 v 0.79858 h -3.974072 v -6.87712 h 4.002257 z"
         style="stroke-width:0.234875"
         id="path2835" />
      <path
         d="m -57.748677,207.119 h -0.760992 v -0.7516 q -0.836153,0.9207 -1.925969,0.9207 -1.089817,0 -1.869599,-0.79857 -0.770388,-0.80797 -0.770388,-1.91657 0,-1.118 0.779783,-1.90718 0.779782,-0.79857 1.897784,-0.79857 1.127396,0 1.888389,0.91131 v -0.77978 h 0.760992 z m -2.630591,-0.55431 q 0.779782,0 1.34348,-0.5637 0.563699,-0.56369 0.563699,-1.39985 0,-0.84554 -0.554304,-1.40924 -0.554303,-0.5731 -1.36227,-0.5731 -0.798573,0 -1.352876,0.59189 -0.554303,0.58249 -0.554303,1.38106 0,0.79857 0.563698,1.39045 0.563698,0.58249 1.352876,0.58249 z"
         style="stroke-width:0.234875"
         id="path2837" />
      <path
         d="m -53.765222,202.60001 -0.497933,0.51673 q -0.554303,-0.51673 -1.014657,-0.51673 -0.291244,0 -0.488538,0.1879 -0.197295,0.17851 -0.197295,0.45096 0,0.26306 0.216085,0.46975 0.225479,0.1973 0.789177,0.49793 0.563698,0.29125 0.864337,0.64826 0.310034,0.35701 0.310034,0.87373 0,0.65765 -0.460353,1.10861 -0.450959,0.45095 -1.118001,0.45095 -0.930102,0 -1.550171,-0.78917 l 0.488539,-0.54491 q 0.507328,0.59188 1.033447,0.59188 0.357008,0 0.610673,-0.23487 0.253664,-0.23488 0.253664,-0.54491 0,-0.31943 -0.234874,-0.52612 -0.22548,-0.21608 -0.789178,-0.49793 -0.554303,-0.28185 -0.845547,-0.62007 -0.281849,-0.34761 -0.281849,-0.90192 0,-0.5637 0.403983,-0.95828 0.413379,-0.39459 1.080422,-0.39459 0.676438,0 1.428035,0.7328 z"
         style="stroke-width:0.234875"
         id="path2839" />
      <path
         d="m -50.430021,202.67517 h -1.014656 v 3.58888 q 0,0.1973 0.05637,0.24427 0.05637,0.0376 0.281849,0.0376 h 0.450958 v 0.66704 q -0.450958,0.0752 -0.685833,0.0752 -0.450958,0 -0.667042,-0.21608 -0.216085,-0.22548 -0.216085,-0.70462 v -3.69223 h -0.883127 v -0.67643 h 0.883127 v -1.92597 h 0.779783 v 1.92597 h 1.014656 z"
         style="stroke-width:0.234875"
         id="path2841" />
      <path
         d="m -44.558176,204.69509 h -4.490796 q 0.04697,0.84555 0.563699,1.36227 0.526118,0.50733 1.249531,0.50733 1.230741,0 1.878994,-1.21195 l 0.657647,0.33822 q -0.441563,0.81736 -1.042841,1.21195 -0.601278,0.38519 -1.437431,0.38519 -1.155581,0 -1.907179,-0.78917 -0.751597,-0.79858 -0.751597,-1.91658 0,-1.118 0.751597,-1.91657 0.760993,-0.79857 1.878994,-0.79857 1.118002,0 1.869599,0.76099 0.751598,0.7516 0.779783,2.06689 z m -0.864337,-0.68583 q -0.140925,-0.65765 -0.638858,-1.02405 -0.497934,-0.36641 -1.146187,-0.36641 -1.315295,0 -1.747464,1.39046 z"
         style="stroke-width:0.234875"
         id="path2843" />
      <path
         d="m -41.335706,202.0739 -0.403984,0.65764 q -0.159714,-0.0846 -0.310034,-0.0846 -0.291244,0 -0.526118,0.29124 -0.234874,0.28185 -0.357009,0.7516 -0.11274,0.46035 -0.11274,1.67231 v 1.75686 h -0.789177 v -5.12026 h 0.789177 v 0.5543 q 0.234875,-0.34761 0.469749,-0.51672 0.244269,-0.16911 0.544908,-0.16911 0.310034,0 0.695228,0.20669 z"
         style="stroke-width:0.234875"
         id="path2845" />
    </g>
    <g
       aria-label="Pentecost"
       transform="matrix(-0.69433136,-0.73873263,0.74445781,-0.64816995,0,0)"
       id="text346-3-1"
       style="font-size:9.39497px;font-family:'Heiti SC';-inkscape-font-specification:'Heiti SC, Normal';fill:#00ffff;stroke-width:0.234874">
      <path
         d="m -180.68984,2.7819526 h 1.40925 q 1.20255,0 1.57835,0.09395 0.3758,0.09395 0.68583,0.3382189 0.31943,0.2442692 0.49794,0.6106731 0.1785,0.3664038 0.1785,0.8267573 0,0.4603535 -0.1785,0.8267574 -0.16911,0.3664038 -0.49794,0.610673 -0.31942,0.2348743 -0.78917,0.3382189 -0.46975,0.09395 -1.66291,0.09395 h -0.41338 v 3.13792 h -0.80797 z m 0.80797,2.9594155 h 1.07102 q 0.9489,0.01879 1.28712,-0.300639 0.34761,-0.319429 0.34761,-0.7985725 0,-1.0710265 -1.57836,-1.0710265 h -1.12739 z"
         style="stroke-width:0.234875"
         id="path2848" />
      <path
         d="m -170.18627,7.2351683 h -4.4908 q 0.047,0.8455473 0.5637,1.3622707 0.52612,0.5073284 1.24953,0.5073284 1.23074,0 1.879,-1.2119512 l 0.65764,0.338219 q -0.44156,0.8173623 -1.04284,1.2119511 -0.60128,0.3851937 -1.43743,0.3851937 -1.15558,0 -1.90718,-0.7891774 -0.75159,-0.7985725 -0.75159,-1.9165739 0,-1.1180014 0.75159,-1.9165739 0.761,-0.7985724 1.879,-0.7985724 1.118,0 1.8696,0.7609926 0.75159,0.7515976 0.77978,2.0668933 z m -0.86434,-0.6858328 q -0.14092,-0.6576479 -0.63886,-1.0240517 -0.49793,-0.3664038 -1.14618,-0.3664038 -1.3153,0 -1.74747,1.3904555 z"
         style="stroke-width:0.234875"
         id="path2850" />
      <path
         d="m -164.63385,9.6590706 h -0.77039 V 7.2163784 q 0,-0.8455473 -0.0846,-1.1461863 -0.0752,-0.310034 -0.23487,-0.5167234 -0.15032,-0.2160843 -0.39459,-0.319429 -0.23488,-0.1033446 -0.58249,-0.1033446 -0.33822,0 -0.66704,0.1691094 -0.32883,0.1691095 -0.5637,0.4697485 -0.23488,0.3006391 -0.32883,0.638858 -0.0846,0.3382189 -0.0846,1.3528757 v 1.8977839 h -0.77978 V 4.538812 h 0.77978 v 0.7703875 q 0.76099,-0.9019171 1.80383,-0.9019171 0.55431,0 1.00526,0.2912441 0.45096,0.2818491 0.67644,0.7891774 0.22548,0.4979334 0.22548,1.5407751 z"
         style="stroke-width:0.234875"
         id="path2852" />
      <path
         d="m -161.03559,5.2152498 h -1.01465 v 3.5888785 q 0,0.1972944 0.0564,0.2442692 0.0564,0.03758 0.28185,0.03758 h 0.45095 v 0.6670429 q -0.45095,0.07516 -0.68583,0.07516 -0.45096,0 -0.66704,-0.2160843 -0.21609,-0.2254792 -0.21609,-0.7046227 V 5.2152498 h -0.88312 V 4.538812 h 0.88312 V 2.6128431 h 0.77979 V 4.538812 h 1.01465 z"
         style="stroke-width:0.234875"
         id="path2854" />
      <path
         d="m -155.16374,7.2351683 h -4.4908 q 0.047,0.8455473 0.5637,1.3622707 0.52612,0.5073284 1.24953,0.5073284 1.23074,0 1.879,-1.2119512 l 0.65764,0.338219 q -0.44156,0.8173623 -1.04284,1.2119511 -0.60128,0.3851937 -1.43743,0.3851937 -1.15558,0 -1.90718,-0.7891774 -0.7516,-0.7985725 -0.7516,-1.9165739 0,-1.1180014 0.7516,-1.9165739 0.761,-0.7985724 1.879,-0.7985724 1.118,0 1.8696,0.7609926 0.75159,0.7515976 0.77978,2.0668933 z m -0.86434,-0.6858328 q -0.14092,-0.6576479 -0.63886,-1.0240517 -0.49793,-0.3664038 -1.14618,-0.3664038 -1.3153,0 -1.74747,1.3904555 z"
         style="stroke-width:0.234875"
         id="path2856" />
      <path
         d="m -149.09459,8.6162289 q -0.40399,0.5918831 -1.06164,0.9019171 -0.64825,0.310034 -1.40924,0.310034 -1.18377,0 -1.98234,-0.7797825 -0.78918,-0.7797825 -0.78918,-1.9071789 0,-1.1273963 0.79857,-1.9259688 0.79858,-0.8079674 2.0669,-0.8079674 0.7516,0 1.38106,0.3288239 0.63886,0.328824 0.99587,0.9207071 l -0.61068,0.3851938 q -0.68583,-0.8925222 -1.79444,-0.8925222 -0.87373,0 -1.46561,0.5636982 -0.59189,0.5543032 -0.59189,1.3810606 0,0.8267573 0.58249,1.4186405 0.58249,0.5918831 1.47501,0.5918831 1.07103,0 1.80384,-0.9019172 z"
         style="stroke-width:0.234875"
         id="path2858" />
      <path
         d="m -145.59028,4.4072824 q 1.10861,0 1.87899,0.7985724 0.77979,0.7985725 0.77979,1.9165739 0,1.1180014 -0.77039,1.9165739 -0.76099,0.7891774 -1.88839,0.7891774 -1.1274,0 -1.89778,-0.7891774 -0.77039,-0.7985725 -0.77039,-1.9165739 0,-1.1180014 0.77039,-1.9165739 0.77978,-0.7985724 1.89778,-0.7985724 z m 0,4.678695 q 0.77978,0 1.32469,-0.5636982 0.5543,-0.5730931 0.5543,-1.3716656 0,-0.8079674 -0.56369,-1.3904555 -0.55431,-0.5918831 -1.32469,-0.5918831 -0.761,0 -1.3153,0.5918831 -0.5543,0.5824881 -0.5543,1.3904555 0,0.8079674 0.53551,1.3716656 0.53551,0.5636982 1.34348,0.5636982 z"
         style="stroke-width:0.234875"
         id="path2860" />
      <path
         d="m -139.20171,5.14009 -0.49793,0.5167234 Q -140.25395,5.14009 -140.7143,5.14009 q -0.29124,0 -0.48854,0.1878994 -0.19729,0.1785045 -0.19729,0.4509586 0,0.2630592 0.21608,0.4697485 0.22548,0.1972944 0.78918,0.4979334 0.5637,0.2912441 0.86434,0.6482529 0.31003,0.3570089 0.31003,0.8737322 0,0.6576479 -0.46035,1.1086065 -0.45096,0.4509585 -1.11801,0.4509585 -0.9301,0 -1.55017,-0.7891774 l 0.48854,-0.5449083 q 0.50733,0.5918831 1.03345,0.5918831 0.35701,0 0.61067,-0.2348742 0.25367,-0.2348743 0.25367,-0.5449083 0,-0.319429 -0.23488,-0.5261183 -0.22548,-0.2160843 -0.78917,-0.4979334 -0.55431,-0.2818491 -0.84555,-0.620068 -0.28185,-0.3476139 -0.28185,-0.9019171 0,-0.5636982 0.40398,-0.958287 0.41338,-0.3945887 1.08042,-0.3945887 0.67644,0 1.42804,0.7328076 z"
         style="stroke-width:0.234875"
         id="path2862" />
      <path
         d="m -135.86651,5.2152498 h -1.01465 v 3.5888785 q 0,0.1972944 0.0564,0.2442692 0.0564,0.03758 0.28184,0.03758 h 0.45096 v 0.6670429 q -0.45096,0.07516 -0.68583,0.07516 -0.45096,0 -0.66704,-0.2160843 -0.21609,-0.2254792 -0.21609,-0.7046227 V 5.2152498 h -0.88312 V 4.538812 h 0.88312 V 2.6128431 h 0.77979 V 4.538812 h 1.01465 z"
         style="stroke-width:0.234875"
         id="path2864" />
    </g>
    <g
       aria-label="Easter Cycle"
       id="text3027"
       style="font-size:9.39496px;font-family:'Heiti SC';-inkscape-font-specification:'Heiti SC, Normal';fill:#00ffff;stroke-width:0.352777"
       transform="translate(-2.720713)">
      <path
         d="m 14.950877,208.04105 0.354002,3.17461 1.960789,-0.21865 -0.350879,-3.1466 0.784316,-0.0875 0.350878,3.1466 2.50234,-0.27904 -0.350879,-3.1466 0.793653,-0.0885 0.44042,3.94959 -6.834749,0.76215 -0.443543,-3.9776 z"
         style="stroke-width:0.352778"
         id="path3898" />
      <path
         d="m 20.502417,201.34603 0.05901,0.7587 -0.749333,0.0583 q 0.982777,0.76224 1.067293,1.84877 0.08451,1.08653 -0.651179,1.9259 -0.74579,0.83072 -1.851057,0.91669 -1.114633,0.0867 -1.961905,-0.62953 -0.856639,-0.7155 -0.94334,-1.83013 -0.08743,-1.124 0.762121,-1.95338 l -0.777433,0.0605 -0.05902,-0.7587 z m -0.34863,2.66565 q -0.06047,-0.77743 -0.666187,-1.29572 -0.605715,-0.51828 -1.439349,-0.45344 -0.843,0.0656 -1.362013,0.66192 -0.528381,0.59708 -0.465723,1.40261 0.06193,0.79617 0.695016,1.3029 0.62372,0.50746 1.419886,0.44553 0.796167,-0.0619 1.342552,-0.66983 0.537019,-0.60717 0.475818,-1.39397 z"
         style="stroke-width:0.352778"
         id="path3900" />
      <path
         d="m 15.796717,197.56751 0.540069,0.47251 q -0.489469,0.57851 -0.467332,1.03833 0.01401,0.29091 0.211174,0.47894 0.187786,0.18848 0.459924,0.17538 0.262755,-0.0127 0.458814,-0.23843 0.186223,-0.2347 0.459407,-0.8122 0.2638,-0.57705 0.605938,-0.89451 0.341687,-0.32685 0.857812,-0.35169 0.656886,-0.0316 1.12946,0.40651 0.472122,0.42875 0.504199,1.09502 0.04473,0.92902 -0.71372,1.58632 l -0.56777,-0.46177 q 0.566801,-0.5352 0.541502,-1.06071 -0.01717,-0.3566 -0.263968,-0.59867 -0.246801,-0.24208 -0.556476,-0.22717 -0.319059,0.0154 -0.514214,0.2599 -0.204992,0.23561 -0.459408,0.81221 -0.254867,0.56722 -0.578689,0.87439 -0.333658,0.29824 -0.88732,0.32489 -0.563045,0.0271 -0.976604,-0.35743 -0.41401,-0.39393 -0.446086,-1.0602 -0.03253,-0.67565 0.663288,-1.46162 z"
         style="stroke-width:0.352778"
         id="path3902" />
      <path
         d="m 15.770306,194.12934 0.02839,1.01426 3.58747,-0.10043 q 0.197217,-0.006 0.242596,-0.0632 0.03599,-0.0574 0.02968,-0.28279 l -0.01262,-0.45078 0.666781,-0.0187 q 0.08775,0.44867 0.09432,0.68346 0.01262,0.45078 -0.197335,0.67282 -0.219344,0.22231 -0.698299,0.23572 l -3.690774,0.10331 0.02471,0.88278 -0.676172,0.0189 -0.02471,-0.88278 -1.925213,0.0539 -0.02182,-0.77947 1.925213,-0.0539 -0.02839,-1.01426 z"
         style="stroke-width:0.352778"
         id="path3904" />
      <path
         d="m 17.760188,188.11906 0.0023,4.49079 q 0.845522,-0.0474 1.361975,-0.5644 0.507054,-0.52639 0.506677,-1.2498 -6.42e-4,-1.23074 -1.212929,-1.87836 l 0.337876,-0.65782 q 0.817591,0.44114 1.212493,1.04221 0.385507,0.60107 0.385942,1.43723 6.02e-4,1.15558 -0.788182,1.90758 -0.79818,0.75202 -1.91618,0.7526 -1.118001,5.8e-4 -1.916964,-0.7506 -0.798968,-0.76057 -0.79955,-1.87857 -5.83e-4,-1.118 0.760017,-1.87 0.751205,-0.75199 2.066485,-0.78086 z m -0.685382,0.8647 q -0.657574,0.14126 -1.023718,0.63939 -0.366144,0.49812 -0.365806,1.14637 6.86e-4,1.3153 1.391365,1.74674 z"
         style="stroke-width:0.352778"
         id="path3906" />
      <path
         d="m 15.235239,184.75051 0.64694,0.42092 q -0.08867,0.15747 -0.09257,0.30774 -0.0076,0.29114 0.27749,0.5335 0.275658,0.24211 0.742077,0.37639 0.457272,0.12465 1.668814,0.15611 l 1.756265,0.0456 -0.02048,0.78891 -5.118528,-0.1329 0.02048,-0.78891 0.554116,0.0144 q -0.3414,-0.24382 -0.504356,-0.483 -0.162713,-0.24858 -0.15491,-0.54912 0.008,-0.30993 0.224665,-0.68963 z"
         style="stroke-width:0.352778"
         id="path3908" />
      <path
         d="m 19.595771,175.21082 q 1.345734,1.20718 1.208348,3.13766 -0.116044,1.63059 -1.220911,2.59744 -1.104867,0.96685 -2.679238,0.85481 -0.974611,-0.0694 -1.765269,-0.60599 -0.789991,-0.54599 -1.197864,-1.43212 -0.407873,-0.88613 -0.337846,-1.87011 0.07069,-0.99336 0.51027,-1.74383 0.430872,-0.76051 1.199178,-1.23328 l 0.433917,0.65252 q -1.250139,0.89058 -1.352178,2.32438 -0.08337,1.17141 0.680616,2.08288 0.764647,0.9021 1.964169,0.98747 1.19015,0.0847 2.054767,-0.68262 0.855913,-0.77735 0.949949,-2.0987 0.09404,-1.32134 -0.970526,-2.37665 z"
         style="stroke-width:0.352778"
         id="path3910" />
      <path
         d="m 16.363491,169.30602 6.562901,3.76963 -0.08775,0.80318 -2.134319,-1.22551 -4.87651,1.55587 0.08775,-0.80318 3.909057,-1.26464 -3.549898,-2.02283 z"
         style="stroke-width:0.352778"
         id="path3912" />
      <path
         d="m 21.217317,164.07684 q 0.528758,0.48367 0.742607,1.17858 0.215178,0.6856 0.107489,1.43893 -0.167516,1.17185 -1.052458,1.85204 -0.883612,0.67089 -1.999662,0.51135 -1.116049,-0.15954 -1.793578,-1.06308 -0.686828,-0.90488 -0.507346,-2.16043 0.106359,-0.74404 0.52095,-1.32063 0.41592,-0.5859 1.052367,-0.85555 l 0.2949,0.65903 q -0.980593,0.55263 -1.137473,1.65008 -0.123643,0.86494 0.350624,1.53063 0.464966,0.66437 1.283402,0.78137 0.818437,0.11699 1.486792,-0.37588 0.668355,-0.49286 0.794657,-1.3764 0.151562,-1.06025 -0.637577,-1.91331 z"
         style="stroke-width:0.352778"
         id="path3914" />
      <path
         d="m 22.554775,162.48977 -0.127106,0.75983 -6.949654,-1.16255 0.127106,-0.75983 z"
         style="stroke-width:0.352778"
         id="path3916" />
      <path
         d="m 21.316331,155.87709 -0.846336,4.41032 q 0.839248,0.11322 1.444093,-0.29686 0.59739,-0.42108 0.733724,-1.13153 0.231946,-1.20868 -0.836117,-2.07372 l 0.456098,-0.58213 q 0.719498,0.5877 0.993699,1.25256 0.264974,0.6631 0.107393,1.48427 -0.217781,1.13487 -1.134463,1.72427 -0.925908,0.58763 -2.023875,0.37693 -1.097966,-0.2107 -1.740582,-1.09932 -0.640845,-0.89786 -0.430146,-1.99583 0.210698,-1.09796 1.0997,-1.69267 0.879775,-0.59649 2.176812,-0.37629 z m -0.836436,0.7196 q -0.672421,0.0145 -1.126099,0.43442 -0.453679,0.41995 -0.575849,1.05659 -0.24788,1.29173 1.036211,1.9782 z"
         style="stroke-width:0.352778"
         id="path3918" />
    </g>
    <g
       aria-label="Christmas Cycle"
       id="text3031"
       style="font-size:9.39496px;font-family:'Heiti SC';-inkscape-font-specification:'Heiti SC, Normal';fill:#00ffff;stroke-width:0.352777"
       transform="translate(4.2159696)">
      <path
         d="m 360.65817,176.69932 q -1.5349,-0.95518 -1.73479,-2.8802 -0.16884,-1.62598 0.75137,-2.76998 0.92022,-1.144 2.49013,-1.30702 0.97185,-0.10091 1.84367,0.29028 0.87279,0.40053 1.42833,1.20238 0.55554,0.80186 0.65742,1.78305 0.10286,0.99054 -0.19973,1.80594 -0.29228,0.82377 -0.96683,1.42276 l -0.54063,-0.56727 q 1.07652,-1.09411 0.92806,-2.52385 -0.12129,-1.16809 -1.03193,-1.93307 -0.90967,-0.75563 -2.10579,-0.63143 -1.18678,0.12323 -1.90503,1.02902 -0.70794,0.91416 -0.57113,2.23176 0.13682,1.31761 1.36845,2.17205 z"
         style="stroke-width:0.352778"
         id="path3866" />
      <path
         d="m 359.76486,182.4119 -0.0502,-0.77816 2.43763,-0.15717 q 0.71253,-0.0459 1.00015,-0.11156 0.28822,-0.0562 0.53169,-0.22257 0.25284,-0.16693 0.36717,-0.43791 0.12431,-0.26221 0.10074,-0.62785 -0.023,-0.35627 -0.21289,-0.67353 -0.18991,-0.31726 -0.50504,-0.5323 -0.31513,-0.21505 -0.65869,-0.28704 -0.34296,-0.0626 -1.35551,0.003 l -1.89385,0.1221 -0.0502,-0.77816 7.03162,-0.45337 0.0502,0.77816 -2.69077,0.17349 q 0.94901,0.70139 1.01611,1.74207 0.0357,0.55315 -0.22596,1.02191 -0.25225,0.46816 -0.74402,0.72582 -0.48239,0.25705 -1.52307,0.32415 z"
         style="stroke-width:0.352778"
         id="path3868" />
      <path
         d="m 364.93688,185.62695 -0.67299,-0.37788 q 0.0782,-0.16291 0.0723,-0.31311 -0.0114,-0.29102 -0.31165,-0.51429 -0.29085,-0.22364 -0.76502,-0.32726 -0.46442,-0.0946 -1.67544,-0.0471 l -1.75551,0.0689 -0.031,-0.78857 5.11632,-0.20081 0.031,0.78856 -0.55388,0.0217 q 0.35656,0.22106 0.53475,0.44913 0.17856,0.23744 0.19035,0.53785 0.0122,0.3098 -0.17926,0.7028 z"
         style="stroke-width:0.352778"
         id="path3870" />
      <path
         d="m 366.96115,186.61205 q 0.006,0.25358 -0.16773,0.42716 -0.16453,0.18274 -0.41811,0.18917 -0.24419,0.006 -0.42716,-0.16773 -0.17334,-0.16477 -0.17977,-0.41835 -0.006,-0.24419 0.16773,-0.42717 0.17416,-0.17358 0.40895,-0.17953 0.2442,-0.006 0.42693,0.15834 0.18297,0.17392 0.18916,0.41811 z m -7.03395,0.57308 -0.0198,-0.77953 5.11861,-0.1298 0.0198,0.77954 z"
         style="stroke-width:0.352778"
         id="path3872" />
      <path
         d="m 364.49712,191.01454 -0.5212,-0.49324 q 0.5117,-0.55895 0.50754,-1.01928 -0.003,-0.29124 -0.1923,-0.48683 -0.18028,-0.19567 -0.45272,-0.19321 -0.26305,0.002 -0.46778,0.22032 -0.19525,0.22725 -0.49079,0.79364 -0.28614,0.5663 -0.64042,0.87015 -0.35419,0.31325 -0.87089,0.31792 -0.65762,0.006 -1.11272,-0.45033 -0.45501,-0.44686 -0.46104,-1.11388 -0.008,-0.93006 0.77515,-1.55723 l 0.5493,0.4836 q -0.58728,0.51265 -0.58253,1.03874 0.003,0.357 0.24038,0.60853 0.23715,0.25153 0.54718,0.24873 0.31941,-0.003 0.52397,-0.23961 0.21404,-0.22742 0.49079,-0.79364 0.27683,-0.55683 0.6124,-0.85111 0.34506,-0.28498 0.89934,-0.28999 0.56367,-0.005 0.96189,0.39532 0.39831,0.40979 0.40433,1.07681 0.006,0.67641 -0.71988,1.43459 z"
         style="stroke-width:0.352778"
         id="path3874" />
      <path
         d="m 364.38887,194.45157 0.0114,-1.01459 -3.58865,-0.0402 q -0.19728,-0.002 -0.24489,0.0536 -0.0382,0.0559 -0.0407,0.28141 l -0.005,0.45093 -0.667,-0.007 q -0.0701,-0.45177 -0.0675,-0.68663 0.005,-0.45093 0.22354,-0.66458 0.22788,-0.21355 0.70699,-0.20819 l 3.69199,0.0413 0.01,-0.88307 0.6764,0.008 -0.01,0.88307 1.92584,0.0216 -0.009,0.77973 -1.92585,-0.0216 -0.0113,1.01459 z"
         style="stroke-width:0.352778"
         id="path3876" />
      <path
         d="m 359.60735,202.83284 0.0369,-0.78831 2.78724,0.13058 q 0.66632,0.0312 0.97997,-0.0387 0.31321,-0.0606 0.53242,-0.32305 0.22816,-0.25266 0.24882,-0.69374 0.0202,-0.4317 -0.24329,-0.82966 -0.26351,-0.39796 -0.74448,-0.57097 -0.47159,-0.17258 -1.41944,-0.21699 l -2.0177,-0.0945 0.0356,-0.76016 2.61832,0.12266 q 0.76955,0.0361 1.11135,-0.0326 0.34137,-0.0592 0.56996,-0.32129 0.2286,-0.26205 0.24795,-0.67497 0.0193,-0.41293 -0.22584,-0.80062 -0.23624,-0.37788 -0.6502,-0.57597 -0.40457,-0.19765 -1.37119,-0.24294 l -2.17725,-0.102 0.036,-0.76954 5.11465,0.23961 -0.036,0.76954 -0.72262,-0.0338 q 0.82323,0.69694 0.77706,1.68233 -0.0251,0.53492 -0.3362,0.95299 -0.30221,0.42789 -0.83654,0.59096 0.51998,0.34414 0.77909,0.83595 0.25912,0.4918 0.23406,1.02673 -0.0343,0.732 -0.57463,1.22398 -0.54034,0.49198 -1.96681,0.42515 z"
         style="stroke-width:0.352778"
         id="path3878" />
      <path
         d="m 359.0226,209.15555 0.07,-0.75776 0.7484,0.0692 q -0.83985,-0.91733 -0.73957,-2.00252 0.10029,-1.08519 0.96723,-1.78818 0.87543,-0.69277 1.97933,-0.59075 1.11326,0.10288 1.82733,0.95197 0.72343,0.84996 0.62055,1.96322 -0.10375,1.12261 -1.08122,1.79651 l 0.77647,0.0718 -0.07,0.75776 z m 0.79402,-2.56842 q -0.0718,0.77647 0.43768,1.38965 0.50943,0.61318 1.34203,0.69012 0.84196,0.0778 1.45428,-0.42227 0.62166,-0.49921 0.69601,-1.30375 0.0735,-0.79519 -0.46487,-1.4016 -0.52901,-0.60555 -1.3242,-0.67904 -0.79518,-0.0735 -1.43642,0.43336 -0.63189,0.5077 -0.70451,1.29353 z"
         style="stroke-width:0.352778"
         id="path3880" />
      <path
         d="m 363.01991,213.67709 -0.4522,-0.55719 q 0.58042,-0.4872 0.63652,-0.94413 0.0355,-0.28907 -0.12697,-0.50779 -0.15313,-0.21758 -0.42356,-0.25078 -0.26109,-0.032 -0.49257,0.15723 -0.2233,0.19976 -0.59039,0.72262 -0.35777,0.52401 -0.74875,0.7789 -0.39213,0.26422 -0.905,0.20126 -0.65275,-0.0801 -1.04425,-0.59202 -0.39264,-0.50255 -0.31136,-1.16462 0.11334,-0.92317 0.9722,-1.44245 l 0.48131,0.5513 q -0.64929,0.43142 -0.7134,0.95362 -0.0435,0.35435 0.15871,0.63474 0.20221,0.2804 0.50993,0.31818 0.31705,0.0389 0.55082,-0.16902 0.24195,-0.19746 0.59039,-0.72261 0.34729,-0.51583 0.71848,-0.76369 0.37937,-0.23739 0.92954,-0.16984 0.5595,0.0687 0.90192,0.51774 0.34127,0.45839 0.25999,1.12046 -0.0824,0.67139 -0.90136,1.32809 z"
         style="stroke-width:0.352778"
         id="path3882" />
      <path
         d="m 358.2185,223.12586 q -1.22006,-1.33407 -0.89288,-3.24158 0.27636,-1.61119 1.47123,-2.46431 1.19487,-0.85312 2.75051,-0.58629 0.96301,0.16518 1.69686,0.7772 0.73227,0.62127 1.05072,1.54332 0.31846,0.92205 0.15169,1.89432 -0.16836,0.98153 -0.67983,1.68497 -0.50381,0.71429 -1.31501,1.10895 l -0.36742,-0.69215 q 1.33191,-0.76289 1.57491,-2.17963 0.19854,-1.15746 -0.47179,-2.13987 -0.67191,-0.97314 -1.85716,-1.17644 -1.17598,-0.20171 -2.11209,0.47655 -0.92843,0.68912 -1.15238,1.99474 -0.22394,1.30562 0.7313,2.46082 z"
         style="stroke-width:0.352778"
         id="path3884" />
      <path
         d="m 360.85189,229.32108 -6.15863,-4.3992 0.16662,-0.7906 2.00289,1.43026 5.0063,-1.06679 -0.16662,0.7906 -4.01482,0.87249 3.33283,2.36345 z"
         style="stroke-width:0.352778"
         id="path3886" />
      <path
         d="m 355.5054,234.04547 q -0.47841,-0.53352 -0.6226,-1.24615 -0.14643,-0.70349 0.0351,-1.44251 0.28241,-1.14959 1.23019,-1.73907 0.94554,-0.58036 2.04038,-0.31141 1.09484,0.26896 1.67984,1.23499 0.59413,0.96826 0.29155,2.19996 -0.1793,0.7299 -0.6488,1.26274 -0.47174,0.54197 -1.1317,0.74746 l -0.22839,-0.68493 q 1.03037,-0.45311 1.29484,-1.5297 0.20845,-0.84851 -0.19777,-1.55778 -0.3971,-0.70703 -1.19998,-0.90426 -0.80289,-0.19724 -1.51664,0.22723 -0.71376,0.42446 -0.92668,1.29121 -0.25551,1.0401 0.44554,1.96692 z"
         style="stroke-width:0.352778"
         id="path3888" />
      <path
         d="m 354.01783,235.49272 0.20149,-0.74357 6.80094,1.84293 -0.20149,0.74357 z"
         style="stroke-width:0.352778"
         id="path3890" />
      <path
         d="m 354.59765,242.19529 1.27738,-4.30529 q -0.82398,-0.19548 -1.46634,0.15292 -0.63602,0.36008 -0.84179,1.05361 -0.35008,1.1799 0.62742,2.14611 l -0.51132,0.53428 q -0.65799,-0.65582 -0.86525,-1.3445 -0.19825,-0.68601 0.0396,-1.48762 0.32869,-1.10784 1.29906,-1.60392 0.97937,-0.4934 2.05119,-0.17539 1.07182,0.31801 1.62362,1.26571 0.54912,0.95671 0.23111,2.02853 -0.31801,1.07181 -1.26135,1.5759 -0.93434,0.50677 -2.20332,0.15966 z m 0.90336,-0.63355 q 0.67056,0.052 1.16347,-0.32118 0.4929,-0.37315 0.67729,-0.99462 0.37413,-1.26096 -0.83596,-2.07079 z"
         style="stroke-width:0.352778"
         id="path3892" />
    </g>
    <g
       aria-label="Lent"
       id="text3977"
       style="font-size:9.39496px;font-family:'Heiti SC';-inkscape-font-specification:'Heiti SC, Normal';fill:#00ffff;stroke-width:0.352777"
       transform="translate(0.37089801,-4.821674)">
      <path
         d="m 237.9942,90.42571 -3.14981,-1.307401 2.63641,-6.351692 0.75491,0.313344 -2.33747,5.631486 2.3949,0.994057 z"
         style="stroke-width:0.352778"
         id="path3982" />
      <path
         d="M 244.37529,90.714334 240.31107,88.804 q -0.31717,0.785212 -0.0693,1.472659 0.26033,0.682942 0.91503,0.990674 1.11383,0.523543 2.21606,-0.297525 l 0.4513,0.585847 q -0.74732,0.551885 -1.45933,0.653215 -0.70802,0.09283 -1.46475,-0.262863 -1.04581,-0.491571 -1.39031,-1.525505 -0.3405,-1.042437 0.13509,-2.054239 0.47558,-1.011802 1.49549,-1.414797 1.02841,-0.398998 2.04021,0.07659 1.0118,0.475585 1.36829,1.484012 0.36048,0.999924 -0.17352,2.202269 z m -0.49049,-0.988365 q 0.15222,-0.655125 -0.14255,-1.198539 -0.29477,-0.543414 -0.88145,-0.819174 -1.19035,-0.559512 -2.17295,0.515024 z"
         style="stroke-width:0.352778"
         id="path3984" />
      <path
         d="m 248.27382,95.528981 -0.67906,-0.363834 1.15362,-2.153113 q 0.39933,-0.745308 0.46678,-1.050239 0.0802,-0.308776 0.037,-0.566392 -0.0305,-0.261459 -0.19695,-0.467914 -0.15823,-0.202019 -0.46463,-0.366187 -0.29812,-0.159732 -0.66783,-0.165966 -0.36971,-0.0062 -0.71872,0.147841 -0.34902,0.154073 -0.59156,0.407827 -0.23426,0.25819 -0.71346,1.15256 l -0.89627,1.672803 -0.68734,-0.368271 2.41816,-4.513256 0.68734,0.368271 -0.36383,0.679059 q 1.09672,-0.435599 2.01594,0.05691 0.48859,0.261783 0.74854,0.731476 0.26439,0.461412 0.22354,1.015085 -0.0364,0.545391 -0.52892,1.464605 z"
         style="stroke-width:0.352778"
         id="path3986" />
      <path
         d="m 253.64743,93.535229 -0.87463,-0.51435 -1.81927,3.093583 q -0.10001,0.170066 -0.0752,0.239133 0.0295,0.06097 0.2239,0.175269 l 0.38873,0.2286 -0.33814,0.574985 q -0.42682,-0.163813 -0.62928,-0.282876 -0.38873,-0.2286 -0.46545,-0.5244 -0.072,-0.303899 0.17092,-0.716917 l 1.87167,-3.182665 -0.76125,-0.447675 0.3429,-0.583084 0.76125,0.447675 0.97631,-1.660169 0.67217,0.395288 -0.97632,1.660169 0.87463,0.51435 z"
         style="stroke-width:0.352778"
         id="path3988" />
    </g>
    <g
       aria-label="Ordinary Time"
       id="text3994"
       style="font-size:9.39496px;font-family:'Heiti SC';-inkscape-font-specification:'Heiti SC, Normal';fill:#00ffff;stroke-width:0.352777"
       transform="translate(2.225388,-0.74179601)">
      <path
         d="m 295.0142,131.68745 q 0.49293,0.87611 0.48997,1.84797 0.005,0.96726 -0.48856,1.79485 -0.48917,0.83579 -1.3489,1.31951 -0.85155,0.47911 -1.81522,0.47153 -0.96368,-0.008 -1.79127,-0.50135 -0.82759,-0.49377 -1.31131,-1.35351 -0.47912,-0.85154 -0.48434,-1.8188 0.003,-0.97186 0.48856,-1.79485 0.49377,-0.82759 1.34532,-1.3067 0.85973,-0.48372 1.82341,-0.47615 0.97186,0.003 1.79485,0.48856 0.82759,0.49377 1.29749,1.32894 z m -5.58672,3.17565 q 0.57586,1.02349 1.66802,1.33607 1.09677,0.32077 2.14482,-0.26891 1.04806,-0.58967 1.35501,-1.71101 0.31155,-1.11314 -0.25509,-2.12026 -0.58047,-1.03168 -1.69259,-1.32225 -1.09932,-0.28699 -2.131,0.29347 -1.02349,0.57586 -1.33505,1.68901 -0.31155,1.11314 0.24588,2.10388 z"
         style="stroke-width:0.352778"
         id="path4003" />
      <path
         d="m 296.62107,139.04656 -0.76891,-0.0669 q 0.004,-0.18067 -0.0632,-0.31509 -0.13035,-0.26045 -0.49591,-0.34014 -0.35717,-0.0839 -0.8319,0.0171 -0.46213,0.10522 -1.54593,0.64763 l -1.57108,0.78629 -0.3532,-0.70572 4.57882,-2.2916 0.3532,0.70573 -0.49569,0.24808 q 0.41598,0.0545 0.67232,0.18881 0.26055,0.14276 0.39511,0.41161 0.13875,0.27725 0.12632,0.71421 z"
         style="stroke-width:0.352778"
         id="path4005" />
      <path
         d="m 294.52506,146.57847 -0.3123,-0.69396 0.68539,-0.30844 q -1.18274,-0.38466 -1.63384,-1.38705 -0.44724,-0.99381 -0.0352,-2.02406 0.41207,-1.03025 1.43159,-1.48905 1.01953,-0.45881 2.05919,-0.0716 1.04824,0.38338 1.50705,1.4029 0.46266,1.02809 -0.0561,2.09603 l 2.46741,-1.11039 0.31229,0.69396 z m -0.57407,-2.62635 q 0.30459,0.67682 1.0491,0.98053 0.74452,0.3037 1.51559,-0.0433 0.77963,-0.35085 1.07005,-1.07909 0.30285,-0.72353 -0.0364,-1.47746 -0.33543,-0.74536 -1.10265,-1.00794 -0.7548,-0.25787 -1.48303,0.0699 -0.71966,0.32387 -1.02808,1.08081 -0.30841,0.75694 0.0154,1.4766 z"
         style="stroke-width:0.352778"
         id="path4007" />
      <path
         d="m 301.65418,145.45062 q 0.0955,0.23502 -0.006,0.45887 -0.0895,0.22902 -0.32453,0.32447 -0.22631,0.0919 -0.45887,-0.006 -0.22031,-0.093 -0.31576,-0.32806 -0.0919,-0.22632 0.006,-0.45887 0.10175,-0.22385 0.31936,-0.31223 0.22632,-0.0919 0.45534,-0.002 0.23255,0.0982 0.32447,0.32453 z m -6.37985,3.01703 -0.29342,-0.72246 4.74391,-1.92672 0.29343,0.72247 z"
         style="stroke-width:0.352778"
         id="path4009" />
      <path
         d="m 297.28768,153.80349 -0.26542,-0.72322 2.29314,-0.84157 q 0.79378,-0.29132 1.04688,-0.47427 0.26515,-0.17738 0.40416,-0.39852 0.15107,-0.21557 0.16393,-0.48049 0.0161,-0.2561 -0.10367,-0.58243 -0.11653,-0.31751 -0.38857,-0.56794 -0.27205,-0.25043 -0.6352,-0.36734 -0.36315,-0.11692 -0.71303,-0.0886 -0.34664,0.0371 -1.29918,0.38673 l -1.78159,0.65384 -0.26866,-0.73204 4.80677,-1.76408 0.26866,0.73204 -0.72322,0.26542 q 1.10888,0.40367 1.46817,1.38266 0.19097,0.52037 0.0729,1.04406 -0.10923,0.52045 -0.50781,0.90692 -0.38976,0.38322 -1.36876,0.74251 z"
         style="stroke-width:0.352778"
         id="path4011" />
      <path
         d="m 299.19483,159.88399 -0.2229,-0.72761 0.71864,-0.22015 q -1.12524,-0.5298 -1.44444,-1.57182 -0.3192,-1.04202 0.21595,-2.02151 0.54689,-0.97325 1.60687,-1.29796 1.06897,-0.32746 2.05193,0.18698 0.99195,0.51168 1.31941,1.58065 0.33021,1.07795 -0.31824,2.07249 l 0.74558,-0.2284 0.2229,0.72762 z m -0.2405,-2.67757 q 0.22839,0.74558 0.93247,1.11945 0.70409,0.37387 1.50357,0.12896 0.80846,-0.24766 1.18508,-0.94275 0.38561,-0.69785 0.14896,-1.47039 -0.2339,-0.76355 -0.96218,-1.12018 -0.7193,-0.35938 -1.48285,-0.12548 -0.76355,0.2339 -1.16437,0.94624 -0.39183,0.70958 -0.16068,1.46415 z"
         style="stroke-width:0.352778"
         id="path4013" />
      <path
         d="m 304.95261,161.99674 -0.73845,-0.22448 q 0.0414,-0.17591 0.003,-0.32134 -0.0737,-0.28177 -0.41486,-0.43533 -0.3321,-0.15594 -0.81746,-0.15527 -0.4739,0.007 -1.64644,0.31395 l -1.69971,0.44443 -0.19964,-0.76351 4.95373,-1.29524 0.19963,0.76351 -0.53628,0.14022 q 0.39573,0.1393 0.61875,0.32376 0.2254,0.19354 0.30145,0.4844 0.0784,0.29995 -0.0241,0.7249 z"
         style="stroke-width:0.352778"
         id="path4015" />
      <path
         d="m 306.19332,167.08225 -7.42921,-1.44522 -0.17666,-0.78842 2.41592,0.46962 4.11154,-3.049 0.17665,0.78842 -3.29021,2.4606 4.01326,0.76641 z"
         style="stroke-width:0.352778"
         id="path4017" />
      <path
         d="m 308.26551,173.47085 -0.23765,-1.48428 -6.01137,0.96247 -0.12922,-0.80708 6.01137,-0.96248 -0.23914,-1.49356 0.77925,-0.12477 0.60601,3.78494 z"
         style="stroke-width:0.352778"
         id="path4019" />
      <path
         d="m 309.36439,174.53493 q 0.0335,0.25144 -0.12113,0.44263 -0.14407,0.19927 -0.39551,0.23275 -0.24213,0.0323 -0.44264,-0.12113 -0.18995,-0.14531 -0.22343,-0.39675 -0.0322,-0.24213 0.12113,-0.44264 0.15462,-0.19119 0.38744,-0.22219 0.24213,-0.0323 0.44139,0.11182 0.20051,0.15338 0.23275,0.39551 z m -6.93247,1.32127 -0.10293,-0.77296 5.07544,-0.6759 0.10294,0.77296 z"
         style="stroke-width:0.352778"
         id="path4021" />
      <path
         d="m 303.28495,184.62514 -0.0666,-0.78636 2.78034,-0.23559 q 0.66466,-0.0563 0.96645,-0.16674 0.30258,-0.10107 0.48553,-0.39 0.1931,-0.28036 0.15582,-0.72035 -0.0365,-0.43063 -0.34985,-0.79065 -0.31337,-0.36002 -0.81285,-0.46856 -0.49013,-0.10932 -1.43563,-0.0292 l -2.0127,0.17054 -0.0643,-0.75827 2.61183,-0.22131 q 0.76764,-0.065 1.09751,-0.17785 0.33067,-0.10345 0.52298,-0.39317 0.1923,-0.28973 0.1574,-0.70163 -0.0349,-0.4119 -0.32875,-0.76415 -0.28369,-0.34368 -0.72002,-0.48585 -0.42698,-0.14297 -1.3912,-0.0613 l -2.17185,0.18403 -0.065,-0.76764 5.10198,-0.4323 0.065,0.76764 -0.72083,0.0611 q 0.90741,0.58311 0.9907,1.56606 0.0452,0.5336 -0.2085,0.98882 -0.24356,0.46378 -0.75194,0.69543 0.56057,0.27307 0.88187,0.72671 0.32129,0.45364 0.36651,0.98724 0.0619,0.73019 -0.40938,1.28869 -0.47125,0.55851 -1.89419,0.67907 z"
         style="stroke-width:0.352778"
         id="path4023" />
      <path
         d="m 305.81554,190.88789 -0.0803,-4.49007 q -0.84457,0.0621 -1.35197,0.58797 -0.49784,0.5351 -0.4849,1.2584 0.022,1.23054 1.24536,1.85702 l -0.3264,0.66359 q -0.82513,-0.42688 -1.23041,-1.021 -0.39588,-0.59429 -0.41084,-1.43031 -0.0207,-1.1554 0.75494,-1.92099 0.78501,-0.76576 1.90283,-0.78575 1.11782,-0.02 1.9297,0.7172 0.81206,0.74659 0.83205,1.86441 0.02,1.11782 -0.72743,1.88291 -0.73803,0.76491 -2.05261,0.81662 z m 0.67026,-0.87647 q 0.65502,-0.15266 1.01246,-0.65707 0.35744,-0.5044 0.34585,-1.15255 -0.0235,-1.31508 -1.42149,-1.72232 z"
         style="stroke-width:0.352778"
         id="path4025" />
    </g>
    <g
       aria-label="Ordinary Time"
       id="text4001"
       style="font-size:9.39496px;font-family:'Heiti SC';-inkscape-font-specification:'Heiti SC, Normal';fill:#00ffff;stroke-width:0.352777"
       transform="translate(-1.85449,2.596286)">
      <path
         d="m 122.45283,288.14817 q -0.82586,-0.57316 -1.24732,-1.44888 -0.42681,-0.86801 -0.34371,-1.82813 0.0754,-0.96547 0.63784,-1.77589 0.55709,-0.8027 1.42746,-1.21644 0.87037,-0.41374 1.83048,-0.33063 0.96012,0.0831 1.77054,0.64555 0.8027,0.55708 1.22951,1.42509 0.42146,0.87573 0.34371,1.82813 -0.0831,0.96011 -0.64019,1.76282 -0.56245,0.81042 -1.43282,1.22416 -0.87573,0.42145 -1.82812,0.3437 -0.96012,-0.0831 -1.74738,-0.62948 z m 3.64077,-5.29537 q -0.96479,-0.66958 -2.08387,-0.4742 -1.12681,0.19003 -1.81245,1.17797 -0.68565,0.98794 -0.47247,2.13082 0.20547,1.13751 1.15482,1.79638 0.9725,0.67493 2.09994,0.45103 1.11436,-0.22153 1.78929,-1.19403 0.66958,-0.96479 0.46412,-2.10231 -0.20547,-1.13751 -1.13938,-1.78566 z"
         style="stroke-width:0.352778"
         id="path4031" />
      <path
         d="m 117.79549,282.22805 0.72104,-0.27534 q 0.0751,0.16436 0.19432,0.25595 0.23094,0.17745 0.59464,0.0896 0.35797,-0.0804 0.74103,-0.37846 0.36988,-0.29634 1.10831,-1.25735 l 1.07044,-1.3931 0.62577,0.48084 -3.11972,4.06009 -0.62577,-0.48084 0.33773,-0.43953 q -0.39804,0.13253 -0.68732,0.12352 -0.29673,-0.0147 -0.53512,-0.19791 -0.24584,-0.1889 -0.42535,-0.58749 z"
         style="stroke-width:0.352778"
         id="path4033" />
      <path
         d="m 116.39439,274.53652 0.58384,0.4881 -0.48208,0.57663 q 1.23204,-0.17007 2.07536,0.53497 0.83612,0.69901 0.91496,1.8058 0.0788,1.1068 -0.63825,1.96454 -0.71708,0.85773 -1.82151,0.96304 -1.11046,0.11252 -1.9682,-0.60457 -0.86494,-0.72311 -0.86426,-1.91038 l -1.73547,2.07587 -0.58384,-0.4881 z m 1.66267,2.11252 q -0.56942,-0.47605 -1.37184,-0.42439 -0.80242,0.0517 -1.34475,0.70037 -0.54836,0.65591 -0.49186,1.43789 0.0433,0.78316 0.67756,1.31344 0.62709,0.52426 1.43198,0.42569 0.79167,-0.0974 1.30387,-0.71005 0.50618,-0.60546 0.45334,-1.42112 -0.0528,-0.81565 -0.6583,-1.32183 z"
         style="stroke-width:0.352778"
         id="path4035" />
      <path
         d="m 110.47215,278.66249 q -0.18844,-0.1698 -0.19459,-0.41562 -0.0194,-0.24512 0.1504,-0.43357 0.16351,-0.18146 0.41561,-0.19458 0.23884,-0.0124 0.42728,0.15737 0.18147,0.16351 0.19459,0.41562 0.006,0.24581 -0.15108,0.4203 -0.16352,0.18146 -0.40864,0.20087 -0.2521,0.0131 -0.43357,-0.15039 z m 4.42361,-5.49879 0.5793,0.52199 -3.4275,3.80384 -0.5793,-0.52198 z"
         style="stroke-width:0.352778"
         id="path4037" />
      <path
         d="m 110.75567,269.24144 0.55443,0.53489 -1.69598,1.75795 q -0.58707,0.60852 -0.73495,0.88359 -0.16117,0.27531 -0.18973,0.53495 -0.0419,0.25988 0.0622,0.50385 0.0973,0.23745 0.34745,0.4788 0.24341,0.23483 0.59747,0.34143 0.35406,0.1066 0.73183,0.0533 0.37777,-0.0533 0.68021,-0.23147 0.29568,-0.1847 1.00017,-0.91492 l 1.31764,-1.3658 0.56119,0.54141 -3.55503,3.68494 -0.56119,-0.54141 0.53488,-0.55443 q -1.17387,0.12072 -1.92438,-0.60333 -0.39892,-0.38485 -0.52125,-0.90756 -0.12886,-0.51594 0.0611,-1.03761 0.18345,-0.5149 0.9075,-1.26541 z"
         style="stroke-width:0.352778"
         id="path4039" />
      <path
         d="m 106.38614,264.6028 0.51809,0.5574 -0.55052,0.51169 q 1.24364,-0.0144 1.98559,0.78389 0.74195,0.79825 0.6879,1.91309 -0.0673,1.11435 -0.87934,1.86909 -0.8189,0.76114 -1.92783,0.72725 -1.1158,-0.0275 -1.87694,-0.8464 -0.76753,-0.82577 -0.61811,-2.0036 l -0.57117,0.53088 -0.51808,-0.5574 z m 1.38491,2.30419 q -0.53088,-0.57116 -1.32754,-0.60028 -0.79665,-0.0291 -1.40911,0.54013 -0.61933,0.57565 -0.65485,1.36542 -0.0424,0.79618 0.50766,1.38798 0.54367,0.58493 1.35458,0.58798 0.80402,0.009 1.38895,-0.53422 0.58493,-0.54367 0.63469,-1.35951 0.0429,-0.80945 -0.49438,-1.3875 z"
         style="stroke-width:0.352778"
         id="path4041" />
      <path
         d="m 100.28357,265.2146 0.76238,-0.12029 q 0.0395,0.17635 0.1372,0.2906 0.18926,0.22137 0.56325,0.21064 0.36686,-0.005 0.80327,-0.21704 0.42317,-0.21345 1.34437,-1.001 l 1.33537,-1.14163 0.51282,0.59984 -3.89186,3.32723 -0.51282,-0.59984 0.42132,-0.3602 q -0.41684,0.0474 -0.69801,-0.0213 -0.28726,-0.0758 -0.48262,-0.30428 -0.20147,-0.23566 -0.29467,-0.66275 z"
         style="stroke-width:0.352778"
         id="path4043" />
      <path
         d="m 96.947869,261.18038 7.315131,-1.94183 0.50301,0.63229 -2.37866,0.63179 -2.36875,4.53764 -0.503011,-0.63229 1.886541,-3.64979 -3.945396,1.06183 z"
         style="stroke-width:0.352778"
         id="path4045" />
      <path
         d="m 92.295393,256.33653 0.861579,1.23178 4.988694,-3.4894 0.468483,0.66978 -4.988693,3.48939 0.866963,1.23948 -0.646682,0.45233 -2.197027,-3.14103 z"
         style="stroke-width:0.352778"
         id="path4047" />
      <path
         d="m 90.842292,255.85871 q -0.13986,-0.21162 -0.08418,-0.45112 0.04266,-0.24216 0.254286,-0.38202 0.203785,-0.13468 0.451126,-0.0842 0.234322,0.0478 0.374182,0.25946 0.134681,0.20379 0.08418,0.45113 -0.05568,0.2395 -0.251628,0.369 -0.203785,0.13468 -0.445946,0.092 -0.24734,-0.0505 -0.38202,-0.25429 z m 5.660872,-4.21419 0.429941,0.65054 -4.271661,2.82311 -0.429941,-0.65055 z"
         style="stroke-width:0.352778"
         id="path4049" />
      <path
         d="m 91.90885,244.12693 0.403122,0.67844 -2.398798,1.42533 q -0.57345,0.34074 -0.796792,0.5718 -0.22814,0.22298 -0.266656,0.56279 -0.05139,0.33652 0.174166,0.71613 0.220757,0.37153 0.659822,0.55871 0.439066,0.18717 0.935843,0.0668 0.4887,-0.11553 1.304453,-0.60023 l 1.736504,-1.03181 0.388726,0.65422 -2.253417,1.33895 q -0.662295,0.39352 -0.909867,0.63898 -0.252371,0.23738 -0.298963,0.58198 -0.04659,0.34461 0.164568,0.69999 0.211159,0.35537 0.629272,0.54407 0.405236,0.18542 0.859873,0.12292 0.44656,-0.0577 1.278467,-0.55201 l 1.873809,-1.11338 0.393525,0.66229 -4.401836,2.6155 -0.393525,-0.6623 0.621911,-0.36952 q -1.070921,-0.12866 -1.574825,-0.97672 -0.273547,-0.46038 -0.243925,-0.98068 0.01675,-0.52358 0.373063,-0.95386 -0.623544,-0.001 -1.1106,-0.26901 -0.487056,-0.26794 -0.760604,-0.72832 -0.374328,-0.62998 -0.194056,-1.33816 0.180273,-0.70817 1.407941,-1.43763 z"
         style="stroke-width:0.352778"
         id="path4051" />
      <path
         d="m 86.898838,239.59639 2.031766,4.00488 q 0.732806,-0.42444 0.959839,-1.11903 0.214404,-0.69872 -0.112889,-1.34386 -0.556823,-1.09758 -1.930929,-1.12737 l 0.0041,-0.73951 q 0.928699,0.024 1.552629,0.38169 0.615551,0.36194 0.99385,1.10762 0.522819,1.03055 0.159075,2.05787 -0.372122,1.03157 -1.369154,1.53739 -0.997033,0.50582 -2.049244,0.19684 -1.056462,-0.31736 -1.562278,-1.31439 -0.505816,-0.99703 -0.167208,-2.0116 0.33023,-1.01032 1.490458,-1.63053 z m -0.220574,1.0811 q -0.522732,0.42322 -0.624211,1.03305 -0.101479,0.60982 0.191809,1.18794 0.595078,1.17298 2.030611,0.9293 z"
         style="stroke-width:0.352778"
         id="path4053" />
    </g>
    <g
       aria-label="Advent"
       id="text4058"
       style="font-size:9.39496px;font-family:'Heiti SC';-inkscape-font-specification:'Heiti SC, Normal';fill:#00ffff;stroke-width:0.352777"
       transform="translate(1.85449,2.225388)">
      <path
         d="m 281.76637,256.84348 0.48235,-0.70587 2.4994,0.4221 1.60076,-2.34259 -1.30678,-2.16741 0.50355,-0.7369 4.06902,6.71759 -0.13781,0.20168 z m 3.86332,-0.12515 2.50432,0.44822 -1.3223,-2.17801 z"
         style="stroke-width:0.352778"
         id="path4063" />
      <path
         d="m 278.14161,261.53102 0.46568,-0.60187 0.59444,0.45993 q -0.21652,-1.22473 0.45613,-2.0941 0.6669,-0.86194 1.76993,-0.98257 1.10302,-0.12062 1.98725,0.56353 0.88423,0.68414 1.03122,1.78381 0.15441,1.10541 -0.52974,1.98964 -0.68989,0.89166 -1.87633,0.93586 l 2.13999,1.65576 -0.46569,0.60187 z m 2.04816,-1.74134 q -0.45419,0.58701 -0.37223,1.3869 0.082,0.79989 0.7507,1.31731 0.67618,0.52318 1.45546,0.43715 0.78096,-0.0728 1.28688,-0.72672 0.50018,-0.64646 0.37126,-1.44705 -0.12724,-0.78742 -0.75884,-1.2761 -0.62416,-0.48293 -1.43723,-0.39929 -0.81307,0.0836 -1.296,0.7078 z"
         style="stroke-width:0.352778"
         id="path4065" />
      <path
         d="m 278.2948,269.23643 -2.48498,-5.22252 0.12251,-0.14247 5.54792,1.66096 -0.53295,0.61971 -3.86629,-1.18129 1.74674,3.6459 z"
         style="stroke-width:0.352778"
         id="path4067" />
      <path
         d="m 272.1209,271.85065 3.0965,-3.25252 q -0.64479,-0.549 -1.37532,-0.53105 -0.73021,0.0312 -1.22902,0.55517 -0.84862,0.89139 -0.41784,2.19656 l -0.69842,0.2431 q -0.28752,-0.8834 -0.15871,-1.59096 0.13561,-0.70108 0.71216,-1.30668 0.7968,-0.83694 1.88661,-0.83714 1.09662,0.006 1.90635,0.77716 0.80973,0.77089 0.86986,1.86588 0.0537,1.10179 -0.71723,1.91152 -0.77088,0.80972 -1.84029,0.82936 -1.06259,0.0261 -2.03465,-0.8604 z m 1.0927,-0.15311 q 0.57349,0.35139 1.18219,0.2434 0.60871,-0.10799 1.0557,-0.5775 0.90692,-0.95262 0.19786,-2.22437 z"
         style="stroke-width:0.352778"
         id="path4069" />
      <path
         d="m 266.31865,274.0262 0.56005,-0.52899 1.67731,1.77577 q 0.5806,0.61469 0.84851,0.77519 0.26753,0.17378 0.52556,0.21437 0.25766,0.0539 0.5062,-0.0387 0.24171,-0.0861 0.49442,-0.32484 0.24587,-0.23224 0.3688,-0.58097 0.12292,-0.34873 0.0872,-0.72857 -0.0357,-0.37983 -0.19963,-0.69022 -0.17077,-0.30394 -0.8675,-1.04157 l -1.30313,-1.37964 0.56688,-0.53545 3.51589,3.7223 -0.56689,0.53545 -0.52899,-0.56005 q 0.0661,1.17821 -0.69203,1.89429 -0.40297,0.38062 -0.93079,0.47855 -0.52137,0.10476 -1.03365,-0.10923 -0.50583,-0.20715 -1.22191,-0.96527 z"
         style="stroke-width:0.352778"
         id="path4071" />
      <path
         d="m 266.50734,279.75462 0.76493,-0.66664 -2.35795,-2.70557 q -0.12963,-0.14873 -0.20299,-0.14711 -0.0672,0.009 -0.23717,0.15685 l -0.33996,0.29629 -0.43826,-0.50287 q 0.29058,-0.35295 0.46765,-0.50727 0.33997,-0.29628 0.64484,-0.27535 0.31104,0.028 0.62585,0.38922 l 2.42585,2.78348 0.66576,-0.58023 0.44443,0.50995 -0.66576,0.58023 1.26539,1.45194 -0.58786,0.51233 -1.26539,-1.45194 -0.76493,0.66664 z"
         style="stroke-width:0.352778"
         id="path4073" />
    </g>
    <g
       aria-label="Christmas"
       id="text4848"
       style="font-size:5.64444px;font-family:'Heiti SC';-inkscape-font-specification:'Heiti SC, Normal';text-align:center;text-anchor:middle;fill:#00ffff;stroke-width:0.352777">
      <path
         d="m 312.7454,210.87422 q -0.74813,-0.7874 -0.57342,-1.93695 0.14758,-0.97098 0.85556,-1.49711 0.70798,-0.52612 1.64548,-0.38364 0.58035,0.0882 1.02817,0.44744 0.44697,0.36481 0.64881,0.91503 0.20184,0.55022 0.11278,1.13616 -0.0899,0.59152 -0.38909,1.01991 -0.29445,0.43483 -0.77722,0.68117 l -0.22862,-0.41155 q 0.79133,-0.4735 0.9211,-1.32729 0.10601,-0.69755 -0.30788,-1.28 -0.41474,-0.57686 -1.12903,-0.68542 -0.7087,-0.10771 -1.26325,0.31042 -0.54981,0.42456 -0.6694,1.21139 -0.11958,0.78683 0.46744,1.46981 z"
         style="stroke-width:0.352778"
         id="path4861" />
      <path
         d="m 311.38479,214.06244 0.0854,-0.46064 1.44297,0.26748 q 0.42179,0.0782 0.59898,0.0823 0.17617,0.01 0.34247,-0.0513 0.17186,-0.06 0.27836,-0.20099 0.11103,-0.13441 0.15115,-0.35086 0.0391,-0.2109 -0.0248,-0.42366 -0.0639,-0.21277 -0.21576,-0.38443 -0.15188,-0.17167 -0.34139,-0.26421 -0.19054,-0.087 -0.78993,-0.19809 l -1.12108,-0.20781 0.0854,-0.46064 4.16242,0.77158 -0.0854,0.46064 -1.59282,-0.29526 q 0.44946,0.5483 0.33526,1.16434 -0.0607,0.32745 -0.28212,0.56195 -0.21588,0.23553 -0.54027,0.31318 -0.31883,0.0787 -0.93487,-0.0355 z"
         style="stroke-width:0.352778"
         id="path4863" />
      <path
         d="m 313.9361,216.684 -0.33776,-0.31772 q 0.0692,-0.0837 0.0875,-0.17211 0.0354,-0.17135 -0.10732,-0.34498 -0.13724,-0.17249 -0.39875,-0.30151 -0.25712,-0.12236 -0.97016,-0.26985 l -1.03363,-0.21381 0.096,-0.4643 3.01245,0.62313 -0.096,0.4643 -0.32612,-0.0675 q 0.17593,0.18049 0.24684,0.33925 0.0698,0.16429 0.0332,0.34117 -0.0377,0.18241 -0.20621,0.38388 z"
         style="stroke-width:0.352778"
         id="path4865" />
      <path
         d="m 314.97812,217.54073 q -0.0326,0.14888 -0.15904,0.22522 -0.12217,0.0831 -0.27105,0.0505 -0.14336,-0.0314 -0.22522,-0.15903 -0.0775,-0.12096 -0.045,-0.26984 0.0314,-0.14337 0.15903,-0.22523 0.12648,-0.0763 0.26433,-0.0462 0.14337,0.0314 0.22643,0.15353 0.0819,0.12768 0.0505,0.27105 z m -4.18623,-0.6729 0.1001,-0.45767 3.00518,0.65726 -0.10009,0.45767 z"
         style="stroke-width:0.352778"
         id="path4867" />
      <path
         d="m 312.91719,219.74871 -0.23458,-0.36172 q 0.37784,-0.25401 0.44051,-0.52339 0.0397,-0.17043 -0.0434,-0.31146 -0.0776,-0.13975 -0.23702,-0.17685 -0.15393,-0.0358 -0.3043,0.0625 -0.14615,0.10509 -0.39882,0.39401 -0.24717,0.29021 -0.49701,0.41752 -0.25111,0.13282 -0.55348,0.0625 -0.38483,-0.0895 -0.58604,-0.42031 -0.20249,-0.32528 -0.11168,-0.71561 0.12663,-0.54427 0.67285,-0.79967 l 0.25235,0.36007 q -0.41542,0.21629 -0.48705,0.52415 -0.0486,0.20891 0.0543,0.38932 0.1029,0.18041 0.28432,0.22262 0.18692,0.0435 0.33985,-0.0658 0.15714,-0.10252 0.39881,-0.39401 0.2404,-0.28598 0.47796,-0.41036 0.24179,-0.1176 0.56614,-0.0421 0.32986,0.0768 0.50576,0.36687 0.17462,0.29561 0.0838,0.68594 -0.0921,0.39583 -0.62324,0.73587 z"
         style="stroke-width:0.352778"
         id="path4869" />
      <path
         d="m 312.37767,221.73104 0.14785,-0.5914 -2.09181,-0.52293 q -0.11499,-0.0288 -0.15058,-0.003 -0.0301,0.0274 -0.063,0.1588 l -0.0657,0.26284 -0.38879,-0.0972 q 0.0219,-0.2738 0.0561,-0.41069 0.0657,-0.26285 0.22314,-0.35731 0.16291,-0.0931 0.44218,-0.0233 l 2.15204,0.53799 0.12868,-0.51474 0.39426,0.0986 -0.12868,0.51473 1.12257,0.28064 -0.11362,0.4545 -1.12257,-0.28063 -0.14784,0.59139 z"
         style="stroke-width:0.352778"
         id="path4871" />
      <path
         d="m 308.44387,225.96953 0.12822,-0.45646 1.61393,0.45336 q 0.38582,0.10838 0.57889,0.10985 0.19154,0.007 0.35535,-0.11711 0.16773,-0.11704 0.23948,-0.37245 0.0702,-0.24996 -0.0302,-0.51856 -0.10044,-0.26859 -0.35859,-0.43491 -0.25272,-0.1648 -0.80156,-0.31897 l -1.16834,-0.3282 0.12365,-0.44016 1.51611,0.42589 q 0.4456,0.12517 0.65497,0.13121 0.20784,0.0115 0.37709,-0.11099 0.16925,-0.12248 0.23642,-0.36159 0.0672,-0.2391 -0.0239,-0.4992 -0.0872,-0.25315 -0.30272,-0.42509 -0.2101,-0.17041 -0.76981,-0.32764 l -1.26072,-0.35414 0.12517,-0.4456 2.96159,0.83193 -0.12517,0.4456 -0.41842,-0.11754 q 0.38765,0.5193 0.22737,1.08988 -0.087,0.30974 -0.32569,0.51239 -0.23477,0.20961 -0.56961,0.23281 0.25785,0.27177 0.34302,0.5947 0.0852,0.32294 -0.002,0.63268 -0.11906,0.42386 -0.50189,0.63878 -0.38284,0.21492 -1.20882,-0.0171 z"
         style="stroke-width:0.352778"
         id="path4873" />
      <path
         d="m 307.27829,229.59877 0.13978,-0.43531 0.42994,0.13806 q -0.37309,-0.64742 -0.17291,-1.27082 0.20018,-0.62341 0.80022,-0.92278 0.60369,-0.29227 1.23784,-0.0886 0.63952,0.20536 0.94772,0.79637 0.31357,0.59274 0.10822,1.23227 -0.20709,0.6449 -0.86816,0.91281 l 0.44606,0.14323 -0.13979,0.43531 z m 0.80027,-1.40295 q -0.14323,0.44606 0.0757,0.87205 0.21891,0.42599 0.69721,0.57957 0.48367,0.15532 0.90794,-0.0582 0.42964,-0.21181 0.57805,-0.67398 0.14668,-0.45681 -0.0901,-0.8826 -0.23138,-0.42407 -0.68818,-0.57076 -0.45681,-0.14668 -0.89892,0.067 -0.43674,0.21546 -0.5817,0.66689 z"
         style="stroke-width:0.352778"
         id="path4875" />
      <path
         d="m 309.05191,232.75982 -0.19476,-0.38462 q 0.40271,-0.21238 0.49369,-0.47356 0.0575,-0.16524 -0.0101,-0.31431 -0.0623,-0.14722 -0.21687,-0.20106 -0.14925,-0.052 -0.30922,0.0298 -0.1565,0.0889 -0.43847,0.34935 -0.27664,0.26226 -0.5386,0.36228 -0.26383,0.10534 -0.557,0.003 -0.37312,-0.12997 -0.538,-0.48028 -0.16673,-0.34498 -0.0349,-0.72343 0.18381,-0.5277 0.7541,-0.72354 l 0.21261,0.38486 q -0.43607,0.17087 -0.54004,0.46937 -0.0706,0.20255 0.0126,0.39289 0.0831,0.19033 0.25903,0.2516 0.18123,0.0631 0.34492,-0.0293 0.16715,-0.0852 0.43846,-0.34935 0.26946,-0.25878 0.51891,-0.35718 0.25292,-0.0912 0.56741,0.0183 0.31982,0.1114 0.46386,0.41858 0.14218,0.31252 0.0104,0.69097 -0.13368,0.38379 -0.69798,0.66539 z"
         style="stroke-width:0.352778"
         id="path4877" />
    </g>
    <g
       aria-label="Time"
       id="text4855"
       style="font-size:5.64444px;font-family:'Heiti SC';-inkscape-font-specification:'Heiti SC, Normal';text-align:center;text-anchor:middle;fill:#00ffff;stroke-width:0.352777">
      <path
         d="m 304.20932,214.72307 0.18103,-0.88478 -3.58335,-0.73318 0.0984,-0.4811 3.58336,0.73318 0.18217,-0.89031 0.4645,0.095 -0.46163,2.25619 z"
         style="stroke-width:0.352778"
         id="path4880" />
      <path
         d="m 304.62182,215.50796 q -0.0329,0.14882 -0.1595,0.2249 -0.12233,0.0828 -0.27115,0.05 -0.1433,-0.0317 -0.2249,-0.1595 -0.0773,-0.12112 -0.0444,-0.26993 0.0317,-0.1433 0.15949,-0.2249 0.12663,-0.0761 0.26442,-0.0456 0.14331,0.0316 0.22612,0.15398 0.0816,0.12785 0.05,0.27115 z m -4.18485,-0.6814 0.10102,-0.45747 3.00385,0.66337 -0.10103,0.45747 z"
         style="stroke-width:0.352778"
         id="path4882" />
      <path
         d="m 299.18962,219.96449 0.11521,-0.45992 1.62615,0.40737 q 0.38875,0.0974 0.58177,0.0934 0.19166,0.001 0.35189,-0.12714 0.16434,-0.12176 0.2288,-0.3791 0.0631,-0.25186 -0.0449,-0.51749 -0.10802,-0.26564 -0.37079,-0.42457 -0.25729,-0.15755 -0.81029,-0.29608 l -1.17718,-0.29489 0.1111,-0.4435 1.5276,0.38267 q 0.44897,0.11248 0.65842,0.11258 0.20808,0.006 0.37379,-0.12167 0.16571,-0.12723 0.22606,-0.36814 0.0603,-0.24091 -0.0381,-0.49833 -0.0943,-0.25057 -0.31466,-0.41632 -0.21485,-0.16438 -0.7788,-0.30565 l -1.27026,-0.31821 0.11247,-0.44897 2.98401,0.74752 -0.11247,0.44897 -0.42159,-0.10562 q 0.40223,0.50809 0.25822,1.08299 -0.0782,0.31209 -0.31101,0.52143 -0.22872,0.21619 -0.56277,0.24889 0.26545,0.26434 0.35976,0.58472 0.0943,0.32039 0.0161,0.63248 -0.10699,0.42707 -0.48356,0.65277 -0.37658,0.2257 -1.20882,0.0172 z"
         style="stroke-width:0.352778"
         id="path4884" />
      <path
         d="m 299.52385,223.99981 0.75784,-2.58942 q -0.49547,-0.11561 -0.88062,0.0951 -0.38131,0.21775 -0.50339,0.63487 -0.2077,0.70966 0.38173,1.28797 l -0.306,0.32212 q -0.39678,-0.39254 -0.52284,-0.80583 -0.12063,-0.4117 0.0205,-0.89383 0.19501,-0.66632 0.77689,-0.96652 0.5873,-0.29861 1.23195,-0.10994 0.64464,0.18867 0.97827,0.75681 0.33204,0.57355 0.14337,1.2182 -0.18867,0.64465 -0.75429,0.9496 -0.56022,0.30654 -1.32338,0.10083 z m 0.54132,-0.38265 q 0.40298,0.0297 0.69828,-0.19555 0.2953,-0.22528 0.4047,-0.59907 0.22196,-0.75841 -0.50686,-1.24224 z"
         style="stroke-width:0.352778"
         id="path4886" />
    </g>
  </g>
</svg>
